<?xml version="1.0" standalone="no"?>
<!DOCTYPE svg PUBLIC "-//W3C//DTD SVG 1.1//EN" "http://www.w3.org/Graphics/SVG/1.1/DTD/svg11.dtd" >
<svg xmlns="http://www.w3.org/2000/svg">
<metadata>
Created by FontForge 20100429 at Sat Feb 16 15:40:56 2013
 By root
Copyright (C) 2012 by original authors @ fontello.com
</metadata>
<defs>
<font id="custom" horiz-adv-x="1030" >
  <font-face 
    font-family="custom"
    font-weight="500"
    font-stretch="normal"
    units-per-em="1000"
    panose-1="2 0 6 3 0 0 0 0 0 0"
    ascent="850"
    descent="-150"
    x-height="846"
    cap-height="845"
    bbox="13.8621 -225 1410 925"
    underline-thickness="50"
    underline-position="-100"
    unicode-range="U+0021-1F6AB"
  />
<missing-glyph horiz-adv-x="364" 
d="M33 0v666h265v-666h-265zM66 33h199v600h-199v-600z" />
    <glyph glyph-name=".notdef" horiz-adv-x="364" 
d="M33 0v666h265v-666h-265zM66 33h199v600h-199v-600z" />
    <glyph glyph-name=".null" horiz-adv-x="0" 
 />
    <glyph glyph-name="nonmarkingreturn" horiz-adv-x="333" 
 />
    <glyph glyph-name="exclam" unicode="!" horiz-adv-x="1022" 
d="M402 612q-76 -9 -118 -52.5t-42 -121.5q0 -30 4 -50q20 -126 73 -358q34 -157 38 -174q-159 49 -251 185q-91 134 -91 307q0 215 141 356q140 140 355 140t355 -140q141 -141 141 -356q0 -182 -103 -312q-105 -132 -280 -172q-5 10 -33.5 53t-34.5 55q66 -26 86 -26
q16 0 16 50q0 94 -17 94q-24 0 -97 -56q0 14 -15 12h-5q-26 70 -26 124q0 15 3 30q94 -46 148 -46q30 0 93 18t63 40q0 12 -17 12q-15 0 -75 -7t-75 -7q-26 0 -60 14q-32 13 -32 38q0 5 1.5 7.5t5 3t6.5 0.5t8 -0.5t8 -0.5q5 0 26 -3t25 -3q28 0 127 37q96 36 96 57
q0 11 -17.5 16.5t-35.5 5.5q-12 0 -42 -8q-13 -3 -53 -16t-52 -16q4 17 4 32q0 48 -25 110t-58 92q-28 25 -72 34q-28 35 -88 65q-58 29 -105 29q-3 0 -51 -8l-22 -30l6 -2q4 0 21.5 2t21.5 2q33 0 78 -14q-37 -18 -62 -21q-39 -5 -39 -21q56 6 84 6q42 0 60 -6zM355 500
q-17 0 -36 -12.5t-18 -27.5q-3 6 -3 12q0 16 15 26t33 10q20 0 29 -12q-11 4 -20 4zM331 398q0 13 10.5 23.5t23.5 10.5t23.5 -10.5t10.5 -23.5t-10.5 -23.5t-23.5 -10.5t-23.5 10.5t-10.5 23.5zM380 400q9 0 9 8q0 10 -9 10t-9 -10q0 -8 9 -8zM539 496q4 24 35 24
q25 0 35 -22q-19 10 -33 10q-30 0 -37 -12zM562 418q0 11 9 19.5t20 8.5q12 0 20.5 -8t8.5 -20q0 -11 -9 -20.5t-20 -9.5q-10 0 -19.5 9.5t-9.5 20.5zM597 428q0 -8 7 -8q8 0 8 8q0 6 -8 6q-7 0 -7 -6z" />
    <glyph glyph-name="quotedbl" unicode="&#x22;" horiz-adv-x="1324" 
d="M454 94q18 0 31 11.5t13 29.5q0 11 -84 199q-87 195 -106 231q-6 15 -16 15q-7 0 -16 -15q-16 -31 -52 -114l-57 -127l-57 -126q-95 110 -95 234q0 107 53 190t136 130q172 98 375 98q337 0 581 -226q149 -138 149 -322q0 -15 -1 -19q-11 -153 -120 -256t-269 -147
q-107 -30 -229 -30h-8q-200 0 -315 53q-5 1 -7 6q0 2 3 2q1 0 4 -1h3q50 -12 89 -12q59 0 91 24q20 14 20 40q0 12 -6 24q-9 16 -58 34q-36 13 -114 33q-78 19 -123 36.5t-92 49.5q0 2 4.5 12.5t4.5 11.5q7 18 16 18h179q9 0 17 -21q22 -66 56 -66zM287 395l5 3q5 0 32 -64
q27 -63 27 -69q0 -4 -5 -4h-108q-5 0 -5 5q0 10 54 129zM587 98q47 0 47 45v388q0 45 -47 45t-47 -45v-388q0 -45 47 -45zM725 143q0 -45 47 -45t47 45v181l92 -185q14 -29 41 -29q32 0 46 29l91 185v-181q0 -45 47 -45q48 0 48 45v388q0 45 -47 45q-35 0 -47 -29l-138 -302
l-133 302q-14 29 -48 29q-46 0 -46 -45v-388z" />
    <glyph glyph-name="numbersign" unicode="#" horiz-adv-x="1039" 
d="M15 351h501v-501h-501v501zM524 349v501h500v-501h-500z" />
    <glyph glyph-name="dollar" unicode="$" horiz-adv-x="1004" 
d="M209 850h438q107 0 181 -74q81 -79 52 -229q-28 -135 -128 -214q-99 -78 -234 -78h-183l-63 -296h-257zM115 -150l11 49h216l63 295h183q135 0 234 78q100 79 128 214q21 96 -12 170q71 -85 43 -219q-30 -136 -129 -214t-233 -78h-184l-63 -295h-257zM639 605
q-8 28 -31 46t-56 18h-125l-55 -244h83l42 183h125q2 0 17 -3zM497 426q50 2 91 38.5t51 82.5q0 1 1 6t1 6h-114z" />
    <glyph glyph-name="percent" unicode="%" horiz-adv-x="989" 
d="M15 477q0 181 85.5 279t258.5 98h548l-109 -110l-137 -138l-111 -108q-40 -37 -41 -37q-15 0 -15 16v156h-48q-86 0 -132.5 -17.5t-63.5 -71.5q-12 -38 -12 -96v-262l-223 -223v514zM82 -154l109 110l135 138l112 108q40 37 42 37q15 0 15 -16v-156h48q117 0 161 35
q46 37 46 150v262l224 223v-514q0 -181 -85.5 -279t-258.5 -98h-548z" />
    <glyph glyph-name="ampersand" unicode="&#x26;" horiz-adv-x="950" 
d="M78 138q-26 0 -44.5 19t-18.5 44v269q0 26 18.5 44.5t44.5 18.5t44.5 -18.5t18.5 -44.5v-269q0 -25 -18.5 -44t-44.5 -19zM251 38q-25 0 -44 19t-19 44v418h574v-418q0 -25 -19 -44t-44 -19h-448zM188 566q0 116 85 189q86 74 202 74t202 -74q85 -73 85 -189h-574z
M289 882q0 -2 48 -91l15 8l-49 89q-6 2 -7 2q-7 0 -7 -8zM304 75q0 27 19 45t47 18q25 0 44 -19t19 -44v-202q0 -27 -19 -45t-47 -18q-25 0 -44 19t-19 44v202zM349 734q-16 0 -28 -11.5t-12 -27.5t11.5 -28t27.5 -12q17 0 28.5 11.5t11.5 28.5q0 16 -11.5 27.5t-27.5 11.5z
M517 75q0 27 19.5 45t46.5 18q25 0 44 -19t19 -44v-202q0 -27 -19 -45t-47 -18q-26 0 -44.5 19t-18.5 44v202zM602 734q-16 0 -28 -11.5t-12 -27.5t11.5 -28t27.5 -12q17 0 28.5 11.5t11.5 28.5q0 16 -11.5 27.5t-27.5 11.5zM598 799l15 -9l48 89v2q0 9 -7 9q-6 0 -18 -18
q-11 -17 -24 -44zM809 201v268q0 26 19 45t44 19t44 -19t19 -45v-268q0 -25 -18.5 -44t-44.5 -19t-45 18.5t-18 44.5z" />
    <glyph glyph-name="quotesingle" unicode="'" horiz-adv-x="854" 
d="M751 187q35 0 55 -21.5t20 -57.5q0 -30 -23 -78q-24 -49 -74 -89t-112 -64q-71 -27 -161 -27q-210 0 -325 135q-116 137 -116 366q0 169 64.5 289.5t182.5 173.5q81 36 178 36q129 0 217 -61q80 -53 131 -146.5t51 -206.5q0 -93 -47 -120q-46 -27 -132 -27h-423
q0 -85 30 -148q26 -58 71.5 -93.5t110.5 -35.5q75 0 133 43q32 23 56 47l66 69q15 16 47 16zM237 429h392q-8 125 -60 188q-51 62 -136 62q-82 0 -133 -63q-53 -63 -63 -187z" />
    <glyph glyph-name="parenleft" unicode="(" 
d="M161 704q146 146 354 146t354 -146t146 -354t-146 -354t-354 -146t-354 146t-146 354t146 354zM250 85q110 -110 265 -110t264 109q111 111 111 266t-110 265t-265 110t-265 -110t-110 -265t110 -265zM328 162l124 250l250 126l-124 -250z" />
    <glyph glyph-name="parenright" unicode=")" horiz-adv-x="827" 
d="M15 524h63q83 -119 144 -219h2v219h68v-344h-62l-86 129l-59 88h-2v-217h-68v344zM443 541h51l-127 -382h-51zM622 524h71l119 -344h-74l-22 70h-119l-23 -70h-73zM615 307h84l-21 67l-20 68h-2q-31 -100 -41 -135z" />
    <glyph glyph-name="asterisk" unicode="*" 
d="M355 -128q-10 -2 -30 -8t-38 -10t-34 -4q-26 0 -46.5 17t-25.5 40l-164 687q-2 16 -2 18q0 26 17 46.5t40 25.5l197 47q-63 -72 -63 -168q0 -186 253 -283q58 -23 109 -58q63 -44 63 -102q0 -41 -34.5 -66t-80.5 -25q-63 0 -125.5 24t-100.5 59l-79 -179q53 -30 144 -61z
M434 566q0 37 35 58t76 21q52 0 110 -17q60 -18 88 -47l61 170q-90 48 -186 63q2 0 45 12q47 13 71 18q28 6 43 6q26 0 46.5 -17t25.5 -40l164 -687q2 -16 2 -18q0 -26 -17 -46.5t-40 -25.5l-145 -34q47 71 47 152q0 111 -70 182q-71 72 -185 110q-171 58 -171 140z" />
    <glyph glyph-name="plus" unicode="+" horiz-adv-x="1214" 
d="M332 -150q-76 0 -145.5 17.5t-120.5 60.5t-51 104q0 87 89 155t215 68h54q-42 41 -42 86q0 30 16 58q-7 -1 -29 -1q-103 0 -170 65q-66 65 -66 160q0 92 82 159q83 68 187 68h310l-69 -50h-98q45 -17 72.5 -66.5t27.5 -112.5q0 -93 -88 -162q-36 -28 -48 -46
q-11 -17 -11 -42q0 -19 27 -48q30 -32 54 -49q60 -42 84 -88q24 -45 24 -113q0 -91 -82 -157t-222 -66zM186 -52q60 -49 145 -49q118 0 173 44q53 43 53 117q0 47 -37 88q-4 4 -40 31q-35 25 -51 35q-39 12 -77 12q-90 1 -158 -47q-67 -48 -67 -114q0 -69 59 -117zM193 624
q10 -72 57.5 -132.5t112.5 -61.5q63 -2 95.5 54.5t23.5 130.5q-9 72 -56.5 130.5t-112.5 60.5q-63 2 -96 -53t-24 -129zM748 600v50h200v200h50v-200h201v-50h-201v-201h-50v201h-200z" />
    <glyph glyph-name="comma" unicode="," horiz-adv-x="1136" 
d="M15 677v21l2 2h249l2 -2v-20q0 -8 -10 -8l-26 -1q-33 -1 -33 -20q0 -14 7 -28q52 -128 222 -484l6 -1l111 221q-3 6 -11 23.5t-11 25.5l-96 190q-24 48 -34 60q-8 10 -33 14q-14 2 -14 7v21l3 2h197l5 -1v-21q0 -8 -10 -8l-15 -2q-7 -1 -10 -1.5t-7.5 -2.5t-5.5 -5t-1 -8
q0 -6 4 -18l14 -30l73 -150l81 162q9 17 10.5 27t-6 16t-16.5 8t-29 4q-10 0 -10 9v19l3 2q57 2 186 0l2 -2v-20q0 -8 -9 -8q-22 -1 -30 -4.5t-17 -15.5q-22 -34 -30 -48l-105 -196l-3 -7l128 -262l8 -3l202 481q11 27 -2 40t-40 14l-19 1q-3 0 -6.5 3t-3.5 6v20l3 2h229
l2 -2v-20q0 -7 -9 -9q-44 -2 -64.5 -17t-35.5 -51l-250 -567q-21 -48 -46 -30q-13 10 -23 31q-40 80 -122 263q-100 -205 -131 -264q-41 -71 -71 -1q-13 30 -128 280.5t-132 290.5q-16 42 -28 52q-10 10 -52 13q-14 2 -14 7z" />
    <glyph glyph-name="hyphen" unicode="-" horiz-adv-x="970" 
d="M15 739q-1 16 20 37q12 12 50 28q4 2 17.5 8t19 8t20.5 8t22 8l22 7q15 5 21.5 4.5t21.5 2t21 -0.5q43 -6 54 -35q16 -43 102 -320q72 -232 116 -361q274 90 326 105q21 8 41 3t29 -22q23 -47 32 -99q9 -53 1 -74q-33 -27 -135 -61q-26 -9 -100.5 -32.5t-100.5 -32.5
q-152 -54 -226 -67q-57 -9 -70 6q-19 19 -32 52q-5 12 -15 43.5t-20 66.5t-13 43l-63 186l-92 281l-62 184q-7 16 -7 24z" />
    <glyph glyph-name="period" unicode="." horiz-adv-x="806" 
d="M538 701q0 5 2 27t4 22t5 9.5t7.5 18.5t9.5 8q10 -2 22 8q13 10 31 4q43 0 65 -24q5 -6 10 -28t5 -34v-39h92v-775h-776v775h92q0 38 5 71q4 21 11 29t25 17q18 8 40 8q42 0 64 -24q5 -6 10.5 -28t5.5 -34v-39h55v39q0 1 1 8.5t2 16t2.5 17.5t4 14.5t5.5 5.5q7 -1 24 16
t41 8q54 0 67 -29q10 -22 12 -43q2 -24 2 -25v-28h54v28zM80 -37h139v112h-139v-112zM219 97v119h-139v-119h139zM219 238v130h-139v-130h139zM219 389v112h-139v-112h139zM188 559q37 0 37 33v130q0 33 -37 33t-37 -33v-130q0 -33 37 -33zM240 -37h152v112h-152v-112z
M392 97v119h-152v-119h152zM392 238v130h-152v-130h152zM392 389v112h-152v-112h152zM403 559q38 0 38 33v130q0 33 -38 33q-37 0 -37 -33v-130q0 -33 37 -33zM413 -37h152v112h-152v-112zM565 97v119h-152v-119h152zM565 238v130h-152v-130h152zM565 389v112h-152v-112h152
zM619 559q37 0 37 33v130q0 33 -37 33q-38 0 -38 -33v-130q0 -33 38 -33zM586 -37h140v112h-140v-112zM726 97v119h-140v-119h140zM726 238v130h-140v-130h140zM586 389h140v112h-140v-112z" />
    <glyph glyph-name="slash" unicode="/" horiz-adv-x="1339" 
d="M670 625q-29 0 -49.5 -20.5t-20.5 -48.5v-417q0 -121 -86 -205t-206 -84q-121 0 -207 86t-86 207v181h224v-179q0 -29 20.5 -49t48.5 -20q29 0 49.5 20.5t20.5 48.5v423q0 118 86 200t206 82q118 0 206 -83q86 -82 86 -201v-92l-134 -40l-89 42v80q0 28 -20.5 48.5
t-48.5 20.5zM739 140v183l89 -42l134 40v-184q0 -29 20.5 -49.5t48.5 -20.5t48.5 20.5t20.5 49.5v187h224v-181q0 -121 -86 -207t-206 -86q-122 0 -207 85q-86 86 -86 205z" />
    <glyph glyph-name="zero" unicode="0" horiz-adv-x="1292" 
d="M621 53q-67 0 -113.5 34.5t-71.5 90.5q-62 -128 -203 -128q-95 0 -157 48q-61 48 -61 138h119q5 -40 29 -64t65 -24q47 0 76 32.5t29 81.5q0 48 -28 79t-75 31q-38 0 -65 -24q-28 -25 -51 -25q-44 0 -80 2l28 161q24 132 29 164h330v-98h-243q-13 -67 -24 -134h3
q15 19 48.5 31t67.5 12q114 0 160 -103q22 57 69.5 92.5t113.5 35.5q44 0 87.5 -18t69.5 -43q24 -23 63 -66q2 -3 6 -7l7 -7q8 10 22 25l18 20q4 5 13.5 14.5t18.5 17.5l24 19q54 44 132 44q89 0 144.5 -60.5t55.5 -151.5q0 -94 -55 -156q-56 -63 -147 -63q-116 0 -226 131
q-71 -71 -81 -78q-4 -3 -17 -11l-21 -14q-44 -29 -109 -29zM530 266q0 -42 25.5 -68t67.5 -26q75 0 155 95l-29 29l-19 20q-9 9 -48 32q-34 20 -63 20q-38 0 -63.5 -31t-25.5 -71zM919 266q30 -32 47 -46.5t48 -31.5q29 -16 61 -16q42 0 67 27.5t25 70.5t-25.5 70.5
t-67.5 27.5q-43 0 -86 -33z" />
    <glyph glyph-name="one" unicode="1" horiz-adv-x="804" 
d="M15 491q0 129 103 240q50 54 131 86.5t177 32.5q158 0 261 -98q102 -98 102 -231q0 -172 -87 -283t-223 -111q-44 0 -84 21t-56 51l-40 -158q-20 -76 -85 -163q-3 -5 -9.5 -12.5t-9.5 -12.5q-3 -4 -8 -3t-6 6q0 5 -2.5 21t-2.5 21q-10 98 7 177q5 24 74 313
q-18 36 -18 75l-1 15q0 59 31 104t80 45q36 0 57 -24t21 -62q0 -24 -9 -57l-20 -70q-17 -56 -22 -77q-10 -45 18 -78t73 -33q58 0 101 49t62 117t19 140q0 96 -63 158q-64 62 -176 62q-126 0 -204 -81q-79 -82 -79 -194q0 -66 38 -113q6 -7 7.5 -14t1.5 -11t-3 -14.5
t-4 -15.5q-5 -20 -6 -23q-4 -24 -28 -14q-57 23 -87.5 80.5t-30.5 138.5z" />
    <glyph glyph-name="two" unicode="2" horiz-adv-x="1031" 
d="M31 471q33 131 125.5 227t220.5 133q141 41 270.5 2t216.5 -123q88 -86 130.5 -211t6.5 -270q-33 -131 -125.5 -227t-220.5 -133q-141 -41 -271 -2t-217 123q-88 86 -130 211t-6 270zM572 563l-44 11l22 88l-55 14l-22 -90q-13 1 -35 8l-76 19l-14 -59l39 -9
q27 -7 26 -32l-26 -103h1l2 -1q-2 0 -3 1l-36 -144q-4 -18 -25 -13l-40 10l-27 -63l72 -18q3 0 19 -5t20 -5l-23 -91l55 -14l22 90l44 -11l-22 -90l55 -13l22 91q107 -18 151 13q29 20 43 61q31 90 -51 133q60 13 70 80q13 85 -110 126l23 91l-55 13zM472 344q20 0 47 -11
q41 -12 57 -22q14 -9 21 -15t13 -20t1 -31q-7 -27 -43 -38q-22 -7 -92 7q-20 3 -34 9zM486 399l27 110q9 -3 33.5 -8.5t40.5 -12t25 -16.5q18 -18 17 -30q-3 -46 -31 -53q-26 -6 -49 -3q-43 8 -47 9q-13 4 -16 4z" />
    <glyph glyph-name="three" unicode="3" horiz-adv-x="1155" 
d="M743 242q0 117 -106 117h-30v36l103 178h-124l-7 -12l-152 -511h-7l-110 370l-111 -370h-7l-177 597h77l107 -363l72 244l-35 119h77l107 -363l107 363h290v-36l-109 -188q55 -19 85.5 -66t30.5 -115q0 -79 -42 -135.5t-113 -56.5q-55 0 -92 35t-54 87l60 25
q28 -73 86 -73q34 0 54 37t20 81zM833 230q24 -42 32 -53q7 -12 43 -43q63 -43 128 -13q17 8 39.5 28.5t37.5 41.5q12 19 16 28l11 -59q-18 -35 -39 -56q-22 -26 -55.5 -41t-67.5 -8q-52 9 -94 67q-19 26 -33 58zM860 425q0 62 18 114t52 80q54 45 113 -6q17 -14 37 -50
l44 87l12 -76l-44 -85q-16 34 -45 56t-64 15q-27 -6 -49.5 -32.5t-32.5 -56.5q-19 -54 -19 -106q-1 -39 5 -63q-26 50 -26 104z" />
    <glyph glyph-name="four" unicode="4" horiz-adv-x="1199" 
d="M276 664q87 0 154 -49.5t93 -122.5l66 64l158 -152l437 446v-405l-267 -206l34 -36l-363 -353l-316 307q-106 1 -182 76q-75 73 -75 177q0 105 77 180q75 74 184 74zM117 257q65 -63 157 -63q34 0 65 9l220 -195l585 460l1 302l-578 -596l-90 146q20 45 20 90
q0 90 -65 152q-67 64 -158 64t-157 -64q-65 -63 -65 -152q0 -90 65 -153zM100 408q0 70 49.5 119.5t119.5 49.5t119.5 -49.5t49.5 -119.5t-49.5 -119.5t-119.5 -49.5t-119.5 49.5t-49.5 119.5z" />
    <glyph glyph-name="five" unicode="5" horiz-adv-x="729" 
d="M15 649h699l-66 -710l-284 -81l-284 81zM80 842h45v-44h40v44h44v-133h-44v44h-40v-44h-45v133zM169 238l1 2h300l-10 -113l-96 -27l-97 28l-6 68h-88l12 -136l179 -51l179 51l25 267h-319l-8 89h335l8 88h-439zM229 842h122v-45h-39v-88h-44v88h-39v45zM370 842h47
l27 -46l28 46h47v-133h-43v68l-32 -50v1l-30 47v-66h-44v133zM542 709v133h44v-88h62v-45h-106z" />
    <glyph glyph-name="six" unicode="6" horiz-adv-x="973" 
d="M23 58q38 136 92 238q114 216 313 352v14q-56 -24 -117.5 -64.5t-103.5 -81.5q-84 -80 -126 -138l-17 -22q-5 150 115 276q26 27 47 42l19 14q197 98 344 56q72 52 128 74q63 25 98 28l33 4q45 5 74.5 -15t33.5 -57q7 -66 -12 -128l-9 -24l-5 6q20 54 20 93q-1 60 -54 85
q-18 8 -36 10l-16 2q-34 0 -93 -18q-70 -23 -129 -66q65 -10 120.5 -40t88.5 -72q67 -83 85 -174q19 -93 17 -134l-1 -22h-557q-6 -82 44 -118q41 -29 77 -32h15q48 0 82 26t43 68h292q-31 -117 -115 -184q-77 -61 -157 -82q-85 -22 -116 -24h-19q-79 0 -107 6
q-58 -45 -127 -73q-63 -26 -103 -29l-36 -4q-43 0 -75.5 23t-43.5 57q-10 31 -13 68t7 60zM136 128q-56 -84 -42 -167q2 -14 12 -37q17 -13 44 -22q42 -11 67.5 -8.5t71.5 16.5q57 19 108 50q-84 21 -155.5 64.5t-105.5 103.5zM374 428h265q1 34 -11 61.5t-33 40.5
q-39 24 -71 26l-14 2q-48 0 -90 -28q-20 -13 -33.5 -41t-12.5 -61z" />
    <glyph glyph-name="seven" unicode="7" horiz-adv-x="830" 
d="M17 592q2 17 15 32l120 120q14 12 21 -4l97 -182q8 -17 -5 -31l-44 -44q-13 -13 -14 -31q0 -31 31 -77q34 -51 61 -80l31 -32q49 -49 108 -88q53 -34 80 -34q19 0 32 13l52 52q14 14 30 4l175 -103q16 -10 4 -22l-120 -120q-15 -13 -32 -15q-48 -7 -111 14
q-94 31 -211 123q-45 35 -72 60l-26 25q-34 34 -80.5 93t-74.5 104q-80 130 -67 223z" />
    <glyph glyph-name="eight" unicode="8" 
d="M15 350q0 144 70 256.5t179 176.5q115 67 251 67q144 0 256.5 -70t176.5 -179q67 -115 67 -251q0 -144 -70 -256.5t-179 -176.5q-115 -67 -251 -67q-144 0 -256.5 70t-176.5 179q-67 115 -67 251zM144 350q0 -40 12 -58t41 -23q40 -1 85 40q94 83 68 290q-2 16 -2 17
q-4 8 0 9.5t13 -1.5q95 -25 180 -99q72 -62 167 -193q41 -57 88 -77q56 -19 76 13q20 31 20 82q0 115 -61 208q-49 74 -130.5 121.5t-182.5 47.5q-68 0 -125 -22q-79 -28 -140 -89.5t-89 -141.5q-2 -15 -9 -28q-12 -51 -11 -96z" />
    <glyph glyph-name="nine" unicode="9" horiz-adv-x="1250" 
d="M131 -40q0 8 -4 32h-13q-8 0 -10.5 7t1 13.5t11.5 6.5h8l-6 54q-3 18 -25 195q-20 164 -34.5 250.5t-43.5 191.5q-1 5 1 8.5t7 6t10 3.5t12.5 2t11.5 2q13 3 28 6q0 10 1 49t1 49q1 12 13 12q14 0 14 -14q-2 -80 -2 -91q21 4 59.5 12.5t65.5 12.5q41 7 56 10
q402 69 794 72q14 0 12 -15q0 -6 -2 -33t-2 -33q14 -1 128 -11q5 0 9 -4.5t3 -9.5l-68 -412l-68 -413l76 -12q10 -2 11 -14.5t-11 -12.5h-3q-8 1 -39 6.5t-39 6.5q-4 -43 -19 -43h-4q-297 75 -600 117q-134 2 -149 2q-19 0 -165 -2v-1q1 -1 1 -2q1 -6 -4 -10.5t-11 -4.5
q-10 0 -12 11zM88 501q-3 71 -3 209q-13 -1 -40 -8q19 -72 43 -201zM1010 -43q1 12 28.5 394.5t33.5 471.5q-473 -5 -960 -107q-2 -52 0 -105q2 -271 32 -533q2 -16 9 -60q40 -2 195 -13.5t179 -12.5q346 -19 483 -35zM355 294q-66 0 -108.5 43.5t-42.5 110.5q0 74 51 126
q51 53 129 53q85 0 132 -59.5t47 -153.5q0 -133 -67 -212.5t-191 -88.5q-30 -2 -57 -2v75q16 -2 52 2q67 6 111 46t55 103h-2q-40 -43 -109 -43zM379 556q-37 0 -59 -29.5t-22 -72.5q0 -40 22.5 -66t59.5 -26q56 0 81 42q5 12 5 26q1 54 -20.5 90t-65.5 36h-1zM387 -23
l469 -50q142 -31 209 -48l3 18q-338 54 -681 80zM730 294q-66 0 -108.5 43.5t-42.5 110.5q0 72 52 126q51 53 129 53q84 0 131 -60t47 -153q0 -133 -67 -212.5t-191 -88.5q-30 -2 -57 -2v75q16 -2 52 2q67 6 111 46t55 103h-1q-40 -43 -110 -43zM754 556q-37 0 -59 -30
t-22 -72q0 -40 22.5 -66t59.5 -26q55 0 81 42q5 12 5 26q1 54 -20.5 90t-65.5 36h-1zM1030 -70q29 -5 43 -6q8 46 63 384l70 425q-80 7 -113 9l-58 -802q0 -5 -4 -9q-1 0 -1 -1z" />
    <glyph glyph-name="colon" unicode=":" horiz-adv-x="864" 
d="M15 -150l417 1000l417 -1000h-369v135l170 85l-13 55l-157 -79v67l98 52l-14 57l-84 -45v87h-92v-157l-86 59l-16 -64l102 -70v-182h-373z" />
    <glyph glyph-name="semicolon" unicode=";" horiz-adv-x="1152" 
d="M15 524q0 13 13 13h176v129q0 14 13 14h98v-514q0 -14 -12 -14h-288v372zM191 235q13 0 13 14v206h-67q-13 0 -13 -14v-206h67zM349 524q0 13 13 13h98v-371q0 -14 -12 -14h-99v372zM349 666q0 14 12 14h99v-69q0 -14 -12 -14h-99v69zM498 524q0 13 13 13h288v-504
q0 -13 -13 -13h-288l1 69q0 14 12 14h176v49h-189v372zM675 235q12 0 12 14v206h-67q-12 0 -12 -14v-206h67zM850 103h176v49h-189v372q0 13 13 13h287v-504q0 -13 -12 -13h-288v69q0 14 13 14zM946 235h67q13 0 13 14v206h-67q-13 0 -13 -14v-206z" />
    <glyph glyph-name="equal" unicode="=" 
d="M192 -31q-79 68 -128 165t-49 216q0 144 70 256.5t179 176.5q115 67 251 67q144 0 256.5 -70t176.5 -179q67 -115 67 -251q0 -207 -145 -352q-57 69 -141 112t-187 43q-113 0 -203.5 -51.5t-146.5 -132.5zM179 494q0 -17 12.5 -29.5t29.5 -12.5q7 0 9 1q143 58 298 58
t298 -58q1 0 4.5 -0.5t4.5 -0.5q17 0 29.5 13t12.5 29q0 25 -23 37q-159 63 -326 63q-171 0 -329 -64q-20 -14 -20 -36zM231 329q7 -13 23 -13q1 0 9 2q126 55 265 55q138 0 267 -56q6 -2 7 -2q16 0 23 13l5 17q0 14 -10 21q-139 62 -292 62q-152 0 -293 -62
q-10 -10 -10 -21zM304 185q108 51 224 51q112 0 219 -48q24 -14 35 12q9 25 -14 38q-108 53 -240 53q-130 0 -244 -55q-18 -10 -11 -35q10 -25 31 -16zM334 -116q80 104 208 104q113 0 193 -86q-103 -52 -220 -52q-95 0 -181 34z" />
    <glyph glyph-name="greater" unicode="&#x3e;" horiz-adv-x="1235" 
d="M1220 350q0 -49 -27.5 -87.5t-68.5 -58.5q0 -195 -260 -303q-46 -21 -68 -27t-79 -15q-59 -9 -93 -9q-118 0 -231 35q-3 3 -72 38q-97 52 -153 116q-57 65 -57 156h-5q-33 17 -59 50l-9 12q-15 27 -19 43.5t-4 52.5q0 63 49 106q50 44 113 44q61 0 105 -36h5
q133 82 335 82l5 4l70 267l242 -36q0 -1 2 -1q1 0 0 1q2 1 14 18l12 16q35 32 82 32q49 0 82.5 -32.5t33.5 -81.5t-34 -84t-82 -35q-55 0 -86 38t-31 97q-2 -1 -97.5 13t-109.5 17h-3l-16 -54l-23 -84q-19 -69 -25 -88v-3l5 -4q77 0 153 -22.5t128 -57.5q1 1 2 1t2 1l16 11
l16 12q3 2 13.5 8t18 7.5t19 3.5t25.5 2q68 0 116 -48.5t48 -116.5zM173 472q-48 0 -86 -41t-38 -90q0 -65 57 -112q5 59 48 116q46 60 101 101q-38 26 -82 26zM151 195q0 -107 111 -189q99 -73 207 -94q78 -14 146 -14q133 0 241 43t177 119h-3q28 35 43 68q13 29 13 73
q0 109 -96 187q-150 122 -373 122q-157 0 -301 -72q-71 -35 -118 -97.5t-47 -145.5zM337 268q0 37 22.5 59.5t59.5 22.5t62 -23t25 -59t-25.5 -60t-61.5 -24t-59 24t-23 60zM608 12q62 0 113 25.5t81 66.5h41q-25 -62 -93 -96q-67 -34 -142 -34q-74 0 -142 34q-69 34 -93 96
h44q25 -44 79 -68t112 -24zM709 268q0 38 23 60t61 22q34 0 58 -24t24 -58t-24 -59t-58 -25q-37 0 -60.5 23.5t-23.5 60.5zM964 736q0 -34 25 -59.5t60 -25.5q36 0 59 24.5t23 60.5q0 34 -24 58t-58 24q-33 0 -59 -24.5t-26 -57.5zM978 455q53 -35 94 -91t57 -121
q59 44 59 96q0 58 -36 100t-92 42q-44 0 -82 -26z" />
    <glyph glyph-name="question" unicode="?" horiz-adv-x="790" 
d="M15 108q0 22 12 64q23 87 87.5 158.5t146.5 102.5q-79 63 -79 161q0 87 62 146q63 60 149 60t149 -60q62 -59 62 -146q0 -97 -77 -160q101 -36 174.5 -124t73.5 -201q0 -93 -73 -106q-3 -10 -13 -26q-7 -18 -30.5 -31.5t-40.5 -17.5l-50 -12q-8 -2 -48.5 -8t-47.5 -6
q-1 0 -7 -1t-7 -1h-120q-53 0 -129 16q-79 17 -89 45q-18 18 -25 42q-25 5 -42 21q-38 15 -38 84z" />
    <glyph glyph-name="at" unicode="@" horiz-adv-x="794" 
d="M207 46q0 2 0.5 10.5t0.5 10.5q-133 69 -180 215q-13 40 -13 56v103q0 87 86 200q87 114 171 160q79 44 187 44q95 0 174 -41q40 -21 66 -57.5t26 -85.5q0 -50 -32 -91q-6 -7 -13 -17t-18 -21q-21 -21 -36 -34q-10 -9 -17 -16h168q2 -96 2 -108q0 -252 -42 -326
q-34 -59 -93.5 -107t-128.5 -71q-39 -15 -56 -15h-84q-2 0 -48 17q-120 52 -120 174zM161 468q0 -84 38 -160q18 -37 51.5 -61.5t77.5 -24.5q13 0 40 15t49 15q14 0 51 -10.5t37 -19.5q0 -21 -26 -21q-130 0 -130 -76q0 -57 41 -87t104 -30q51 0 95.5 18t69.5 48
q42 50 42 164q0 10 -1 55t-1 55q0 45 5 80h-193q-1 -5 -1 -23q0 -7 1 -35t1 -34q0 -34 -8 -56q-3 -1 -17 -1q-46 0 -78.5 31.5t-45.5 75.5q-12 42 -12 89q0 108 55 175q32 38 77 38q11 0 21 -3q-4 -20 -4 -34q0 -36 19 -58.5t53 -22.5t57 23t23 58q0 40 -30.5 69.5
t-70.5 40.5q-41 11 -79 11q-135 0 -223 -85t-88 -219z" />
    <glyph glyph-name="A" unicode="A" horiz-adv-x="890" 
d="M733 328q-2 -77 38 -132.5t104 -79.5q-69 -148 -150 -225q-41 -39 -91 -41q-31 0 -76 22q-46 20 -91 20h-4q-47 0 -95 -21t-78 -21q-84 2 -172 137q-58 89 -83 184q-20 78 -20 144q0 24 1 36q13 156 140 231q59 34 114 34q39 0 102 -22q60 -21 90 -21q29 0 86 21
q60 22 105 22q112 0 192 -102q-45 -25 -76.5 -67t-35.5 -95v-24zM431 609q-3 15 -3 30q0 64 53 129q25 31 67 54.5t85 27.5q2 -20 2 -30q0 -68 -50 -132q-26 -33 -66.5 -56.5t-83.5 -22.5h-4z" />
    <glyph glyph-name="B" unicode="B" horiz-adv-x="1026" 
d="M15 534q0 130 93 223t223 93h221q64 -8 138 -57q74 -50 105 -115q22 -45 29 -108q9 -69 26 -85q13 -13 71 -15t65 -7l14 -11l8 -17l3 -14l-2 -256q-1 -130 -93 -223q-91 -92 -222 -92h-363q-131 0 -223 92q-93 93 -93 223v369zM274 170q0 -25 18 -42.5t43 -17.5h356
q25 0 42.5 17.5t17.5 42.5t-17.5 42.5t-42.5 17.5h-356q-25 0 -43 -17.5t-18 -42.5zM274 532q0 -25 18 -43t43 -18h175q25 0 42.5 18t17.5 43t-17.5 42.5t-42.5 17.5h-175q-25 0 -43 -17.5t-18 -42.5z" />
    <glyph glyph-name="C" unicode="C" 
d="M15 350q0 206 148 354q144 146 351 146q208 0 357 -146q71 -71 107 -162q37 -87 37 -192q0 -210 -143 -351q-73 -71 -166 -111q-96 -38 -192 -38q-204 0 -352 148q-147 147 -147 352zM105 350q0 -169 123 -288q61 -61 133 -89q71 -31 155 -31q164 0 292 121
q117 114 117 287q0 86 -31 157q-30 77 -88 132q-120 121 -290 121q-171 0 -288 -120q-123 -123 -123 -290zM230 350q0 68 40.5 111.5t106.5 43.5q93 0 133 -72l-67 -35q-10 23 -27 31q-15 9 -29 9q-67 0 -67 -88q0 -38 17 -63t50 -25q44 0 62 42l62 -31q-46 -78 -132 -78
q-69 0 -109 42t-40 113zM519 350q0 68 40.5 111.5t106.5 43.5q93 0 132 -72l-66 -35q-19 40 -56 40q-67 0 -67 -88q0 -40 16.5 -64t50.5 -24q43 0 61 42l63 -31q-46 -78 -131 -78q-70 0 -110 42t-40 113z" />
    <glyph glyph-name="D" unicode="D" 
d="M15 350q0 144 70 256.5t179 176.5q115 67 251 67q144 0 256.5 -70t176.5 -179q67 -115 67 -251q0 -144 -70 -256.5t-179 -176.5q-115 -67 -251 -67q-144 0 -256.5 70t-176.5 179q-67 115 -67 251zM99 370q0 -2 -0.5 -10t-0.5 -10q0 -156 105 -275q47 92 152 179
q102 84 203 107q-9 22 -29 63q-171 -55 -372 -55q-45 0 -58 1zM176 451q167 0 317 45q-78 137 -167 225q-77 -39 -134 -109.5t-81 -158.5q30 -2 65 -2zM515 -67q75 0 147 28q-19 170 -78 331q-93 -20 -186 -101t-138 -170q112 -88 255 -88zM576 526q136 57 205 145
q-115 96 -266 96q-49 0 -102 -14q89 -92 163 -227zM646 374q69 7 161 7q61 0 123 -3q-7 135 -98 242q-64 -97 -220 -165q12 -25 34 -81zM671 304q51 -149 69 -304q75 49 126.5 128t62.5 176q-82 5 -133 5q-47 0 -125 -5z" />
    <glyph glyph-name="E" unicode="E" horiz-adv-x="867" 
d="M15 541q0 88 88 88h94q15 0 26 11t11 26q0 29 -1 44v59q0 57 62 75q11 6 53 6h19q65 -3 100.5 -18.5t42.5 -60.5q17 1 48 1q55 0 123.5 -9.5t94.5 -19.5q43 -14 53 -67q6 -35 14.5 -164.5t8.5 -192.5q0 -44 -3 -71q-17 -173 -43 -254q-24 -74 -56 -111q-23 -27 -78 -31
q-26 -2 -59 -2q-107 0 -145 26t-38 106q0 90 42 109q31 14 87 14h28q3 0 4.5 -1.5t1.5 -5t-1 -6.5t-2.5 -6.5t-1.5 -5.5q-2 -10 -2 -13q0 -2 2 -15t1 -16q-1 -2 -7 -2h-20q-20 0 -20 -2q0 -1 -4 -1.5t-8 -1.5t-4 -3t-6 -7t-4 -9q2 -6 -1 -11q0 -21 11 -37q6 -9 40 -9h33
q57 0 73 13t16 64q0 75 -18 102t-57 32q-85 9 -119 20q-53 20 -53 119q0 2 -3 2q-2 0 -2 -2q0 -67 -18 -120l-8 -24q-10 -24 -37 -26h-6q-22 0 -54 8q-131 17 -198 47q-23 10 -37 40q-19 39 -36 128q-19 98 -23 134q-4 29 -4 51zM89 676q-34 0 -68 -16v2l183 180q0 1 1 1
q-14 -28 -14 -54q0 -49 1 -103q0 -10 -10 -10h-93zM589 370q21 3 46 3q45 -1 81 -18q0 86 -61 87h-3q-54 0 -63 -72z" />
    <glyph glyph-name="F" unicode="F" horiz-adv-x="1082" 
d="M88 527q73 73 177 73t177 -73t73 -177t-73 -177t-177 -73t-177 73t-73 177t73 177zM567 350q0 104 73 177t177 73t177 -73t73 -177t-73 -177t-177 -73t-177 73t-73 177z" />
    <glyph glyph-name="G" unicode="G" horiz-adv-x="676" 
d="M332 -150q-76 0 -145.5 17.5t-120.5 60.5t-51 104q0 87 89 155t215 68h54q-42 41 -42 86q0 30 16 58q-7 -1 -29 -1q-103 0 -170 65q-66 65 -66 160q0 92 82 159q83 68 187 68h310l-69 -50h-98q45 -17 72.5 -66.5t27.5 -112.5q0 -93 -88 -162q-36 -28 -48 -46
q-11 -17 -11 -42q0 -19 27 -48q30 -32 54 -49q60 -42 84 -88q24 -45 24 -113q0 -91 -82 -157t-222 -66zM186 -52q60 -49 145 -49q118 0 173 44q53 43 53 117q0 47 -37 88q-4 4 -40 31q-35 25 -51 35q-39 12 -77 12h-4q-86 0 -153 -47q-68 -48 -68 -114q0 -69 59 -117z
M193 624q10 -72 57.5 -132.5t112.5 -61.5h4q52 0 84.5 45t32.5 106q0 100 -62 168q-50 56 -109 57h-4q-53 0 -85.5 -43.5t-32.5 -105.5q0 -11 2 -33z" />
    <glyph glyph-name="H" unicode="H" horiz-adv-x="909" 
d="M15 217q0 146 95 253q106 118 266 118q68 0 125 -21q-22 -46 -27 -86q-45 19 -98 19q-111 0 -191 -83q-80 -86 -80 -202q0 -80 37.5 -144t97.5 -99q62 -36 136 -36q78 0 139 38t95 99q36 66 36 142q0 64 -22 114q45 9 85 34q27 -67 27 -146q0 -148 -101 -257
q-101 -110 -259 -110q-159 0 -260 110t-101 257zM295 -36l16 7q35 18 95 80q62 64 108 207q35 110 35 269q-2 74 -5 112l5 13q5 14 6 35v7q0 31 -7 50t-25 42q-24 28 -63 48l11 -17q10 -15 31 -67q23 -55 44 -119l9 -25q19 -60 28 -167q2 -26 2 -40q0 -100 -37 -206
q-25 -69 -77.5 -129.5t-119.5 -103.5zM570 601q5 41 23 64l18 25q10 12 37.5 25.5t49.5 19.5l21 6q32 7 64 33t46 53l13 23q56 -78 52 -186q0 -34 -6 -59l-11 -45q-10 -27 -30.5 -56t-39.5 -41l-15 -11q-35 -20 -67 -20l-109 53q141 78 198 167q12 20 14 31l2 10
q-36 -81 -110 -125q-59 -37 -108 -51l-18 -5q-25 43 -25 79q0 7 1 10z" />
    <glyph glyph-name="I" unicode="I" horiz-adv-x="519" 
d="M15 -117q101 6 130 27q30 21 30 107v666q0 82 -30 106t-130 28v28h489v-28q-103 -5 -131 -28q-30 -24 -30 -106v-666q0 -86 30 -107t131 -27v-28h-489v28z" />
    <glyph glyph-name="J" unicode="J" horiz-adv-x="1265" 
d="M817 565q55 0 88 -23t33 -71q0 -32 -16 -71q-16 -22 20 -31q63 -20 106.5 -62.5t43.5 -106.5q0 -58 -41 -120q-92 -137 -289 -197q-108 -33 -229 -33q-137 0 -252.5 41t-188.5 113q-77 77 -77 174q0 162 184 347q117 115 236 162q57 23 97 23q45 0 71.5 -26.5t26.5 -72.5
q0 -31 -12 -72q-4 -12 2 -17t17 -1l10 4q95 40 170 40zM139 148q0 -70 51 -123.5t126 -79t158 -25.5q190 0 315 100q92 75 92 165q0 70 -51.5 123t-126.5 78.5t-158 25.5q-119 0 -217.5 -42t-150.5 -113q-38 -53 -38 -109zM287 127q0 35 18 70q24 49 77 82.5t118 33.5
q115 0 163 -89q17 -32 17 -66q0 -32 -15 -65q-32 -71 -109 -104q-42 -19 -88 -19q-60 0 -104.5 27t-63.5 71q-13 27 -13 59zM354 100q0 -24 17 -39t42 -15q43 0 67 37q10 16 10 32q0 24 -16.5 39t-42.5 15q-44 0 -66 -36q-11 -17 -11 -33zM497 166q6 -15 23 -15q13 0 22 10
t5 23q-5 14 -22 13.5t-25 -13.5q-3 -6 -3 -12v-6zM864 749q-20 0 -33.5 14t-13.5 34q0 17 11 29.5t26 16.5q32 7 68 7q50 0 100 -15q82 -27 142.5 -93t78.5 -153q7 -32 7 -68q0 -53 -16 -98v-1q-11 -32 -45 -32q-21 0 -34 13t-13 33q0 5 2 15v1q11 36 11 70q0 92 -60 157
q-69 76 -172 76q-21 0 -49 -5q-3 -1 -10 -1zM858 630q-1 3 -1 10q0 43 69 43q55 0 98.5 -37.5t54.5 -90.5q3 -17 3 -33q0 -31 -10.5 -53.5t-35.5 -22.5q-18 0 -29.5 11t-11.5 29q0 7 3 20t3 19q0 27 -21 50q-23 26 -54 26q-4 0 -14 -1.5t-15 -1.5q-14 0 -25 9.5t-14 22.5z
" />
    <glyph glyph-name="K" unicode="K" horiz-adv-x="1116" 
d="M15 -150v1000h257v-371h229l103 149l154 222h286l-328 -477q0 -13 96 -143l193 -256l96 -124h-343l-286 400h-200v-400h-257z" />
    <glyph glyph-name="L" unicode="L" horiz-adv-x="1066" 
d="M15 730q0 51 36 83t90 32t89 -32.5t35 -85.5q0 -50 -36 -81.5t-90 -31.5h-1q-53 0 -88 32.5t-35 83.5zM28 523h222v-668h-222v668zM373 -145h222v373q0 33 8 54q34 81 114 81q112 0 112 -151v-357h222v383q0 138 -65.5 219.5t-189.5 81.5q-129 0 -201 -111v-2h-1l1 2v95
h-222q2 -42 2 -199q0 -67 -2 -469z" />
    <glyph glyph-name="M" unicode="M" horiz-adv-x="1371" 
d="M90 325q0 -5 2.5 -26t2.5 -25l-1 -12q-30 -15 -52 -15q-8 0 -10 1q-17 57 -17 142q0 11 2 105q26 8 48 8h18q18 -25 40 -70q19 -40 31 -61q2 5 9 39.5t9 39.5q19 63 26 77q10 18 20 31q32 -5 46 -5q8 0 11 1q24 -54 45 -163q19 -98 39 -155q-3 0 -7 2q-5 0 -26 -6t-22 -6
q-38 94 -62 203q-15 -26 -15 -89q0 -61 -11 -88l-5 2q-5 0 -22 -2t-21 -2h-18q-28 50 -57 89q-3 -6 -3 -15zM460 206q-45 0 -67.5 29.5t-22.5 78.5q0 67 36 114q20 27 47 27q5 0 27 -5.5t24 -5.5q9 -40 9 -81q0 -28 -6 -55q-6 2 -37.5 4t-37.5 4q-5 -22 -5 -37
q0 -22 10.5 -37.5t29.5 -15.5q5 0 26 5t26 5q17 0 23 -14q-41 -16 -82 -16zM436 343q2 0 8 -2t7 -2l7 3q2 18 2 22q0 15 -5 40q-23 -26 -27 -62zM586 281q0 -21 17 -37t39 -16q26 0 41 23q18 -6 21 -17q-22 -21 -63 -21q-36 0 -70 20q-33 19 -33 55q0 124 78 182
q31 -3 60 -23q0 -5 -6.5 -60.5t-6.5 -71.5v-14q-26 -2 -29 -2q-5 0 -43 5q-5 -13 -5 -23zM620 413l-10 -23q-7 -18 -11.5 -32t-4.5 -27q4 -6 14 -6h9q9 19 9 49q0 14 -6 39zM770 219q0 12 -3.5 61t-3.5 57q-6 1 -32 3q-24 1 -38 10q-2 26 23 26q3 0 17.5 -1t17.5 -1
q3 15 3 31q0 17 -7.5 87t-7.5 86q0 45 10 72q4 -3 27 -6q22 -3 40 -24q-6 -26 -6 -67q0 -8 3 -66t3 -76q0 -25 -1 -34h6q11 0 11 19q0 6 4 6q9 0 18 -8l38 -38q-9 -8 -40 -9q-25 -1 -39 -4q-1 -8 -1 -36q0 -16 1.5 -52t1.5 -52q-4 0 -22.5 -1.5t-22.5 -2.5v20zM1090 384
q0 -2 0.5 -10t0.5 -9q0 -13 -2 -24t-7.5 -23t-8.5 -18t-11 -19l-11 -16q-14 -11 -34 -42q-20 -7 -38 -7q-71 0 -71 142q0 8 2 58q10 -1 20 -5t22.5 -11t16.5 -9l-1 -27q0 -59 9 -116q18 7 29.5 21t16.5 38t6.5 41.5t2.5 50.5v11q2 -1 9 -1q19 -1 49 -25zM1132 260q0 5 1 9
q14 128 41 175q13 23 36.5 40t52.5 17q34 0 76 -24q17 -39 17 -75q0 -68 -48 -120.5t-111 -66.5q-2 -42 -2 -48q0 -73 18 -117q-10 2 -37 2q-12 0 -22 2q-8 19 -16 96q-7 74 -30 100q7 5 24 10zM1198 275q37 9 64.5 46.5t27.5 80.5q0 30 -15 56q-19 -17 -37 -51.5t-26 -64.5
q-8 -36 -14 -67z" />
    <glyph glyph-name="N" unicode="N" horiz-adv-x="1250" 
d="M15 654q20 16 50 16h9q7 0 29 -1t27 -1h16l30 2h21h23q32 -3 45 -21q10 -14 23 -45q38 -88 104 -184q26 -39 35 -46q1 -1 5.5 -4.5t5.5 -4.5t6 -3.5t7.5 -2t9.5 0.5q28 4 31 117q1 13 1 35q0 74 -15 102q-11 19 -40 30q-19 8 -23 10q14 29 48.5 37.5t97.5 8.5h53
q51 0 53 -4l22 -5l19 -9q21 -9 13 -14q10 -19 11 -42q0 -9 1 -14q0 -10 -3.5 -54.5t-3.5 -49.5q-3 -22 -3 -46q0 -77 32 -99q7 1 13.5 3.5t10 4t9.5 8t7.5 8t7.5 10t7 9.5q59 79 105 177l9 23q1 3 4 8l7 18q5 11 9 17t4 3q0 -8 15 13q15 7 38 7h9q12 0 48 -2t45 -2
q8 0 28.5 1.5t36 2t32.5 -1.5t26 -10t9 -22q0 -28 -35 -87q-29 -48 -80 -111q-49 -60 -68 -88q-18 -28 -17 -49q0 -16 23 -42l6 -7l12 -10l7 -7q74 -68 112 -117q40 -52 40 -75q0 -33 -51 -41q-23 -4 -53 -4q-13 0 -40 2.5t-40 2.5q-23 0 -45 -5h-6q-64 10 -139 94
q-3 4 -19 23t-20 23q-27 27 -50 23q-36 -7 -40 -89q-2 -34 -9 -48q-13 -24 -79 -24q-122 0 -208 44q-61 30 -100 68q-40 39 -81 92q-108 137 -208 344l-6 12q-5 11 -7 14.5t-6 13t-5.5 15t-3.5 14.5t-3 17.5t-1 17.5z" />
    <glyph glyph-name="O" unicode="O" 
d="M515 850q80 0 145 -35t105 -92q18 2 31 2q91 0 155 -64t64 -155q0 -90 -64 -154t-155 -64q-43 0 -78 13q-74 -65 -182 -74l-21 -65l63 -62l-188 -188l62 188l-62 62l68 69q-81 15 -146 70q-35 -13 -78 -13q-91 0 -155 64t-64 154q0 91 64 155t155 64q13 0 31 -2
q40 57 105 92t145 35zM78 506q0 -64 46 -110t110 -46q51 0 90 29q76 -91 191 -91l43 5q89 15 148 86q39 -29 90 -29q64 0 110 46t46 110t-46 110t-110 46q-33 0 -58 -11q-32 60 -89.5 98.5t-133.5 38.5t-133.5 -38.5t-89.5 -98.5q-25 11 -58 11q-64 0 -110 -46t-46 -110z
" />
    <glyph glyph-name="P" unicode="P" horiz-adv-x="1080" 
d="M980 439q0 6 -6 33.5t-5 35.5v4h1q26 0 61 -51q34 -52 34 -81q0 -33 -29 -60q-6 -6 -29.5 -15.5t-35.5 -12.5l-36 -8q-1 0 -4 -0.5t-4 -1.5v-26q0 -173 -77 -253l25 -25q2 -1 19 -8.5t26 -12t20 -12.5t14 -15q-64 -51 -132 -51q-33 0 -75 17q-87 -37 -180 -37
q-119 0 -234 61q-31 -7 -44 -13t-37 -24q-19 -13 -37 -23t-28 -10q-3 18 -3 37q0 79 53 126q-61 100 -62 257l-7 1h-3q-28 1 -76 -17q-46 -17 -64 -19q-2 0 -10 2q10 138 168 173q11 82 43 192q29 101 71 146q44 45 115.5 73.5t150.5 28.5q86 0 164 -39t117 -110
q19 -36 42 -131t30 -154q15 -6 34 -6q30 0 30 29zM254 117q23 -80 68 -121.5t127 -63.5q59 -17 117 -17q68 0 146 28t119 72q68 74 68 257q0 225 -92 379q-2 4 -5.5 9.5t-4.5 8t-3.5 6t-4.5 5t-4.5 4.5t-6.5 5l-8 5q-14 8 -32 8q-50 0 -107 -61q-77 47 -140 47
q-61 0 -105.5 -43.5t-69.5 -104.5q-69 -166 -69 -396q0 -14 7 -27zM428 551q0 22 15.5 37.5t36.5 15.5q22 0 37.5 -15.5t15.5 -37.5t-15.5 -37t-37.5 -15q-21 0 -36.5 15t-15.5 37zM508 569q0 13 -12 13t-12 -13q0 -12 12 -12t12 12zM578 509l2 2l-1 -3zM635 566l51 -52
q-21 -7 -50 -7q-31 0 -53 7zM585 492q30 -5 50 -5q19 0 49 5l-49 -49zM690 508v3l1 -2zM717 551q0 22 15.5 37.5t37.5 15.5t37.5 -15.5t15.5 -37.5t-15.5 -37t-37.5 -15t-37.5 15t-15.5 37zM773 569q0 -5 3.5 -8.5t8.5 -3.5q13 0 13 12q0 13 -13 13q-12 0 -12 -13z" />
    <glyph glyph-name="Q" unicode="Q" horiz-adv-x="893" 
d="M15 825q121 21 297 21q138 0 233.5 -23t167.5 -78q165 -125 165 -370q0 -260 -161 -395q-149 -126 -451 -126q-139 0 -251 14v957zM235 30q17 -4 77 -4h4q159 0 244 89t85 252q0 151 -80 230.5t-230 79.5q-65 0 -100 -9v-638z" />
    <glyph glyph-name="R" unicode="R" 
d="M15 -16q0 55 39 94t94 39t94 -39t39 -94t-39 -94t-94 -39t-94 39t-39 94zM15 510q189 0 338 -92.5t233 -236.5q89 -152 89 -331h-192q0 194 -137 331q-138 138 -331 138v191zM15 658v192q211 0 394.5 -82t312.5 -211t211 -312.5t82 -394.5h-192q0 171 -66.5 320
t-170.5 252q-104 104 -252 170t-319 66z" />
    <glyph glyph-name="S" unicode="S" horiz-adv-x="1016" 
d="M95 770q80 80 193 80q78 0 145 -42q34 7 80 7q195 0 333 -138t138 -332q0 -46 -11 -101q28 -57 28 -121q0 -113 -80 -193t-193 -80q-67 0 -129 32q-48 -8 -86 -8q-194 0 -332 138t-138 333q0 47 9 94q-37 64 -37 138q0 113 80 193zM236 211q0 -41 30 -85
q71 -104 246 -104q104 0 184 45q41 22 66 63t25 95q0 57 -29 97.5t-74 58.5q-83 34 -191 55q-103 19 -103 71q0 33 36 49q35 16 75 16q76 0 104 -42q5 -7 15 -24.5t16.5 -27t21 -18t32.5 -8.5q27 0 47.5 19t20.5 46t-15 54q-29 54 -95 80q-63 25 -138 25q-96 0 -172 -38
q-89 -45 -89 -143q0 -64 38.5 -105t98.5 -58q63 -18 114 -29q58 -12 98 -33t40 -59q0 -28 -23 -48.5t-51 -27.5q-25 -7 -56 -7q-76 0 -103 38q-21 28 -41 70q-18 37 -59 37q-28 0 -48.5 -17.5t-20.5 -44.5z" />
    <glyph glyph-name="T" unicode="T" horiz-adv-x="1260" 
d="M15 -37q30 -3 60 -3q176 0 314 108q-84 1 -148.5 51.5t-87.5 123.5q17 -4 47 -4q36 0 67 9q-85 16 -144 85t-59 162v3q52 -29 115 -31q-49 32 -81 87t-32 123t35 127q89 -112 223 -183.5t297 -80.5q-7 31 -7 58q0 104 74 178t179 74q109 0 184 -80q85 18 160 62
q-28 -91 -110 -140q75 9 144 40q-48 -75 -125 -131v-33q0 -212 -120 -396q-131 -202 -346 -280q-117 -42 -252 -42q-208 0 -387 113z" />
    <glyph glyph-name="U" unicode="U" horiz-adv-x="893" 
d="M21 285q4 53 38 86.5t87 36.5q112 5 301 5t301 -5q53 -3 87 -36.5t38 -86.5q5 -100 5 -162t-5 -162q-4 -53 -38 -86.5t-87 -36.5q-112 -5 -301 -5t-301 5q-53 3 -87 36.5t-38 86.5q-6 108 -6 162t6 162zM143 264v-326h59v326h61v55h-181v-55h61zM147 867h60l38 -152h4
l36 152h60l-46 -148l-13 -39l-8 -28l-2 -8v-158h-59v151q-2 12 -6 25.5t-9.5 28.5t-7.5 23zM299 -66q32 0 61 35v-31h52v281h-52v-214q-21 -21 -31 -21q-14 0 -14 19v216h-52v-237q0 -48 36 -48zM418 479q-35 0 -55.5 21.5t-20.5 56.5v146q0 33 21.5 52t56.5 19
q33 0 53.5 -20t20.5 -53v-145q0 -36 -20 -56.5t-56 -20.5zM418 726q-9 0 -15.5 -5.5t-6.5 -14.5v-156q0 -23 22 -23q23 0 23 25v153q0 9 -7 15t-16 6zM516 -62v21q19 -25 50 -25q47 0 47 62v156q0 71 -51 71q-25 0 -46 -27v123h-53v-381h53zM516 167q11 11 22 11
q22 0 22 -28v-148q0 -24 -19 -24q-15 0 -25 13v176zM539 767h52v-215q0 -19 14 -19q13 0 31 21v213h52v-281h-52v31q-29 -35 -61 -35q-36 0 -36 48v237zM653 17q0 -39 19.5 -63t56.5 -24q78 0 78 87v21h-54v-11v-12q0 -4 -0.5 -11t-2 -10.5t-4 -7.5t-6.5 -5.5t-10 -1.5
q-23 0 -23 40v53h100v72q0 82 -75 82q-36 0 -57.5 -23t-21.5 -59v-127zM707 116v30q0 31 23 31t23 -31v-30h-46z" />
    <glyph glyph-name="V" unicode="V" horiz-adv-x="1176" 
d="M15 578q140 166 278 236q35 19 48 22l17 4q16 2 24 2q23 0 40.5 -8t30 -24t19.5 -29t16 -35q20 -49 39 -159.5t26 -139.5q31 -125 51 -177q20 -53 42 -53q24 0 66 55q44 59 94 152q26 49 26 91t-20 67t-57 25q-34 0 -83 -26q22 130 134 209q86 60 174 60q123 0 163 -91
q18 -37 18 -88q0 -29 -6 -61q-18 -100 -69.5 -207t-113.5 -189q-52 -69 -123.5 -145t-132.5 -127q-46 -38 -90 -68q-42 -24 -78 -24q-68 0 -126 69q-24 29 -38 57q-20 41 -98 298q-80 262 -96 281q-3 6 -16 8.5t-26 0.5q-34 -7 -86 -47z" />
    <glyph glyph-name="W" unicode="W" horiz-adv-x="1263" 
d="M120 328q28 16 78 29t91 15l34 1q53 0 104 -10q99 -19 144 -61l-104 -370q-28 22 -70.5 42t-77.5 24l-26 4q-35 3 -65 3q-54 0 -118.5 -13.5t-94.5 -34.5zM246 805q28 16 79 29.5t91 14.5l33 1q54 0 104 -10q99 -19 144 -61l-104 -371q-28 22 -70.5 42t-77.5 24l-26 4
q-35 3 -64 3q-55 0 -119.5 -13t-94.5 -34zM676 292q30 -22 72.5 -42t76.5 -24l25 -4q34 -3 65 -3q54 0 119 13t94 34l-104 -371q-28 -16 -79 -28.5t-91 -14.5l-33 -2q-54 0 -104 10q-100 19 -145 61zM692 396l104 370q30 -22 72.5 -42t76.5 -24l25 -4q34 -3 65 -3
q54 0 118.5 13t94.5 34l-104 -370q-29 -16 -80 -29.5t-91 -14.5l-33 -2q-72 0 -144 20.5t-104 51.5z" />
    <glyph glyph-name="X" unicode="X" horiz-adv-x="970" 
d="M15 152l173 286l-130 229h219l130 -229l-173 -286h-219zM377 242l346 608h232l-345 -608l222 -392h-232z" />
    <glyph glyph-name="Y" unicode="Y" horiz-adv-x="1405" 
d="M456 17q8 3 8 17v192q0 12 -11 25l-287 344h-111l-19 10l-2 2q-1 1 -13 15l-6 19v8q1 5 10 7h492q6 0 6 -7v-14q0 -15 -10 -15l-68 -21q-11 -5 -22 -4h-41l228 -291l207 195h-115l-18 7l-23 23l-2 4q-9 9 -7 22l7 6h438q4 0 6 -6v-14q0 -11 -6 -18l-17 -19q-8 -7 -18 -7
h-133q-236 -221 -267 -252q-9 -9 -7 -14v-202q0 -15 9 -15h146q7 0 7 -7v-57h-516v55q0 9 10 9q30 3 142 3h3zM1205 750l185 -7l-83 -567l-61 3zM1218 -13l4 110l110 -4l-4 -110z" />
    <glyph glyph-name="Z" unicode="Z" 
d="M841 760q72 0 123 -51t51 -123q0 -65 -47 -117q47 -59 47 -133q0 -90 -64 -154t-155 -64q-43 0 -78 13q-80 -71 -193 -74l-10 -19l63 -63l-188 -125l62 125l-62 63l45 29q-73 20 -123 64q-35 -13 -78 -13q-91 0 -155 64t-64 154q0 91 64 155t155 64q13 0 31 -2q1 4 4 4
q-4 16 -4 29q0 72 51 123t123 51h13q72 90 188 90t188 -90h13zM78 336q0 -64 46 -110t110 -46q51 0 90 29q72 -88 187 -91l47 5q89 15 148 86q39 -29 90 -29q64 0 110 46t46 110t-45.5 110.5t-110.5 46.5l-25 -2q-14 -2 -33 -10q-32 60 -89.5 98.5t-133.5 38.5
q-104 0 -178 -77q-27 -27 -41 -54q-2 -4 -4 -6q-27 12 -58 12q-64 0 -110 -46.5t-46 -110.5zM333 621q83 59 182 59q80 0 145 -35t105 -92q18 2 31 2q70 0 129 -41q27 32 27 72q0 47 -32.5 79.5t-78.5 32.5q-21 0 -43 -8q-20 42 -62 70t-96 28t-96 -28t-62 -70q-22 8 -43 8
q-38 0 -66 -22t-40 -55z" />
    <glyph glyph-name="bracketleft" unicode="[" horiz-adv-x="1028" 
d="M15 327q0 79 24 159.5t61 140.5q61 102 182 163q120 60 249 60q137 0 255 -85t177 -198q50 -86 50 -214q0 -154 -73 -268.5t-190 -174.5q-122 -62 -270 -60q157 282 199 348q5 11 17.5 29t21 35t11.5 35q6 24 6 48q0 81 -48 142l275 81q-333 0 -428 -1q-5 1 -22 1
q-100 0 -166 -74q-25 -28 -42 -68l-204 201l198 -341q18 -68 77.5 -115.5t136.5 -47.5q16 0 33 3l-66 -276q-122 0 -228 73.5t-170 173.5q-66 102 -66 230zM327 346q0 -76 54.5 -131t130.5 -55t130.5 55t54.5 131t-54.5 130.5t-130.5 54.5t-130.5 -54.5t-54.5 -130.5z" />
    <glyph glyph-name="bracketright" unicode="]" horiz-adv-x="1067" 
d="M15 638q0 1 3 19l339 -290l-338 -325q-4 12 -4 20v576zM60 697q8 3 17 3h913q9 0 18 -3l-340 -291l-67 -54l-67 -55l-67 55l-67 54zM402 330l132 -107l132 107l341 -327q-7 -3 -17 -3h-913q-9 0 -16 3zM711 367l338 290q3 -9 3 -19v-576q0 -10 -3 -20z" />
    <glyph glyph-name="asciicircum" unicode="^" horiz-adv-x="1136" 
d="M40 212q-25 0 -25 25v151q0 10 7.5 17.5t17.5 7.5h265l-115 -201h-150zM137 -7l66 -38zM149 56l304 528q13 21 34 9l65 -37q9 -5 12 -14.5t-2 -20.5l-303 -528q-5 -8 -14.5 -11t-20.5 2l-65 38q-9 4 -12 15q-3 10 2 19zM570 413h67l94 -201h-276zM533 837q4 35 41 -19
q24 -34 72 -116l66 -112q36 -58 72 -123l90 -169q44 -83 44 -84q11 -19 -2 -36t-31 -24q-21 -9 -25 -9.5t-29 7.5q-29 15 -190 393q-51 111 -85 197q-14 34 -21 71q-3 16 -2 24zM1121 237q0 -10 -7.5 -17.5t-17.5 -7.5h-133q-5 18 -8 23l-24 46l-35 67l-26 48q-7 14 -9 17
h235q10 0 17.5 -7.5t7.5 -17.5v-151zM887 112l37 19q12 5 22.5 1t14.5 -13l31 -60q12 -24 -10 -39l-27 -16q-12 -5 -22 -2t-16 12l-40 62q-6 10 -3 21t13 15zM950 -48q0 6 1 10t1.5 6.5t2 5.5t2.5 4t4.5 4t5.5 5l24 9q62 12 72 -70q3 -35 -1 -76q-5 13 -44 30q-41 18 -55 38
q-13 17 -13 34z" />
    <glyph glyph-name="underscore" unicode="_" horiz-adv-x="1116" 
d="M15 175v350h140v-207h805v207h141v-350h-1086z" />
    <glyph glyph-name="grave" unicode="`" 
d="M16 311q0 3 -0.5 10t-0.5 10q0 148 70 265.5t179 183.5q117 70 251 70q144 0 257 -73t176 -185q67 -119 67 -261q0 -3 -0.5 -10t-0.5 -10q-7 207 -152 353q-144 145 -347 145t-347 -145q-145 -146 -152 -353zM199 312q0 2 -0.5 10t-0.5 10q0 136 93 232q94 97 224 97
t224 -97q93 -96 93 -232q0 -2 -0.5 -10t-0.5 -10q-7 129 -99 219t-217 90t-217 -90t-99 -219zM364 137q0 98 34 131q23 23 51 28q21 4 66 4q71 0 95 -14q31 -17 41 -47q15 -45 15 -102q0 -121 -44 -203q-45 -84 -107 -84t-107 84q-44 82 -44 203zM411 417q0 44 30.5 76
t73.5 32t73.5 -32t30.5 -76t-30.5 -76t-73.5 -32t-73.5 32t-30.5 76z" />
    <glyph glyph-name="a" unicode="a" horiz-adv-x="1130" 
d="M33 75q250 -145 544 -145q213 0 401 79q29 13 38 0q8 -11 -6 -22q-85 -61 -202 -99t-243 -38q-313 0 -544 208q-6 4 -6 10q0 2 2 6q5 9 16 1zM494 177q-80 0 -128 49.5t-48 132.5q0 137 127 192q64 28 221 41v17q0 63 -14 86q-21 30 -66 30h-8q-34 -3 -57.5 -22
t-30.5 -49q-5 -20 -20 -23l-115 14q-17 5 -17 18q0 4 1 7q16 88 83 132q66 43 156 48h25q154 0 210 -101q1 -1 15 -49q4 -16 4 -54v-242q0 -10 1 -19.5t2 -16t5 -15t5.5 -12.5t7 -12.5t7.5 -10.5l8 -12q8 -9 9 -11q6 -9 6 -16q0 -8 -8 -14l-90 -78q-13 -9 -29 -2
q-34 30 -54 59q-12 17 -14 19q-55 -61 -110 -76q-33 -10 -84 -10zM490 379q0 -38 19 -62t53 -24q2 0 8 1t8 1q37 10 61.5 47.5t26.5 84.5v46v25q-56 0 -88 -8q-88 -25 -88 -111zM910 57q1 3 6 8q49 32 122 34q19 2 44 -4.5t29 -11.5t4 -18v-7q0 -35 -19 -82q-20 -50 -53 -77
q-4 -4 -9 -4q-10 0 -7 12q37 86 37 121q0 12 -4 16q-10 12 -56 12q-25 0 -86 -8q-4 0 -7 1.5t-2 4.5q0 2 1 3z" />
    <glyph glyph-name="b" unicode="b" horiz-adv-x="1342" 
d="M15 470q0 55 38.5 94t93.5 39q48 0 84.5 -30.5t45.5 -73.5l502 -202q31 19 68 19q1 0 7 -0.5t7 -0.5l110 159q1 72 53 124t125 52t125.5 -52t52.5 -126t-52.5 -126t-125.5 -52l-170 -124q-5 -50 -42.5 -85t-89.5 -35q-49 0 -85 30.5t-45 74.5l-502 201q-31 -19 -68 -19
q-55 0 -93.5 39t-38.5 94zM50 470q0 -40 28.5 -68.5t68.5 -28.5q5 0 21 2l-41 16v1q-46 21 -46 70q0 25 13 44t33 28q15 7 31 6q12 0 27 -5v1l49 -20q-28 52 -87 52q-40 0 -68.5 -29t-28.5 -69zM916 190q0 -34 -22 -56t-56 -22q-12 0 -25 4t-31.5 12t-21.5 9q28 -52 87 -52
q40 0 69 29t29 69t-29 68.5t-69 28.5q-11 0 -21 -2l40 -16q21 -8 35.5 -27t14.5 -45zM1030 472q0 -49 35 -84t84 -35t84.5 35t35.5 84t-35.5 84t-84.5 35t-84 -35t-35 -84zM1055 473q0 -40 27.5 -68t67.5 -28q39 0 67 28.5t28 67.5t-28 67t-67 28t-67 -28t-28 -67z" />
    <glyph glyph-name="c" unicode="c" horiz-adv-x="1138" 
d="M15 202q0 105 73 178q74 74 177 74l1 -1q0 1 -0.5 6t-0.5 7q0 118 83 201t199 83q103 0 181 -66t96 -166h17q116 0 199 -83t83 -201t-83 -201t-199 -83q-9 0 -12 1v-1h-578v1q-98 4 -167 78q-69 73 -69 173z" />
    <glyph glyph-name="d" unicode="d" horiz-adv-x="1054" 
d="M15 311l214 163l-214 162l311 203l203 -174l208 174l302 -193l-198 -165l198 -170l-307 -185l-203 156l-203 -156zM228 60v57l94 -55l203 155l1 -1v-355zM233 476l294 -185l296 196l-294 169zM526 -139l1 355l2 1l202 -155l100 60v-63z" />
    <glyph glyph-name="e" unicode="e" horiz-adv-x="1425" 
d="M506 137q-71 -34 -206 -34q-184 0 -238 51q-27 25 -37 53.5t-10 77.5q0 78 38 113t119 50q54 9 128 9q90 0 148 -13q38 -7 58 -18v-161h-293q0 -74 37 -91q20 -9 50 -9q85 0 85 61h121v-89zM391 319q0 60 -37 72q-20 7 -54 7q-63 0 -77 -30q-10 -22 -10 -49h178zM506 226
h78q-2 -51 -74 -87q-2 -2 -4 -2v89zM808 200q-3 -70 -26 -110t-81 -40q-64 0 -91 50h-1v-42h-103v79q2 0 4 2q72 36 74 87h-78v39h81q1 8 1 23q0 57 -18.5 87.5t-63.5 50.5v183h107v-203h2q32 44 88 44q43 0 69 -26q-40 -28 -40 -102q0 -104 76 -122zM506 426
q45 -20 63.5 -50.5t18.5 -87.5q0 -15 -1 -23h-81v161zM622 146q9 -30 35 -30q28 0 37 30t9 108v5q0 60 -6 89q-7 36 -40 36t-39 -38q-5 -29 -5 -92q0 -78 9 -108zM772 424q17 -19 26 -53t10.5 -55t-0.5 -64v-52q-76 18 -76 122q0 74 40 102zM1041 205q0 6 -2 36t-2 37v102
l-107 218q-45 3 -49 3q-66 0 -101 -26q-40 -25 -40 -94h107q0 32 7.5 46t32.5 14q26 0 35 -13t9 -44v-31h-24q-97 0 -135 -29q17 -19 26 -53q4 -15 6 -25t3 -22t1 -17v-25v-30v-52q5 -1 26 -1q67 0 100 58h2l5 -52h100zM837 327q-11 9 1 20q12 10 5 15q-5 3 0.5 7.5
t11.5 7.5t4 5q-5 2 18 7l7 1l14 2q2 0 17 0.5t16 0.5q0 -6 0.5 -22.5t0.5 -26.5t-1.5 -22.5t-4.5 -19.5q-15 -37 -48 -37q-41 0 -41 62zM904 650h154l100 -232l109 232h143l-189 -359v-190h-141v190l-43 89v91q0 61 -24 90t-83 37zM930 598q59 -8 83 -37t24 -90v-91z" />
    <glyph glyph-name="f" unicode="f" horiz-adv-x="568" 
d="M15 313v191h154v96q0 104 67 177t164 73h153v-191h-153q-17 0 -28 -18t-11 -39v-98h192v-191h-192v-463h-192v463h-154z" />
    <glyph glyph-name="g" unicode="g" horiz-adv-x="969" 
d="M227 157q82 0 147.5 -43t65.5 -111q0 -64 -62 -108q-63 -45 -151 -45q-89 0 -150 45q-62 45 -62 108q0 84 100 130q-26 40 -26 75q0 39 28 74q-38 23 -63 62t-25 89q0 73 53.5 125.5t127.5 52.5q55 0 101 -31h7q60 0 109 32v-115q-18 -10 -44 -14q7 -21 7 -50
q0 -70 -50 -121t-119 -55q-24 -29 -24 -53q0 -26 24 -48q1 0 3 0.5t3 0.5zM208 515q-29 0 -50.5 -24.5t-21.5 -55.5t21.5 -55.5t50.5 -24.5q30 0 51 24t21 56t-21 56t-51 24zM227 67q-34 0 -61 -17.5t-27 -46.5q0 -28 27 -46t61 -18t61.5 18t27.5 46q0 29 -27 46.5t-62 17.5
zM470 769q0 34 23.5 57.5t57.5 23.5t58 -23.5t24 -57.5t-24 -58t-58 -24t-57.5 24t-23.5 58zM489 601h134v-479h-134v479zM670 499h55v-285q9 -73 91 -99q15 -5 31 -7h20q22 0 45.5 7t32.5 17l7 9l2 99q-40 -13 -65 -13q-31 0 -36 17l-4 13q0 3 -1 4v238h91v102h-91v93h-123
v-93h-55v-102z" />
    <glyph glyph-name="h" unicode="h" horiz-adv-x="896" 
d="M15 -146v992l501 -496zM516 350l134 -133l-635 -367v4zM15 846l501 -496l134 133l-635 367v-4zM516 350l134 133l231 -133l-231 -133z" />
    <glyph glyph-name="i" unicode="i" 
d="M15 350q0 144 70 256.5t179 176.5q115 67 251 67q144 0 256.5 -70t176.5 -179q67 -115 67 -251q0 -144 -70 -256.5t-179 -176.5q-115 -67 -251 -67q-144 0 -256.5 70t-176.5 179q-67 115 -67 251zM232 67q117 -117 283 -117t283 117t117 283t-117 283t-283 117t-283 -117
t-117 -283t117 -283zM298 174q0 -31 21.5 -52.5t52.5 -21.5q33 0 57 24t24 57v269l200 37v-208q-17 5 -28 5q-33 0 -57 -24t-24 -57q0 -31 21 -52.5t52 -21.5t55.5 23.5t25.5 53.5v394l-290 -50v-300q-17 5 -28 5q-33 0 -57.5 -24t-24.5 -57z" />
    <glyph glyph-name="j" unicode="j" horiz-adv-x="794" 
d="M15 850h764v-817l-571 3v-186h-193v1000zM206 209h399v450h-399v-450z" />
    <glyph glyph-name="k" unicode="k" 
d="M15 283v134l3 59q3 60 6 62q5 4 14 52q9 51 24 56q16 5 36 46q21 42 50 48q146 110 356 110h16v-777h124v208q3 -4 24 -39l40 -64l26 -40q28 -38 60.5 -52t94.5 -14h36v118q-46 0 -63 7q-19 8 -42 41q-16 20 -63 100l171 238h-148l-136 -189v453q135 -23 238 -100
q48 -36 86 -94q16 -25 24 -56q16 -56 18 -93q1 -8 2 -21q3 -44 3 -59v-134l-3 -59q-3 -60 -6 -62q-5 -4 -14 -52q-9 -51 -24 -56q-16 -5 -36 -46q-21 -42 -50 -48q-146 -110 -367 -110t-367 110q-48 36 -86 94q-16 25 -24 56q-16 56 -18 93q-1 8 -2 21q-3 44 -3 59zM96 134
q66 -67 192 -67q80 0 138 41q57 40 57 118q0 46 -16.5 81.5t-46.5 48.5q-55 25 -117 28q-63 4 -63 42q0 47 70 46q56 0 87 -29l78 78q-60 60 -170 60q-78 0 -131 -41q-54 -42 -54 -118q0 -48 19.5 -81.5t52.5 -46.5q38 -14 122 -26q26 -4 36.5 -13t10.5 -31q0 -46 -72 -46
q-77 0 -113 36z" />
    <glyph glyph-name="l" unicode="l" horiz-adv-x="1359" 
d="M15 350q0 164 116 280t280 116q132 0 225 -67t141 -177l129 -300q21 -47 38 -74q39 -61 128 -66h7q65 0 111 36.5t47 95.5q0 53 -37 77q-28 19 -100 42q-124 40 -180 89q-55 48 -55 136q0 93 59 146.5t155 53.5q127 0 191 -115l-84 -43q-45 62 -112 62q-45 0 -76 -28.5
t-31 -72.5q0 -30 11 -45q15 -20 29 -30q40 -25 136 -52q109 -36 155 -84q46 -47 46 -140q0 -100 -76 -166q-76 -65 -186 -65h-3q-99 0 -161 47q-61 46 -103 140l-141 321q-32 73 -102.5 122t-160.5 49q-119 0 -203 -84q-85 -85 -85 -204t85 -204q84 -84 203 -84
q85 0 152.5 44t102.5 111l51 -118q-53 -65 -131.5 -105t-174.5 -40q-164 0 -280 116t-116 280z" />
    <glyph glyph-name="m" unicode="m" horiz-adv-x="1232" 
d="M15 800h185l9 -8h825l9 8h174v-900h-171v7h-855v-4h-176v897zM191 35v-80h855v74l-345 259l-79 -65l-86 70zM498 324l-307 252v-481zM622 438l347 298h-695zM739 319l307 -230v484z" />
    <glyph glyph-name="n" unicode="n" 
d="M15 527l316 323v-123l301 -277l187 46l-195 -208l391 -438l-444 392l-188 -192l30 169l-255 316z" />
    <glyph glyph-name="o" unicode="o" horiz-adv-x="1113" 
d="M15 203q-1 125 92 205q86 73 193 106t160 39l26 3v-123q-113 -8 -182 -56q-63 -43 -88 -93q-25 -48 -27 -74l-2 -12q-3 -15 -3 -30q0 -59 45 -100q58 -53 127 -78q70 -25 111 -34l19 -3v-103q-192 20 -302 92q-99 64 -134 138q-32 68 -34 106zM525 -150v902l142 98v-922z
M701 441h5q35 -1 76 -15.5t65 -30.5l21 -16l-83 -34l313 -78v245l-107 -61q-41 44 -112 69q-75 27 -126 31l-52 5v-115z" />
    <glyph glyph-name="q" unicode="q" horiz-adv-x="919" 
d="M693 16q30 -62 114 -83v-76q-34 -7 -67 -7q-50 0 -85 18q-56 29 -91 94q-46 -13 -105 -13q-127 0 -228 63.5t-157 161.5q-59 102 -59 225q0 129 62.5 231.5t158.5 159.5q102 60 223 60q185 0 315 -132q130 -131 130 -319q0 -125 -59.5 -225t-151.5 -158zM236 340
q0 -116 66 -198q66 -83 161 -83q25 0 52 8q-33 49 -75 70q-17 8 -36 10v88q7 1 20 1q119 0 203 -90q63 81 63 194v116q0 116 -66 198q-66 83 -161 83t-161 -83q-66 -82 -66 -198v-116z" />
    <glyph glyph-name="s" unicode="s" horiz-adv-x="1182" 
d="M28 296q5 -3 10 -32.5t5 -42.5q0 -14 -5 -42.5t-10 -31.5q-13 7 -13 74q0 17 3.5 44.5t9.5 30.5zM79 221q0 12 5.5 72t5.5 63q0 6 6 6q4 0 6 -6q12 -129 12 -135q0 -12 -6 -68.5t-6 -61.5q-1 -7 -6 -7q-6 0 -6 7q0 3 -5.5 61t-5.5 69zM160 221q0 7 5 64.5t5 63.5q0 9 7 9
q8 0 8 -9q11 -118 11 -128q0 -9 -11 -136q0 -8 -8 -8q-7 0 -7 8q0 7 -5 67t-5 69zM252 221q0 26 9 257q0 10 9 10q10 0 10 -10q10 -150 10 -257q0 -9 -5 -68.5t-5 -66.5q0 -10 -10 -10q-9 0 -9 10q-9 132 -9 135zM353 88q0 9 -3.5 66t-3.5 67q0 155 7 288q1 12 12 12t12 -12
q0 -5 4 -132t4 -156q0 -10 -1.5 -38.5t-4 -58.5t-2.5 -36q-1 -12 -12 -12t-12 12zM441 221q0 108 6 270q1 15 14 15t14 -15q6 -160 6 -270q0 -3 -6 -130q-1 -15 -14 -15q-12 0 -14 14q-6 129 -6 131zM542 571q2 18 16 18t16 -18q6 -348 6 -351q0 -1 -6 -127q-2 -17 -16 -17
t-16 17q-6 126 -6 127q0 3 6 351zM616 432q0 107 1 156q-2 19 34.5 28t69.5 9q96 0 169 -73t80 -178q27 13 55 13q59 0 99.5 -46.5t41.5 -109.5q1 -62 -40.5 -109t-100.5 -47h-393q-6 0 -10.5 6t-4.5 13q0 41 -0.5 167t-0.5 171z" />
    <glyph glyph-name="t" unicode="t" horiz-adv-x="646" 
d="M15 440v142q59 19 101 55q86 69 102 213h143v-253h237v-157h-237v-256q0 -86 9 -112q10 -27 41.5 -43t68.5 -16q78 0 151 49v-157q-60 -29 -109.5 -42t-118.5 -13q-66 0 -122 17q-106 36 -141 118q-14 36 -14 105v350h-111z" />
    <glyph glyph-name="v" unicode="v" horiz-adv-x="1041" 
d="M327 620h-4l-1 -1h-1q-71 -13 -87 -26q-18 -15 -20 -71v-165l-3 -18l526 -13l80 27q-52 -96 -70 -132l-106 -47l-406 -7q-2 -2 -10 -3.5t-11 -4.5q6 -36 7 -39q12 -52 112 -59q198 -13 335 -13q35 0 120 20t127 20q64 0 111 -29v-54q0 -155 -154 -155h-723q-61 0 -97 48
q-37 49 -37 111v678q0 66 43.5 114.5t107.5 48.5h697q71 0 117 -38.5t46 -105.5v-59l-111 20q-49 7 -54 7q-7 2 -27 9t-36.5 11t-32.5 4q-61 0 -132 -47q-19 -2 -93.5 -7t-123 -10t-86.5 -13h-2zM705 555q0 14 10 24.5t24 10.5q13 0 24 -11t11 -24q0 -14 -10.5 -24
t-24.5 -10t-24 10t-10 24z" />
    <glyph glyph-name="w" unicode="w" 
d="M15 350q0 144 70 256.5t179 176.5q115 67 251 67q144 0 256.5 -70t176.5 -179q67 -115 67 -251q0 -144 -70 -256.5t-179 -176.5q-115 -67 -251 -67q-144 0 -256.5 70t-176.5 179q-67 115 -67 251zM54 350q0 -141 74.5 -251t185.5 -164l-220 603q-40 -87 -40 -188z
M743 609q0 33 22.5 57.5t55.5 24.5q1 0 3 -0.5t3 -0.5q-130 121 -312 121q-125 0 -225.5 -58.5t-160.5 -149.5h30q48 0 123 6q11 1 17 -8t2 -19t-16 -11l-53 -5l168 -499l101 302l-72 197q-32 4 -48 5q-11 1 -15.5 11t1 19t17.5 8l121 -6q49 0 123 6q11 1 17 -8t2 -19
t-16 -11l-52 -5l166 -496l46 154q36 117 36 149q0 63 -39 128q-22 35 -35 63q-10 21 -10 45zM385 -93q61 -18 130 -18q78 0 153 26q-28 72 -76.5 207.5t-68.5 187.5zM747 -49q100 58 164.5 162.5t64.5 236.5q0 120 -56 221q3 -21 3 -47q0 -62 -35 -165z" />
    <glyph glyph-name="y" unicode="y" horiz-adv-x="771" 
d="M15 262q1 52 9 88q2 17 15 29.5t29 8.5l204 -82q37 -11 37 -46t-36 -46l-204 -62q-18 -6 -31 3t-17 25q-6 26 -6 68v14zM391 414q0 -19 -10.5 -30.5t-28.5 -11.5q-20 0 -37 26q-164 256 -213 340q-5 8 -5 16q0 9 6 18q13 18 38 28q79 31 171 46h5q44 0 49 -38
q25 -307 25 -394zM388 -118q-2 -11 -12 -19.5t-23 -8.5q-6 0 -16 4q-34 5 -85 25t-73 37q-18 14 -18 30q0 13 10 24l139 166q19 20 38 20q41 0 41 -48q0 -7 -1 -10v-220zM501 288q-17 0 -29.5 13.5t-12.5 32.5q0 16 15 32l130 180q8 8 20 8q21 0 36 -20q22 -24 51.5 -69.5
t38.5 -74.5q3 -8 3 -14q0 -26 -27 -32l-209 -54q-10 -2 -16 -2zM477 186q-9 -12 -9 -24q0 -16 13 -32l114 -190q8 -10 24 -10h3q18 1 33 16q25 23 54.5 62.5t42.5 69.5q4 9 4 20q0 25 -22 32l-205 70q-9 4 -19 4q-22 0 -33 -18z" />
    <glyph glyph-name="braceleft" unicode="{" horiz-adv-x="1316" 
d="M107 435q0 31 -21.5 52.5t-52.5 21.5h-18q173 33 208 71q27 30 45 91q18 -23 23 -49q5 -27 1 -39l-5 -13q-6 -12 -18 -34q-4 -8 -19 -20q-3 -3 -19 -13.5t-18 -11.5q-35 -27 -33 -63q1 -34 30 -54q26 -17 50 6q25 23 53 78q13 29 19 66q8 49 22 78.5t44 53.5q30 25 96 20
q38 -3 61 2t50 22q33 21 67 64q14 18 52 44q32 22 57 28.5t76 -0.5q42 -9 86 -45q-48 21 -90 21q-63 0 -111 -48q-19 -19 -26 -33l-7 -15q-25 -62 -52 -100q-17 -23 -49 -34l-37 -10l-33 -8q-42 -13 -50 -54q-6 -37 22 -53q30 -17 73 8.5t69 54.5q22 25 30 44q17 39 62.5 67
t98.5 39q42 8 83 8q44 0 67 3q197 31 246 114q47 79 49 130q32 -108 -15 -185q-38 -62 -85 -90l-18 -11q-113 -59 -212 -77q-36 -7 -62 -21q-103 -55 -52 -155q21 -41 62.5 -44.5t76.5 29.5q18 15 37 53q13 27 15 61q35 -101 -5 -160l-15 -22q-36 -37 -61 -53
q-60 -37 -152 -4q-81 20 -120 20q-34 -1 -62 -18t-42 -42q-15 -27 -2 -48q8 -15 18 -22t22.5 -6t25 6t32.5 16q37 21 61.5 28.5t72.5 9.5q88 2 139 -38q34 -22 74 -57q-43 25 -79 31q-55 9 -114 -20q-22 -11 -32 -21l-10 -10q-43 -49 -76 -72q-29 -20 -52.5 -20.5
t-58.5 14.5q-2 1 -21 9l-38 16q-17 7 -22 8v110q0 121 -92 186q-58 40 -134 40t-134 -39q-20 29 -51 33v75zM447 -77q0 -64 -43.5 -106t-108.5 -42q-93 0 -134 71q-19 34 -19 99v162q0 65 19 99q41 71 134 71q67 0 109.5 -43t42.5 -110v-135h-202v-67q0 -48 50 -48
q46 0 50 49h102zM345 66v56q0 56 -50 56t-50 -56v-56h100zM507 -133q11 38 11 71q0 11 -3 20q3 -1 34 -5q68 -6 89 -55q14 -35 7 -54q-32 24 -65 30q-35 6 -54 -1z" />
    <glyph glyph-name="bar" unicode="|" horiz-adv-x="881" 
d="M16 -27q3 31 12 66q15 60 143 700q12 52 24 73q14 24 42 31t84 7h241q32 0 127 -1t124 -1q41 0 50 -45q10 -48 -23 -92q-30 -40 -81 -40h-401l-50 -233l352 -3q44 0 54 -45t-21 -84q-27 -33 -70 -33h-360l-48 -248h432q65 0 77 -43q12 -45 -17 -88q-30 -44 -68 -44h-553
q-81 0 -70 123z" />
    <glyph glyph-name="braceright" unicode="}" horiz-adv-x="891" 
d="M15 138q0 44 32 76t76 32q43 0 75.5 -32t32.5 -76q0 -47 -34 -78q65 -74 163 -74q68 0 115.5 41t47.5 106q0 40 -25 77q-24 39 -60 64q-35 23 -115 57q-74 30 -117 55.5t-78 67.5q-28 34 -46 74q-14 40 -14 79q0 101 81 172q83 71 197 71q79 0 151 -32t117 -81
q37 -31 37 -80q0 -44 -32 -76t-76 -32q-45 0 -76.5 31.5t-31.5 76.5q0 23 10 44q-31 16 -88 16q-64 0 -109.5 -29t-45.5 -82q0 -43 38 -76q43 -35 128 -71q94 -41 141 -73q98 -67 130 -159q0 -1 1 -3t1 -3q-75 -61 -75 -158q0 -54 28 -104q-10 -13 -24 -27q-86 -82 -206 -82
t-208 64q-90 66 -139 194l3 1q-5 17 -5 29zM628 63q0 -52 36 -88.5t88 -36.5t88 36.5t36 88.5q0 51 -36.5 87.5t-87.5 36.5t-87.5 -36.5t-36.5 -87.5z" />
    <glyph glyph-name="asciitilde" unicode="~" horiz-adv-x="694" 
d="M115 835l8 -121h10l5 3q79 133 246 133q130 0 212 -98q83 -100 83 -254q0 -132 -52.5 -221.5t-148.5 -129.5q-57 -23 -116 -23q-71 0 -127 29.5t-85 78.5l-2 3h-11l-3 -7v-378h-113v761q0 87 -6 224h100zM134 422q0 -31 6 -55q18 -66 72 -111t128 -45q106 0 164.5 80
t58.5 201q0 113 -59 191t-159 78q-75 0 -130 -47t-72 -116q-9 -33 -9 -53v-123z" />
    <glyph glyph-name="sterling" unicode="&#xa3;" horiz-adv-x="698" 
d="M16 512q-10 152 126 252q139 103 320 81q96 -12 181 -59q-1 -40 0 -76q6 -119 -10 -153q-15 2 -52 14q-67 20 -127 24q-70 6 -99 -38q7 -43 38 -66q29 -20 82 -37q48 -13 69 -26q114 -71 139 -219v-85q0 -84 -46 -144.5t-117 -90.5q-106 -44 -245 -38q-140 6 -239 59
q3 43 0 80t-1.5 79.5t11.5 69.5q16 -3 66 -16t56 -14q165 -36 177 40q2 19 -5.5 34.5t-26 27t-29.5 17t-32 13.5q-50 21 -96 49q-59 36 -80 68q-54 76 -60 154z" />
    <glyph glyph-name="Ccedilla" unicode="&#xc7;" horiz-adv-x="1303" 
d="M15 435q0 38 87 65t211 27t211 -27t87 -65v-51q-1 -37 -88 -64t-210 -27t-210 27t-88 64v51zM302 654q1 18 64 32q64 14 149 14t149 -14q62 -14 63 -32h1v-27h-1q-1 -19 -63 -33q-64 -14 -149 -14t-149 14q-63 14 -64 33v27zM513 133v64q5 56 117 95q110 38 271 38
t271 -38q111 -39 116 -95v-64q-3 -55 -116 -94q-112 -39 -271 -39q-161 0 -271 38q-112 39 -117 95zM741 474v42q2 30 75 49q75 20 176 20t176 -20q73 -19 75 -49v-42q0 -29 -73 -50q-74 -21 -178 -21t-178 21q-73 21 -73 50z" />
    <glyph glyph-name="Eacute" unicode="&#xc9;" horiz-adv-x="1150" 
d="M15 704q0 20 13 33t33 13h235q17 0 29 -10t16 -25l24 -98h674l7 21q11 32 43 32q20 0 33 -13t13 -32q0 -3 -2 -13l-118 -393q-9 -33 -43 -33h-559q-16 0 -28.5 10.5t-16.5 24.5l-108 438h-199q-19 0 -32.5 13t-13.5 32zM449 278h489l38 126l36 122h-625zM429 42
q0 37 27.5 64.5t65.5 27.5t65 -27t27 -65t-27 -65t-65 -27t-65.5 27.5t-27.5 64.5zM494 448h166v-92h-146zM740 448h162l-24 -92h-139zM776 42q0 37 27.5 64.5t65.5 27.5q37 0 64.5 -27t27.5 -65t-27.5 -65t-64.5 -27q-38 0 -65.5 27.5t-27.5 64.5z" />
    <glyph glyph-name="Ntilde" unicode="&#xd1;" horiz-adv-x="954" 
d="M15 283l116 129h85v-64h-56l-80 -89v-245h795v245l-80 89h-56v64h85l115 -129v-333h-924v333zM216 269v330l151 151h372v-481h-523zM276 330h403v360h-252v-151h-151v-209z" />
    <glyph glyph-name="Odieresis" unicode="&#xd6;" horiz-adv-x="746" 
d="M15 136q0 61 25 94.5t77 48.5q-16 39 -16 59q0 32 35 70q38 35 69 35q17 0 40 -9q-46 131 -69 208q-24 81 -24 115q0 47 24 75t67 28q73 0 173 -295l17 -49q6 15 12 33q100 292 180 292q40 0 63.5 -27.5t23.5 -69.5q0 -28 -24 -113q-20 -68 -66 -200q61 -15 85 -58.5
t24 -128.5q0 -179 -106 -291q-108 -113 -274 -113q-65 0 -127 24q-56 20 -107 66.5t-76 98.5q-26 55 -26 107zM135 218q-23 0 -39 -24.5t-16 -52.5q0 -23 14 -59q19 -46 56 -86t80 -62q56 -28 129 -28q129 0 217 97q87 96 87 243q0 44 -4.5 67.5t-20.5 37.5
q-31 27 -113.5 42.5t-160.5 15.5q-22 0 -28 -6q-7 -3 -7 -20q0 -42 46 -58q49 -21 165 -21h28q15 0 23 -11q8 -8 11 -31q-18 -18 -55 -31q-76 -27 -117 -95q-23 -40 -23 -74q0 -22 10 -51q11 -35 11 -43v-6l-4 -15q-78 5 -83 123q-2 -1 -12 -1h-11q1 -3 1 -12
q0 -30 -23.5 -51t-53.5 -21q-47 0 -95 45q-48 46 -48 90q0 8 3 16q2 8 16 22q5 -6 19.5 -25.5t22.5 -28.5l21 -22q13 -14 24.5 -20t22.5 -6q7 0 15 5t8 11q0 8 -12 29q-6 13 -37 53q-30 37 -45 50q-16 14 -22 14zM210 374q-11 0 -25.5 -15.5t-14.5 -26.5q0 -14 16 -45
q13 -26 46 -68t55 -62q25 -20 36 -20q7 0 14 7.5t7 15.5q0 12 -18 58q-43 107 -85 141q-17 15 -31 15zM237 795q-10 0 -16 -9.5t-6 -21.5q0 -34 24 -107q25 -78 66 -190q11 6 28 6q1 0 8 -0.5t9 -0.5q1 0 4.5 -0.5t9.5 -1t12 -0.5l-69 200q-30 84 -44 104q-13 21 -26 21z
M400 204q19 22 40 38q-6 1 -29 5.5t-30 6.5l9 -25zM486 458l67 -12q46 128 69 199q25 79 25 96q0 32 -22 32q-15 0 -31 -27q-18 -27 -43 -101z" />
    <glyph glyph-name="Udieresis" unicode="&#xdc;" 
d="M115 -150q-41 0 -70.5 30t-29.5 70v800q0 40 29.5 70t70.5 30h800q41 0 70.5 -30t29.5 -70v-800q0 -40 -29.5 -70t-70.5 -30h-800zM303 138q88 -88 212 -88t212 88t88 212t-88 212t-212 88t-212 -88t-88 -212t88 -212zM315 350q0 82 59 141t141 59t141 -59t59 -141
t-59 -141t-141 -59t-141 59t-59 141z" />
    <glyph glyph-name="agrave" unicode="&#xe0;" horiz-adv-x="647" 
d="M15 3q0 76 57 112q25 17 54 29q116 50 122 54q-21 31 -114 139q-109 131 -94 247q6 44 26 72t58 51q45 26 97 47l91 40q81 35 111 51q20 11 25 -6q0 -11 -27 -25q-83 -55 -59 -172q7 -34 13.5 -50.5t24.5 -42.5q26 -37 62 -77q18 -20 29.5 -34t30.5 -35q41 -46 61 -75
q27 -40 41 -95q8 -30 8 -58q0 -39 -13 -68q-12 -33 -28.5 -52t-47.5 -39q-57 -35 -114 -57q-3 -1 -27.5 -12t-30.5 -13l-89 -39l-36 -18q-31 -16 -50 -21q-85 -21 -133 24t-48 123z" />
    <glyph glyph-name="aacute" unicode="&#xe1;" horiz-adv-x="1156" 
d="M91 679q51 82 96 114q37 27 110.5 45t135.5 6q51 -9 83 -32q39 -27 63 -57q37 -48 51 -73q44 -81 70 -145q2 -7 13 -31q6 41 57 188q48 141 67 145q91 21 145 0l16 -16q-1 -31 -14 -71q-1 -3 -25 -67l-160 -439q-7 -33 19 -90q26 -56 67 -93q29 -26 53.5 -27t38.5 26
q11 22 28 29.5t57 7.5q54 0 67 -19q28 -52 -1 -100.5t-78 -84.5q-78 -57 -148 -42q-80 16 -129 81q-30 40 -80 127q-3 -1 -6 -4q-24 -58 -82 -106.5t-126 -74.5q-79 -29 -157.5 -19t-137.5 53q-84 60 -131 204q-45 137 -36 300q9 158 74 265zM169 426q-13 -108 9 -211
q23 -104 73 -141q86 -64 157 -32l34 16q9 4 22 14t28 26q5 5 13 14t11 12t8.5 9t7.5 9l8 10l10 14l10 17l22 33l16 30l22 36q-37 157 -64 223q-74 173 -202 155q-56 -8 -80.5 -21t-50.5 -50q-41 -56 -54 -163z" />
    <glyph glyph-name="acircumflex" unicode="&#xe2;" horiz-adv-x="1108" 
d="M108 642q54 51 127.5 74t158.5 -1q69 -19 124 -71t76 -120q35 -115 -8 -218q-16 -27 -8.5 -66.5t19 -65.5t26.5 -50q25 -38 51 -68t26 -33l-11 9q-57 57 -133 98q-40 22 -90 26q-24 1 -42 -7q-104 -42 -220 2q-62 23 -103 69q-86 92 -86 212q0 122 93 210zM180 327
q41 -55 112 -64q69 -9 124 33q55 41 64 112q9 69 -33 124t-111 64t-124 -33q-56 -42 -65 -111t33 -125zM625 746q19 55 70.5 86.5t116.5 9.5q54 -17 85 -70t10 -118q-24 -73 -114 -104q-24 -9 -50.5 -30t-39.5 -42q-7 -11 -23 -40q22 94 -24 159q-55 79 -31 149zM663 251
q2 91 63.5 154.5t151.5 63.5q88 0 152 -62q63 -61 63 -156q0 -109 -110 -195q-38 -29 -62 -71q-21 -38 -28 -60t-15 -75q-6 52 -12 75.5t-28 60.5q-24 42 -65 74q-112 83 -110 191zM701 723q-12 -30 1.5 -56.5t37.5 -36.5q30 -12 56 1t36 37q12 31 -1 57t-37 36
q-30 12 -56.5 -1t-36.5 -37zM768 208q17 -41 61.5 -63.5t95.5 -1.5q41 17 63.5 61.5t1.5 95.5q-17 41 -61.5 64t-95.5 2q-46 -19 -65 -65q-19 -45 0 -93z" />
    <glyph glyph-name="atilde" unicode="&#xe3;" horiz-adv-x="1029" 
d="M491 538q38 -111 88 -176t141 -117q63 7 116 7q178 0 178 -70q0 -9 -5 -24l-3 1q-4 -42 -67 -42q-103 0 -240 72q-221 -23 -389 -82q-147 -257 -235 -257q-15 0 -52 20q-8 8 -8 22q0 51 61 106q63 57 123 89l15 -22q-43 -31 -90 -82t-59 -90q87 27 265 379
q67 135 103 261q-33 107 -33 202q0 115 47 115h20q4 0 12.5 -1.5t13 -4.5t9.5 -9q9 -11 9 -34q0 -15 -3 -28l-27 1q-1 26 -17 41q-12 -19 -12 -69q0 -38 9 -94q9 60 18 107l26 -3q-1 -149 -14 -218zM631 232q-103 73 -164 209q-35 -120 -134 -294q130 53 298 85zM819 197
q91 -35 142 -35q15 0 22 3q0 32 -145 32h-19z" />
    <glyph glyph-name="adieresis" unicode="&#xe4;" horiz-adv-x="905" 
d="M15 282q0 65 20 129.5t49 106.5q30 43 73 82.5t87 63.5q92 47 123 73q43 35 50 113q72 -87 106 -110q16 -10 75 -39t72 -37q28 -16 42.5 -27.5t47.5 -44.5q41 -39 65 -79t44 -102q21 -65 21 -137q0 -186 -128 -305t-306 -119q-125 0 -223 59t-156 152q-62 101 -62 221z
M205 131q-2 -59 33 -86.5t103 -27.5q42 0 97 29l106 59q49 29 70 28q25 -2 78 -56t70 -56q18 -1 34 9q12 8 31 35q33 49 33 117q0 28 -15 54t-47 26q-21 0 -92 -47t-94 -48q-22 0 -61 27q-41 28 -89 56q-49 28 -98 28q-66 -2 -112 -45q-45 -43 -47 -102zM410 -69
q46 -42 165 -31q27 2 57 14.5t44 26.5q4 4 4 16q-3 12 -14 3q-41 -32 -124 -32q-76 0 -110 28q-4 2 -8 2q-6 0 -14 -7q-11 -10 0 -20zM500 3q4 -5 16 2.5t26 18t20 12.5q9 3 27 3q29 0 39 -13q1 -1 4 -7t6 -11t4 -6q2 -1 8 1q11 7 7.5 19t-10.5 22t-12 13q-12 9 -43 9
q-26 0 -41 -6q-20 -9 -44 -32q-14 -12 -7 -25z" />
    <glyph glyph-name="aring" unicode="&#xe5;" horiz-adv-x="1009" 
d="M15 88q18 24 81 45q22 7 40 16q30 0 67 -20q20 -11 25 -12q2 -1 260 -119q13 -5 29 -1.5t23.5 6.5t22.5 12q28 16 101 49q78 35 128 61q37 19 61 24q21 3 39 -3.5t37 -18.5t31 -16q11 -4 16.5 -6.5t11 -9.5t6.5 -17q-10 -13 -32 -24t-50.5 -21.5t-39.5 -16.5l-128 -62
l-129 -61q-6 -2 -23.5 -12.5t-21.5 -12.5q-37 -17 -52 -18q-6 0 -30 2l-264 123q-23 12 -89 39t-95 44q-18 10 -21 17q-4 4 -4 13zM15 356q10 14 30 24.5t52.5 21.5t40.5 14q14 0 29 -4t22 -7t24 -12l19 -10l127 -59l127 -58q19 -5 35 -1.5t41 17.5l25 15l160 72q10 4 31 16
t39.5 20t35.5 11q29 6 69 -18q22 -13 23 -13q5 -3 19 -8t21.5 -11.5t8.5 -19.5q-10 -14 -31.5 -25.5t-52 -22.5t-41.5 -16l-258 -124q-5 -2 -28 -14.5t-27 -14.5q-48 -19 -68 -10q-265 124 -304 141q-84 35 -131 59q-29 14 -34 23q-4 4 -4 14zM15 623q10 15 31.5 26t51.5 22
t42 17l348 162q35 0 56 -7t54 -26q34 -20 274 -131l45 -19q38 -16 46 -20q10 -5 13.5 -7t8.5 -6t6.5 -8.5t2.5 -11.5q-15 -21 -70 -42q-28 -9 -34 -13l-140 -67l-139 -66l-21 -12q-13 -7 -24.5 -12.5t-22.5 -9.5q-17 -6 -27 -6q-17 0 -28 1l-319 146q-48 21 -102 47
q-43 21 -48 30q-4 4 -4 13z" />
    <glyph glyph-name="ccedilla" unicode="&#xe7;" horiz-adv-x="1166" 
d="M1151 695q0 -9 -0.5 -49.5t-0.5 -49.5q0 -204 -23 -327q-22 -116 -92.5 -208t-168.5 -145q-178 -97 -393 -51q-205 44 -337 206q-66 81 -96 182q-16 54 -23 267q-7 214 12 270q6 13 19 24.5t23 17t29 14.5q60 0 359.5 2t355.5 2h94q108 0 111 -3q2 -1 45 -6q36 -4 35 -8
q0 -1 -2 -2q29 -17 43 -54q10 -27 10 -82zM249 522q-25 -28 15 -90l14 -19l14 -19q8 -11 14 -18l16 -18q10 -12 14 -16l18 -18q13 -14 15.5 -17t18.5 -19l19 -19l15 -15q9 -9 11.5 -12t9.5 -10t9.5 -9t8 -7t9.5 -8l10 -7l13 -9q6 -5 15 -11q30 -20 57 -28q11 -3 22 -3
q25 0 39 7q24 12 32 19q63 54 173 161q34 32 68 79q33 46 35 76q-29 80 -89 64q-55 -15 -115 -74l-105 -107q-26 -26 -37 -32q-48 29 -155 141q-36 39 -73 64t-55 15q-20 -12 -56 -41z" />
    <glyph glyph-name="eacute" unicode="&#xe9;" horiz-adv-x="896" 
d="M142 808q128 42 306 42q180 0 306 -42q127 -42 127 -102q0 -12 -72 -440q-9 -45 -111 -89q-101 -43 -250 -43t-250 43q-103 44 -110 89q-73 411 -73 440q0 60 127 102zM122 129q0 17 15 17q5 0 12 -5q45 -37 122 -58q77 -22 126 -23l51 -3q117 0 227 43q41 16 73 41l11 5
q16 0 16 -17q0 -3 -1 -4l-19 -101q-10 -53 -11 -60q-10 -49 -96 -82q-83 -32 -200 -32t-200 32q-85 33 -95 82q-15 70 -31 161v4zM252 680q81 -18 196 -18q113 0 196 17q82 17 82 41t-82 42q-81 18 -196 18q-113 0 -196 -17q-81 -17 -81 -42q0 -23 81 -41zM310 368
q0 -56 41 -97t97 -41t97 41t41 97t-41 97t-97 41t-97 -41t-41 -97zM379 368q0 -28 20.5 -48.5t48.5 -20.5t48.5 20.5t20.5 48.5t-20.5 48.5t-48.5 20.5t-48.5 -20.5t-20.5 -48.5z" />
    <glyph glyph-name="arrowleft" unicode="&#x2190;" horiz-adv-x="851" 
d="M15 314q0 28 21 51l363 363q21 21 51 21q29 0 50 -21l42 -42q21 -21 21 -50q0 -30 -21 -51l-164 -164h393q29 0 47 -20.5t18 -50.5v-71q0 -30 -18 -51t-47 -21h-393l164 -164q21 -20 21 -50q0 -31 -21 -50l-42 -43q-20 -20 -50 -20t-51 20l-363 364q-21 21 -21 50z" />
    <glyph glyph-name="arrowup" unicode="&#x2191;" horiz-adv-x="899" 
d="M15 308q0 30 21 51l363 363q19 21 51 21q29 0 50 -21l364 -363q20 -21 20 -51q0 -29 -20 -50l-42 -42q-21 -21 -51 -21q-31 0 -50 21l-164 164v-393q0 -29 -21 -47.5t-51 -18.5h-71q-30 0 -50.5 18.5t-20.5 47.5v393l-164 -164q-19 -21 -51 -21q-30 0 -50 21l-42 42
q-21 21 -21 50z" />
    <glyph glyph-name="arrowright" unicode="&#x2192;" horiz-adv-x="851" 
d="M15 279v71q0 30 18 50.5t47 20.5h393l-163 164q-22 20 -22 51q0 30 22 50l41 42q21 21 51 21q29 0 50 -21l364 -363q20 -19 20 -51q0 -30 -20 -50l-364 -364q-21 -20 -50 -20q-30 0 -51 20l-41 42q-22 22 -22 51t22 51l163 163h-393q-29 0 -47 21t-18 51z" />
    <glyph glyph-name="arrowdown" unicode="&#x2193;" horiz-adv-x="899" 
d="M15 386q0 29 21 50l42 42q22 21 50 21q30 0 51 -21l164 -164v393q0 29 21.5 50.5t49.5 21.5h71q29 0 50.5 -21.5t21.5 -50.5v-393l164 164q21 21 50 21t51 -21l42 -42q20 -21 20 -50q0 -31 -20 -51l-364 -363q-22 -21 -50 -21q-30 0 -51 21l-363 363q-21 19 -21 51z" />
    <glyph glyph-name="house" unicode="&#x2302;" horiz-adv-x="930" 
d="M768 707q8 0 13 -5.5t5 -12.5v-227l122 -102q13 -11 3 -25l-35 -41q-4 -4 -12 -6h-1q-9 0 -12 3l-386 322l-386 -322q-14 -10 -25 3l-35 41q-4 5 -4 13t6 12l401 334q18 15 43 15q24 0 42 -15l136 -114v109q0 7 5.5 12.5t12.5 5.5h107zM143 29v267l1 2v2l321 264
l321 -264v-4v-267q0 -14 -10.5 -25t-24.5 -11h-215v214h-143v-214h-214q-14 0 -25 11t-11 25z" />
    <glyph glyph-name="uni2389" unicode="&#x2389;" horiz-adv-x="887" 
d="M51 -79q-14 0 -25 11t-11 25v786q0 14 11 25t25 11h285q14 0 25 -11t11 -25v-786q0 -14 -11 -25t-25 -11h-285zM515 -43v786q0 14 11 25t25 11h285q14 0 25 -11t11 -25v-786q0 -14 -11 -25t-25 -11h-285q-14 0 -25 11t-11 25z" />
    <glyph glyph-name="uni23E9" unicode="&#x23e9;" horiz-adv-x="890" 
d="M15 -61v822q0 15 7.5 17.5t17.5 -7.5l396 -396q6 -6 8 -10v396q0 15 7.5 17.5t17.5 -7.5l396 -396q10 -10 10 -25t-10 -25l-396 -396q-10 -10 -17.5 -7.5t-7.5 17.5v396q-2 -4 -8 -10l-396 -396q-10 -10 -17.5 -7.5t-7.5 17.5z" />
    <glyph glyph-name="uni23EA" unicode="&#x23ea;" horiz-adv-x="890" 
d="M15 350q0 14 11 25l396 396q10 10 17.5 7.5t7.5 -17.5v-396q3 6 7 10l396 396q10 10 17.5 7.5t7.5 -17.5v-822q0 -15 -7.5 -17.5t-17.5 7.5l-396 396q-4 4 -7 10v-396q0 -15 -7.5 -17.5t-17.5 7.5l-396 396q-11 11 -11 25z" />
    <glyph glyph-name="uni23ED" unicode="&#x23ed;" horiz-adv-x="601" 
d="M15 -61v822q0 15 7.5 17.5t17.5 -7.5l396 -396q6 -6 8 -10v378q0 14 10.5 25t24.5 11h72q14 0 24.5 -11t10.5 -25v-786q0 -14 -10.5 -25t-24.5 -11h-72q-14 0 -24.5 11t-10.5 25v378q-2 -4 -8 -10l-396 -396q-10 -10 -17.5 -7.5t-7.5 17.5z" />
    <glyph glyph-name="uni23EE" unicode="&#x23ee;" horiz-adv-x="601" 
d="M15 -43v786q0 14 11 25t25 11h71q14 0 25 -11t11 -25v-378q1 4 7 10l396 396q10 10 17.5 7.5t7.5 -17.5v-822q0 -15 -7.5 -17.5t-17.5 7.5l-396 396q-6 6 -7 10v-378q0 -14 -11 -25t-25 -11h-71q-14 0 -25 11t-11 25z" />
    <glyph glyph-name="H18543" unicode="&#x25aa;" horiz-adv-x="887" 
d="M15 -43v786q0 14 11 25t25 11h785q14 0 25 -11t11 -25v-786q0 -14 -11 -25t-25 -11h-785q-14 0 -25 11t-11 25z" />
    <glyph glyph-name="uni25B4" unicode="&#x25b4;" horiz-adv-x="601" 
d="M15 171q0 15 11 26l250 250q10 10 25 10t25 -10l250 -250q10 -10 10 -26q0 -14 -10.5 -24.5t-24.5 -10.5h-500q-14 0 -25 10.5t-11 24.5z" />
    <glyph glyph-name="uni25B6" unicode="&#x25b6;" horiz-adv-x="815" 
d="M15 -61v822q0 14 8.5 19.5t22.5 -1.5l741 -412q13 -7 13 -17t-13 -17l-741 -412q-14 -7 -22.5 -1.5t-8.5 19.5z" />
    <glyph glyph-name="uni25B8" unicode="&#x25b8;" horiz-adv-x="351" 
d="M15 100v500q0 14 11 25t25 11t25 -11l250 -250q10 -10 10 -25t-10 -25l-250 -250q-11 -11 -25 -11t-25 11t-11 25z" />
    <glyph glyph-name="uni25BE" unicode="&#x25be;" horiz-adv-x="601" 
d="M15 457q0 14 11 25t25 11h500q14 0 24.5 -11t10.5 -25q0 -15 -10 -25l-250 -250q-11 -11 -25 -11t-25 11l-250 250q-11 11 -11 25z" />
    <glyph glyph-name="uni25C2" unicode="&#x25c2;" horiz-adv-x="351" 
d="M15 350q0 14 11 25l250 250q11 11 25 11t24.5 -11t10.5 -25v-500q0 -14 -10.5 -25t-24.5 -11t-25 11l-250 250q-11 11 -11 25z" />
    <glyph glyph-name="uni2601" unicode="&#x2601;" horiz-adv-x="1101" 
d="M15 243q0 77 41 137t103 89q-1 10 -1 24q0 118 84 202t202 84q92 0 162.5 -51t101.5 -127q40 35 93 35q59 0 101 -42t42 -101q0 -42 -23 -77q69 -16 117 -74t48 -135q0 -89 -62 -151q-63 -63 -152 -63h-607q-104 0 -177 73t-73 177z" />
    <glyph glyph-name="uni2602" unicode="&#x2602;" horiz-adv-x="959" 
d="M33 355q-7 0 -12.5 5.5t-5.5 12.5q0 1 1 3v1q25 101 95.5 177.5t166.5 114.5t201 38q161 0 291 -86q62 -40 108.5 -104t64.5 -140l1 -1v-3q0 -7 -5 -12.5t-13 -5.5q-7 0 -13 6q-23 22 -52 38q-23 13 -57 13q-86 0 -139 -90q-1 -2 -4.5 -8t-5 -8t-5 -4.5t-8.5 -2.5
q-8 0 -14 6.5t-12 18t-8 13.5q-55 75 -129 75q-85 0 -138 -90l-3 -7q-3 -5 -4.5 -6.5t-4 -4.5t-5.5 -4t-7 -1q-7 0 -13 6.5t-13 18t-8 13.5q-55 75 -128 75q-34 0 -57 -13q-29 -16 -52 -38q-6 -6 -13 -6zM229 64q0 14 11 25t25 11t25 -11t11 -25q0 -28 21.5 -49.5
t49.5 -21.5t50 21.5t22 49.5v324q18 6 35 6q18 0 36 -6v-324q0 -58 -42.5 -100.5t-100.5 -42.5t-100.5 42.5t-42.5 100.5zM444 724v55q0 14 10.5 24.5t24.5 10.5t25 -10.5t11 -24.5v-55q-16 1 -36 1q-19 0 -35 -1z" />
    <glyph glyph-name="uni2605" unicode="&#x2605;" horiz-adv-x="959" 
d="M15 489q0 22 31 26l280 40l126 254q11 23 27 23q17 0 28 -23l125 -254l280 -40q32 -5 32 -26q0 -12 -15 -27l-203 -197l48 -279q0 -1 0.5 -5t0.5 -7q0 -27 -23 -27q-10 0 -22 6l-251 132l-250 -132q-12 -6 -23 -6q-23 0 -23 27q0 7 1 12l48 279l-203 197q-14 16 -14 27z
" />
    <glyph glyph-name="uni2606" unicode="&#x2606;" horiz-adv-x="959" 
d="M206 -53q-23 0 -23 27q0 7 1 12l48 279l-203 197q-14 16 -14 27q0 22 31 26l280 40l126 254q11 23 27 23q17 0 28 -23l125 -254l280 -40q32 -5 32 -26q0 -12 -15 -27l-203 -197l48 -279q0 -1 0.5 -5t0.5 -7q0 -27 -23 -27q-10 0 -22 6l-251 132l-250 -132q-12 -6 -23 -6z
M138 455l171 -165l-41 -235l211 111l211 -111l-41 235l171 165l-235 35l-106 213l-105 -213z" />
    <glyph glyph-name="uni2611" unicode="&#x2611;" horiz-adv-x="958" 
d="M176 -7q-66 0 -113.5 47.5t-47.5 113.5v464q0 66 47.5 113.5t113.5 47.5h464q34 0 65 -14q8 -4 10 -13t-5 -16l-27 -28q-5 -5 -13 -5q-3 0 -5 1q-14 3 -25 3h-464q-37 0 -63.5 -26t-26.5 -63v-464q0 -37 26.5 -63.5t63.5 -26.5h464q37 0 63 26.5t26 63.5v141q0 8 5 13
l36 35q6 6 13 6q8 0 13 -5.5t5 -12.5v-177q0 -66 -47.5 -113.5t-113.5 -47.5h-464zM158 421q0 18 14 32l61 62q13 13 32 13t32 -13l147 -147l361 361q13 13 31 13q19 0 32 -13l62 -61q13 -13 13 -32t-13 -32l-455 -454q-14 -14 -31 -14q-18 0 -32 14l-240 240q-14 14 -14 31
z" />
    <glyph glyph-name="uni261C" unicode="&#x261c;" 
d="M15 422q0 57 43 99.5t100 42.5h209q-13 36 -13 72q0 67 45 105t116 38q23 0 42.5 -12.5t28.5 -25.5t21 -35l11 -22l16 -31q7 -14 12 -22q28 -45 86 -105q11 -11 26 -23q14 -10 25 -10h161q29 0 50 -21.5t21 -50.5v-357q0 -29 -21 -50t-50 -21h-161q-33 0 -125 -33
q-106 -39 -176 -39q-80 0 -129 44t-48 121v3q-34 41 -34 99q0 8 2 24q-20 34 -21 67h-94q-58 0 -100.5 42.5t-42.5 100.5zM86 421q0 -28 21.5 -49.5t50.5 -21.5h185q-20 -22 -20 -57q0 -39 30 -67q-10 -17 -10 -38q0 -22 10.5 -42.5t25.5 -28.5q-2 -18 -2 -31q0 -93 102 -93
q47 0 102 18l49 15l60 20q52 18 93 18h18v357h-18q-51 0 -100 53q-2 2 -15 16.5t-20 21.5q-55 62 -89 132q-20 42 -34 57q-6 6 -10 6q-89 0 -89 -71q0 -18 5 -35.5t10.5 -28.5t15.5 -28l14 -24q8 -15 8 -27h-321q-28 0 -50 -22t-22 -50zM872 100q0 -14 11 -25t25 -11t25 11
t11 25t-11 25t-25 11t-25 -11t-11 -25z" />
    <glyph glyph-name="uni261D" unicode="&#x261d;" horiz-adv-x="887" 
d="M15 350q0 71 38 116t105 45q35 0 71 -13v209q0 57 43 100t100 43q58 0 100.5 -42.5t42.5 -100.5v-94q32 -1 66 -21q16 2 24 2q55 0 100 -34q77 1 122 -47t45 -127q0 -77 -38 -179q-33 -91 -33 -125v-161q0 -29 -21.5 -50t-50.5 -21h-357q-29 0 -50 21t-21 50v161
q0 12 -21 38q-14 16 -36 35q-67 58 -116 82q-53 26 -76 44q-37 28 -37 69zM158 439q-72 0 -72 -89q0 -12 78 -50q63 -34 117 -83q43 -37 59 -57q32 -40 32 -78v-18h357v18q0 40 18 93l36 108q18 56 18 100q0 106 -93 106q-16 0 -32 -3q-8 15 -28 25.5t-42 10.5t-39 -10
q-29 30 -66 30q-35 0 -57 -20v185q0 29 -22 50.5t-50 21.5t-49.5 -22t-21.5 -50v-321q-18 0 -58 26q-39 27 -85 27zM658 -43q0 -14 11 -25t25 -11t24.5 11t10.5 25t-10.5 25t-24.5 11t-25 -11t-11 -25z" />
    <glyph glyph-name="uni261E" unicode="&#x261e;" 
d="M86 -7q-29 0 -50 21t-21 50v357q0 29 21 50.5t50 21.5h161q13 0 38 20q13 11 35 37q58 67 82 116q25 50 44 75q28 38 69 38q71 0 116 -38t45 -105q0 -36 -13 -72h209q57 0 100 -42.5t43 -99.5q0 -58 -42.5 -100.5t-100.5 -42.5h-94q-1 -33 -21 -67q2 -16 2 -24
q0 -54 -34 -99q1 -77 -47 -122.5t-127 -45.5q-74 0 -179 39q-92 33 -125 33h-161zM86 100q0 -14 11 -25t25 -11t25 11t11 25t-11 25t-25 11t-25 -11t-11 -25zM229 64h18q41 0 93 -18l34 -11l39 -13l35 -11q56 -18 100 -18q106 0 106 93q0 14 -3 31q15 8 25.5 28.5t10.5 42.5
q0 21 -10 38q30 28 30 67q0 35 -20 57h185q29 0 50.5 21.5t21.5 49.5t-22 50t-50 22h-321q0 16 27 58q26 38 26 85q0 71 -89 71q-13 0 -50 -77q-36 -65 -83 -118q-37 -42 -57 -59q-40 -32 -78 -32h-18v-357z" />
    <glyph glyph-name="uni261F" unicode="&#x261f;" horiz-adv-x="887" 
d="M158 189q-66 0 -104.5 45.5t-38.5 115.5q0 23 12.5 42.5t25.5 28.5t35 21l74 39q48 30 106 86q6 6 22 26q11 15 11 25v161q0 29 21 50t50 21h357q29 0 50.5 -21t21.5 -50v-161q0 -34 33 -125q38 -104 38 -176q0 -80 -43.5 -129t-120.5 -48h-3q-41 -34 -100 -34
q-8 0 -24 2q-30 -16 -66 -21v-94q0 -58 -42.5 -100.5t-100.5 -42.5q-57 0 -100 43t-43 100v209q-33 -13 -71 -13zM86 350q0 -89 72 -89q18 0 35.5 5t28.5 10.5t28 15.5l24 14q15 8 27 8v-321q0 -28 21.5 -50t49.5 -22t50 21.5t22 50.5v185q26 -20 57 -20q37 0 66 30
q17 -10 39 -10t42 10.5t28 25.5q18 -2 32 -2q93 0 93 102q0 46 -18 102l-36 109q-18 53 -18 93v18h-357v-18q0 -48 -43 -91q-25 -25 -48 -44q-63 -56 -131 -89q-42 -20 -57 -34q-7 -7 -7 -10zM658 743q0 -14 11 -25t25 -11t24.5 11t10.5 25t-10.5 25t-24.5 11t-25 -11
t-11 -25z" />
    <glyph glyph-name="uni2630" unicode="&#x2630;" 
d="M69 -7q-23 0 -38.5 15.5t-15.5 37.5v108q0 22 15.5 37.5t38.5 15.5h178q23 0 38.5 -15.5t15.5 -37.5v-108q0 -22 -15.5 -37.5t-38.5 -15.5h-178zM69 279q-23 0 -38.5 15.5t-15.5 37.5v107q0 23 15.5 38.5t38.5 15.5h178q23 0 38.5 -15.5t15.5 -38.5v-107
q0 -22 -15.5 -37.5t-38.5 -15.5h-178zM69 564q-23 0 -38.5 16t-15.5 38v107q0 23 15.5 38.5t38.5 15.5h178q23 0 38.5 -15.5t15.5 -38.5v-107q0 -22 -15.5 -38t-38.5 -16h-178zM426 -7q-23 0 -38.5 15.5t-15.5 37.5v108q0 22 15.5 37.5t38.5 15.5h535q23 0 38.5 -15.5
t15.5 -37.5v-108q0 -22 -15.5 -37.5t-38.5 -15.5h-535zM426 279q-23 0 -38.5 15.5t-15.5 37.5v107q0 23 16 38.5t38 15.5h535q23 0 38.5 -15.5t15.5 -38.5v-107q0 -22 -15.5 -37.5t-38.5 -15.5h-535zM372 618v107q0 23 16 38.5t38 15.5h535q23 0 38.5 -15.5t15.5 -38.5v-107
q0 -22 -15.5 -38t-38.5 -16h-535q-22 0 -38 16t-16 38z" />
    <glyph glyph-name="uni2661" unicode="&#x2661;" 
d="M15 517q0 123 71.5 192.5t195.5 69.5q88 0 191 -83q20 -16 42 -38q40 40 96 76q68 45 137 45q124 0 195.5 -69.5t71.5 -192.5t-128 -251l-347 -335q-10 -10 -25 -10t-25 10l-348 336q-40 33 -84 106q-43 73 -43 144zM86 517q0 -93 105 -198l324 -312l324 312
q105 105 105 198q0 190 -196 190q-59 0 -124 -50q-53 -39 -82 -74q-11 -13 -27 -13t-27 13q-29 35 -82 74q-65 50 -124 50q-95 0 -145.5 -48t-50.5 -142z" />
    <glyph glyph-name="heart" unicode="&#x2665;" 
d="M15 517q0 123 71.5 192.5t195.5 69.5q88 0 191 -83q20 -16 42 -38q40 40 96 76q68 45 137 45q124 0 195.5 -69.5t71.5 -192.5t-128 -251l-347 -335q-10 -10 -25 -10t-25 10l-348 336q-40 33 -84 106q-43 73 -43 144z" />
    <glyph glyph-name="musicalnotedbl" unicode="&#x266b;" horiz-adv-x="887" 
d="M15 -43q0 76 125 101q28 6 54 6q62 0 107 -21v539q0 18 11 31.5t27 19.5l464 143q12 3 16 3q22 0 37.5 -15.5t15.5 -38.5v-625q0 -76 -125 -101q-29 -6 -53 -6q-53 0 -112 24q-28 11 -47.5 32.5t-19.5 50.5q0 76 125 101q28 6 54 6q60 0 107 -22v300l-429 -132v-396
q0 -76 -125 -101q-29 -6 -53 -6q-53 0 -112 24q-28 11 -47.5 32.5t-19.5 50.5z" />
    <glyph glyph-name="uni268F" unicode="&#x268f;" 
d="M69 -7q-23 0 -38.5 15.5t-15.5 37.5v108q0 22 15.5 37.5t38.5 15.5h178q23 0 38.5 -15.5t15.5 -37.5v-108q0 -22 -15.5 -37.5t-38.5 -15.5h-178zM69 279q-23 0 -38.5 15.5t-15.5 37.5v107q0 23 15.5 38.5t38.5 15.5h178q23 0 38.5 -15.5t15.5 -38.5v-107
q0 -22 -15.5 -37.5t-38.5 -15.5h-178zM69 564q-23 0 -38.5 16t-15.5 38v107q0 23 15.5 38.5t38.5 15.5h178q23 0 38.5 -15.5t15.5 -38.5v-107q0 -22 -15.5 -38t-38.5 -16h-178zM426 -7q-23 0 -38.5 15.5t-15.5 37.5v108q0 22 15.5 37.5t38.5 15.5h178q23 0 38.5 -15.5
t15.5 -37.5v-108q0 -22 -15.5 -37.5t-38.5 -15.5h-178zM426 279q-23 0 -38.5 15.5t-15.5 37.5v107q0 23 16 38.5t38 15.5h178q22 0 38 -15.5t16 -38.5v-107q0 -22 -15.5 -37.5t-38.5 -15.5h-178zM426 564q-22 0 -38 16t-16 38v107q0 23 16 38.5t38 15.5h178q22 0 38 -15.5
t16 -38.5v-107q0 -22 -16 -38t-38 -16h-178zM783 -7q-23 0 -38.5 15.5t-15.5 37.5v108q0 22 15.5 37.5t38.5 15.5h178q23 0 38.5 -15.5t15.5 -37.5v-108q0 -22 -15.5 -37.5t-38.5 -15.5h-178zM783 279q-23 0 -38.5 15.5t-15.5 37.5v107q0 23 15.5 38.5t38.5 15.5h178
q23 0 38.5 -15.5t15.5 -38.5v-107q0 -22 -15.5 -37.5t-38.5 -15.5h-178zM729 618v107q0 23 15.5 38.5t38.5 15.5h178q23 0 38.5 -15.5t15.5 -38.5v-107q0 -22 -15.5 -38t-38.5 -16h-178q-23 0 -38.5 16t-15.5 38z" />
    <glyph glyph-name="uni2691" unicode="&#x2691;" horiz-adv-x="994" 
d="M15 707q0 29 21 50.5t50 21.5t50.5 -21.5t21.5 -50.5q0 -40 -36 -61v-707q0 -7 -5 -12.5t-13 -5.5h-35q-7 0 -12.5 5.5t-5.5 12.5v707q-36 21 -36 61zM158 171v414q0 18 17 31q16 10 44 24q131 67 235 67q61 0 112 -16q53 -17 122 -49q22 -11 49 -11q25 0 53 8t42 14
t46 23t35 19q23 12 31 12q14 0 24.5 -11t10.5 -25v-425q0 -15 -6.5 -22t-22.5 -15q-121 -65 -206 -65q-62 0 -129 39q-70 39 -144 39q-107 0 -259 -81q-10 -5 -18 -5q-14 0 -25 10.5t-11 24.5z" />
    <glyph glyph-name="uni2699" unicode="&#x2699;" horiz-adv-x="887" 
d="M15 413q0 7 4.5 13t10.5 7l104 16q6 21 22 51q-25 35 -60 77q-6 6 -6 14q0 4 5 12q13 18 54 59t54 41q9 0 15 -5l77 -60q16 9 50 21q8 71 17 104q5 16 20 16h124q18 0 20 -17l15 -103q33 -11 50 -20l80 59q5 5 13 5q9 0 14 -5q72 -66 92 -95q4 -4 4 -12t-4 -13
q-5 -7 -29.5 -38.5t-29.5 -38.5q14 -26 23 -54l102 -16q16 -2 16 -20v-124q0 -7 -4.5 -13t-10.5 -7l-104 -16q-11 -30 -21 -51q20 -30 59 -77q6 -6 6 -14q0 -5 -5 -12q-12 -17 -53 -58.5t-55 -41.5q-6 0 -14 5l-77 60q-14 -8 -51 -21q-9 -78 -16 -104q-5 -16 -20 -16h-124
q-18 0 -20 17l-16 103q-33 11 -50 20l-79 -59q-7 -5 -14 -5q-8 0 -14 6q-65 58 -92 94q-4 5 -4 12q0 6 5 13t29 38.5t29 38.5q-16 31 -23 55l-102 15q-16 2 -16 20v124zM301 350q0 -58 42.5 -100.5t100.5 -42.5t100 42t42 101t-42 101t-100 42t-100.5 -42.5t-42.5 -100.5z
" />
    <glyph glyph-name="uni26A0" unicode="&#x26a0;" horiz-adv-x="1031" 
d="M453 813q20 37 63 37q42 0 62 -37l429 -786q20 -37 -2 -71.5t-61 -34.5h-857q-39 0 -61.5 34t-1.5 72zM454 564q-6 0 -12.5 -5.5t-6.5 -12.5l10 -255q0 -12 19 -12h103q17 0 19 12l10 257q0 6 -6.5 11t-12.5 5h-123zM444 83q0 -8 5.5 -13.5t12.5 -5.5h107q7 0 12.5 5.5
t5.5 13.5v106q0 7 -5.5 12.5t-12.5 5.5h-107q-8 0 -13 -5.5t-5 -12.5v-106z" />
    <glyph glyph-name="uni26A1" unicode="&#x26a1;" horiz-adv-x="530" 
d="M16 300l112 461q5 18 24 18h183q10 0 17.5 -7t7.5 -17q0 -6 -2 -10l-96 -258l221 54q6 2 7 2q13 0 21 -10.5t2 -22.5l-302 -646q-8 -14 -23 -14q-12 0 -20 8t-5 20l110 451l-226 -56l-3 -1h-4q-12 0 -19 8.5t-5 19.5z" />
    <glyph glyph-name="uni26EF" unicode="&#x26ef;" horiz-adv-x="1101" 
d="M15 402q0 15 13 17l86 14q6 19 18 42q-23 32 -50 64q-4 5 -4 11q0 7 4 11q11 15 45 49t45 34q7 0 12 -4l64 -50q20 11 43 18q5 53 13 86q4 13 16 13h104q15 0 17 -14l13 -85q22 -7 41 -17l66 49q4 4 11 4t12 -4q81 -73 81 -90q0 -5 -4 -10l-23 -30q-21 -27 -26 -34
q13 -25 19 -46l85 -12q13 -2 13 -17v-103q0 -15 -13 -17l-86 -14q-6 -19 -18 -42q23 -32 50 -64q4 -5 4 -11q0 -7 -4 -11q-14 -17 -46.5 -50t-43.5 -33q-6 0 -11 4l-64 50q-24 -12 -43 -17q-6 -55 -13 -87q-4 -13 -17 -13h-104q-14 0 -16 14l-13 85q-24 7 -42 17l-66 -49
q-4 -4 -11 -4t-12 4q-80 73 -80 90q0 5 4 10l24 32l25 32q-14 25 -20 46l-85 13q-13 2 -13 16v103zM229 350q0 -58 42.5 -100.5t100.5 -42.5t100.5 42.5t42.5 100.5t-42.5 100.5t-100.5 42.5t-100.5 -42.5t-42.5 -100.5zM855 -77q-5 -9 -27 -37t-27 -28l-7 4l-26 15l-36 21
q-3 3 -3 4q0 13 29 77q-11 14 -17 29q-83 9 -83 17v78q0 9 83 18q5 11 17 29q-29 64 -29 77q0 2 1 3.5t3 2.5t4.5 2t6.5 3t7 4l16 10q11 6 17 9q15 9 17 9q5 0 27 -28t27 -36q7 1 17 1t17 -1q33 45 51 63l4 1q2 0 69 -39q2 -2 2 -4q0 -15 -28 -77q9 -13 16 -29q83 -9 83 -18
v-78q0 -8 -83 -17q-7 -17 -16 -29q28 -62 28 -77q0 -2 -2 -4l-37 -21l-25 -15l-7 -4q-5 0 -27.5 28.5t-27.5 36.5q-14 -2 -17 -2t-17 2zM855 494q-5 -8 -27 -36t-27 -28q-1 0 -69 39q-3 3 -3 4q0 13 29 77q-11 14 -17 29q-83 9 -83 18v78q0 8 83 17q5 11 17 29
q-29 64 -29 77q0 2 1 3.5t3 2.5t4.5 2t6.5 3t7 4l16 9q11 7 17 10q15 9 17 9q5 0 27 -28t27 -36q14 2 17 2t17 -2q33 45 51 63l4 1q2 0 69 -39q2 -2 2 -4q0 -15 -28 -77q9 -13 16 -29q83 -9 83 -17v-78q0 -9 -83 -18q-7 -17 -16 -29q28 -62 28 -77q0 -2 -2 -4
q-67 -39 -69 -39q-5 0 -27.5 28t-27.5 36q-7 -1 -17 -1t-17 1zM801 64q0 -29 21 -50t50 -21t50.5 21t21.5 50q0 28 -22 50t-50 22t-49.5 -21.5t-21.5 -50.5zM801 636q0 -29 21 -50.5t50 -21.5t50.5 21.5t21.5 50.5q0 28 -21.5 49.5t-50.5 21.5q-28 0 -49.5 -21.5
t-21.5 -49.5z" />
    <glyph glyph-name="uni2702" unicode="&#x2702;" 
d="M184 -79q-75 0 -125 45t-43 114q8 91 104 152q74 47 155 47q47 0 84 -18q5 8 13 13l68 40l-68 41q-9 5 -13 12q-35 -17 -84 -17q-67 0 -130.5 33.5t-97.5 82.5q-50 73 -23 145q16 44 59.5 70t100.5 26q67 0 131 -33.5t97 -81.5q46 -66 26 -137l2 -1l4 -2l62 -37l385 216
q8 5 17 5t16 -4l72 -36q16 -9 18.5 -28.5t-13.5 -31.5l-283 -222l283 -222q16 -12 13.5 -31.5t-18.5 -28.5l-72 -35q-7 -4 -16 -4q-10 0 -17 4l-385 216l-62 -37q-1 0 -3 -1t-3 -1q18 -65 -13.5 -118t-86.5 -88q-74 -47 -154 -47zM109 91q-14 -37 10 -58.5t65 -21.5
q51 0 101 29.5t65 68.5q14 37 -10 58.5t-65 21.5q-51 0 -101 -29.5t-65 -68.5zM109 538q15 -39 65 -69t101 -30q41 0 65 22t10 59q-15 39 -65 68.5t-101 29.5q-41 0 -65 -21.5t-10 -58.5zM390 243l21 -21l15 -15l89 54l54 -18l410 321l-71 36l-429 -241v-63zM444 359
q0 22 26 36l-44 26l-15 -14l-21 -21l54 -33v6zM515 314q0 14 11 25t25 11t25 -11t11 -25t-11 -24.5t-25 -10.5t-25 10.5t-11 24.5zM583 211l325 -182l71 35l-290 228l-99 -77q-3 -3 -7 -4z" />
    <glyph glyph-name="uni2708" unicode="&#x2708;" horiz-adv-x="810" 
d="M15 260q0 8 5 13l36 36q5 5 13 5q5 0 140 -38l137 137l-321 153q-10 4 -10 16q0 8 5 13l36 36q5 5 13 5h1l2 -1l416 -80l134 134q83 83 132 83q18 0 29.5 -11t11.5 -29q0 -48 -84 -132l-133 -134l79 -416l1 -4q0 -7 -5 -12l-36 -36q-5 -5 -13 -5q-12 0 -16 10l-153 321
l-137 -137q38 -135 38 -141q0 -7 -5 -12l-35 -36q-5 -5 -13 -5q-10 0 -16 9l-86 156l-157 87q-9 5 -9 15z" />
    <glyph glyph-name="uni2709" unicode="&#x2709;" 
d="M104 -79q-37 0 -63 26.5t-26 63.5v607q0 37 26 63t63 26h822q37 0 63 -26t26 -63v-607q0 -37 -26 -63.5t-63 -26.5h-822zM86 11q0 -7 5 -12.5t13 -5.5h822q8 0 13 5.5t5 12.5v428q-21 -23 -39 -37q-160 -123 -238 -188l-17 -14q-10 -9 -14 -12l-13 -10q-8 -7 -15 -10
l-15 -9q-9 -5 -20 -10q-29 -13 -57 -13h-2q-25 0 -55.5 13t-49.5 27q-8 6 -46 38q-78 65 -238 188q-18 14 -39 37v-428zM86 618q0 -95 82 -159l108 -85l116 -92q33 -28 70 -54q34 -21 52 -21h2q28 0 77 38q4 3 45 37l116 92l108 85q29 23 55.5 63t26.5 75v14q0 14 -2 14
q-1 0 -3 5t-5 4t-8 2h-822q-8 0 -13 -5t-5 -13z" />
    <glyph glyph-name="uni270D" unicode="&#x270d;" horiz-adv-x="1026" 
d="M176 -7q-66 0 -113.5 47.5t-47.5 113.5v464q0 66 47.5 113.5t113.5 47.5h464q34 0 65 -14q8 -4 10 -13t-5 -16l-27 -28q-5 -5 -12 -5t-16.5 2t-14.5 2h-464q-37 0 -63.5 -26t-26.5 -63v-464q0 -37 26.5 -63.5t63.5 -26.5h464q37 0 63 26.5t26 63.5v70q0 7 5 12l36 36
q9 9 20 4.5t11 -16.5v-106q0 -66 -47.5 -113.5t-113.5 -47.5h-464zM372 296l375 375l161 -160l-375 -375h-161v160zM479 243v-54h32l64 65l-85 85l-64 -65v-31h53zM560 377l196 196q6 6 4 13.5t-8.5 8.5t-13.5 -4l-196 -196q-9 -9 0 -18t18 0zM783 707l51 51q16 16 38 16
t38 -16l85 -84q16 -16 16 -38t-16 -38l-51 -52z" />
    <glyph glyph-name="uni270E" unicode="&#x270e;" horiz-adv-x="875" 
d="M15 154l464 464l232 -232l-464 -465h-232v233zM158 64v-71h60l50 51l-131 131l-51 -51v-60h72zM194 195q5 0 9 4l303 302q3 3 3 10q0 12 -12 12q-5 0 -9 -4l-303 -302q-4 -4 -4 -10q0 -12 13 -12zM515 654l93 92q20 21 50 21t51 -21l131 -131q20 -21 20 -51t-20 -50
l-93 -93z" />
    <glyph glyph-name="uni2713" unicode="&#x2713;" horiz-adv-x="895" 
d="M15 332q0 22 16 38l76 76q16 16 37 16q22 0 38 -16l164 -165l367 367q16 16 37 16q22 0 38 -16l76 -76q16 -16 16 -38t-16 -38l-480 -480q-15 -15 -38 -15q-22 0 -37 15l-278 278q-16 16 -16 38z" />
    <glyph glyph-name="uni2714" unicode="&#x2714;" horiz-adv-x="887" 
d="M15 350q0 123 60 219.5t153 151.5q101 58 216 58q123 0 219.5 -60t151.5 -154q57 -99 57 -215q0 -123 -60 -219.5t-153 -151.5q-101 -58 -215 -58q-123 0 -220 60t-152 154q-57 99 -57 215zM156 339q0 -15 10 -25l202 -202q10 -10 25 -10t25 10l303 303q11 11 11 25
q0 15 -11 26l-50 50q-11 11 -25 11q-15 0 -26 -11l-227 -227l-126 126q-11 11 -25 11q-15 0 -26 -11l-50 -50q-10 -10 -10 -26z" />
    <glyph glyph-name="uni2715" unicode="&#x2715;" horiz-adv-x="693" 
d="M15 112q0 22 16 38l164 164l-164 164q-16 16 -16 38t16 38l76 76q16 16 37 16q22 0 38 -16l164 -164l165 164q16 16 37 16q22 0 38 -16l76 -76q16 -16 16 -38t-16 -38l-164 -164l164 -164q16 -16 16 -38t-16 -38l-76 -76q-15 -15 -38 -15q-22 0 -37 15l-165 164
l-164 -164q-15 -15 -38 -15q-22 0 -37 15l-76 76q-16 16 -16 38z" />
    <glyph glyph-name="uni2716" unicode="&#x2716;" horiz-adv-x="887" 
d="M15 350q0 123 60 219.5t153 151.5q101 58 216 58q123 0 219.5 -60t151.5 -154q57 -99 57 -215q0 -123 -60 -219.5t-153 -151.5q-101 -58 -215 -58q-123 0 -220 60t-152 154q-57 99 -57 215zM231 224q0 -15 11 -26l50 -50q11 -11 25 -11q15 0 26 11l101 101l101 -101
q11 -11 25 -11t25 11l51 50q10 10 10 26q0 15 -10 25l-101 101l101 101q10 10 10 25q0 16 -10 26l-51 50q-11 11 -25 11t-25 -11l-101 -101l-101 101q-11 11 -26 11q-14 0 -25 -11l-50 -50q-11 -11 -11 -26q0 -14 11 -25l101 -101l-101 -101q-11 -11 -11 -25z" />
    <glyph glyph-name="uni2731" unicode="&#x2731;" horiz-adv-x="827" 
d="M18 221q7 28 33 43l148 86l-148 86q-23 14 -32 41t6 57l35 61q14 23 41 32t57 -6l148 -85v171q0 29 22 50.5t50 21.5h71q29 0 50.5 -21.5t21.5 -50.5v-171l148 85q30 15 57 6t41 -32l35 -61q15 -30 6 -57t-32 -41l-148 -86l148 -86q23 -14 32 -41t-6 -57l-35 -61
q-14 -23 -41 -32t-57 6l-148 85v-171q0 -29 -21.5 -50.5t-50.5 -21.5h-71q-28 0 -50 21.5t-22 50.5v171l-148 -85q-30 -15 -57 -6t-41 32l-35 61q-15 25 -7 55z" />
    <glyph glyph-name="uni2757" unicode="&#x2757;" horiz-adv-x="887" 
d="M15 350q0 123 60 219.5t153 151.5q101 58 216 58q123 0 219.5 -60t151.5 -154q57 -99 57 -215q0 -123 -60 -219.5t-153 -151.5q-101 -58 -215 -58q-123 0 -220 60t-152 154q-57 99 -57 215zM382 636q-7 0 -13 -4.5t-6 -10.5l10 -346q0 -6 6 -10t13 -4h103q17 0 19 14
l10 346q0 6 -6 10.5t-13 4.5h-123zM372 83q0 -7 6 -13t13 -6h107q7 0 12 5.5t5 13.5v106q0 18 -17 18h-107q-8 0 -13.5 -5.5t-5.5 -12.5v-106z" />
    <glyph glyph-name="uni2795" unicode="&#x2795;" horiz-adv-x="887" 
d="M15 350q0 123 60 219.5t153 151.5q101 58 216 58q123 0 219.5 -60t151.5 -154q57 -99 57 -215q0 -123 -60 -219.5t-153 -151.5q-101 -58 -215 -58q-123 0 -220 60t-152 154q-57 99 -57 215zM194 314q0 -14 10.5 -24.5t24.5 -10.5h143v-143q0 -14 11 -25t25 -11h71
q14 0 25 11t11 25v143h143q14 0 25 10.5t11 24.5v72q0 14 -11 24.5t-25 10.5h-143v143q0 14 -11 25t-25 11h-71q-14 0 -25 -11t-11 -25v-143h-143q-14 0 -24.5 -10.5t-10.5 -24.5v-72z" />
    <glyph glyph-name="uni2796" unicode="&#x2796;" horiz-adv-x="887" 
d="M15 350q0 123 60 219.5t153 151.5q101 58 216 58q123 0 219.5 -60t151.5 -154q57 -99 57 -215q0 -123 -60 -219.5t-153 -151.5q-101 -58 -215 -58q-123 0 -220 60t-152 154q-57 99 -57 215zM194 314q0 -14 10.5 -24.5t24.5 -10.5h429q14 0 25 10.5t11 24.5v72
q0 14 -11 24.5t-25 10.5h-429q-14 0 -24.5 -10.5t-10.5 -24.5v-72z" />
    <glyph glyph-name="uni27A6" unicode="&#x27a6;" 
d="M15 225q0 111 30 186q90 225 488 225h125v143q0 14 11 24.5t25 10.5q15 0 25 -10l285 -286q11 -11 11 -25t-11 -25l-285 -286q-11 -11 -25 -11t-25 11t-11 25v143h-125q-175 0 -258 -39q-141 -67 -141 -273q0 -32 3 -69q0 -2 1.5 -13.5t1.5 -14.5q0 -20 -18 -20
q-6 0 -11 3.5t-9 11.5l-6 12q-3 5 -6 14.5t-4 10.5q-71 160 -71 252z" />
    <glyph glyph-name="uni27F2" unicode="&#x27f2;" horiz-adv-x="887" 
d="M15 457v250q0 22 22 32t39 -7l72 -72q126 119 296 119q90 0 168.5 -35t134.5 -91q55 -55 90 -133.5t35 -169.5t-35 -169.5t-90 -133.5q-56 -56 -134.5 -91t-168.5 -35q-106 0 -192.5 45t-144.5 117q-59 76 -82 174q-1 8 4.5 15t13.5 7h111q13 0 17 -13q27 -86 100.5 -144
t172.5 -58q118 0 202 84q83 83 83 202t-83 202q-84 84 -202 84q-113 0 -195 -77l77 -77q17 -17 7 -39t-32 -22h-250q-14 0 -25 11t-11 25z" />
    <glyph glyph-name="uni27F3" unicode="&#x27f3;" horiz-adv-x="887" 
d="M15 350q0 90 35 168.5t91 134.5t134.5 91t168.5 35q169 0 295 -119l72 72q16 17 39 8q22 -9 22 -33v-250q0 -14 -11 -25t-25 -11h-250q-22 0 -32 22t7 39l77 77q-83 77 -194 77q-118 0 -202 -84t-84 -202t84 -202t202 -84q99 0 172 58t100 144q4 13 17 13h111
q8 0 13.5 -7t4.5 -15q-22 -99 -83.5 -175.5t-147.5 -117.5q-91 -43 -187 -43q-90 0 -168.5 35t-134.5 91t-91 134.5t-35 168.5z" />
    <glyph glyph-name="uni2B0C" unicode="&#x2b0c;" horiz-adv-x="387" 
d="M15 29q0 14 11 24.5t25 10.5h71v572h-71q-14 0 -25 10.5t-11 24.5q0 15 11 26l142 142q11 11 26 11q14 0 25 -11l143 -142q10 -10 10 -26q0 -14 -11 -24.5t-25 -10.5h-71v-572h71q14 0 25 -10.5t11 -24.5q0 -16 -10 -26l-143 -142q-11 -11 -25 -11q-15 0 -26 11l-142 142
q-11 11 -11 26z" />
    <glyph glyph-name="uni2B0D" unicode="&#x2b0d;" 
d="M15 350q0 14 11 25l142 143q11 11 26 11q14 0 24.5 -11t10.5 -25v-72h572v72q0 14 10.5 25t24.5 11q15 0 26 -11l142 -143q11 -11 11 -25t-11 -25l-142 -143q-11 -11 -26 -11q-14 0 -24.5 11t-10.5 25v72h-572v-72q0 -14 -10.5 -25t-24.5 -11q-15 0 -26 11l-142 143
q-11 11 -11 25z" />
    <glyph glyph-name="uni2ECF" unicode="&#x2ecf;" horiz-adv-x="889" 
d="M52 -7q-14 0 -25 11t-11 25v142q0 14 11 25t25 11h785q14 0 25 -11t11 -25v-142q0 -14 -11 -25t-25 -11h-785zM16 286q-3 8 7 18l396 396q10 10 25 10t25 -10l397 -396q10 -10 7 -17.5t-18 -7.5h-821q-15 0 -18 7z" />
    <glyph glyph-name="uniE701" unicode="&#xe701;" horiz-adv-x="494" 
d="M15 489q0 22 31 26l280 40l126 254q11 23 27 23v-747l-250 -132q-12 -6 -23 -6q-23 0 -23 27q0 7 1 12l48 279l-203 197q-14 16 -14 27z" />
    <glyph glyph-name="uniE702" unicode="&#xe702;" horiz-adv-x="887" 
d="M15 350q0 123 60 219.5t153 151.5q101 58 216 58q123 0 219.5 -60t151.5 -154q57 -99 57 -215q0 -123 -60 -219.5t-153 -151.5q-101 -58 -215 -58q-123 0 -220 60t-152 154q-57 99 -57 215zM158 350q0 -118 84 -202t202 -84t202 84q83 83 83 202t-83 202q-84 84 -202 84
t-202 -84t-84 -202zM209 350q0 15 10 25l57 57q10 10 25 10t25 -10l82 -82l153 153q11 11 25 11q15 0 26 -11l56 -56q11 -11 11 -26q0 -14 -11 -25l-235 -235q-10 -10 -25 -10t-25 10l-164 164q-10 10 -10 25z" />
    <glyph glyph-name="uniE703" unicode="&#xe703;" horiz-adv-x="887" 
d="M15 350q0 123 60 219.5t153 151.5q101 58 216 58q123 0 219.5 -60t151.5 -154q57 -99 57 -215q0 -123 -60 -219.5t-153 -151.5q-101 -58 -215 -58q-123 0 -220 60t-152 154q-57 99 -57 215zM158 350q0 -118 84 -202t202 -84t202 84q83 83 83 202t-83 202q-84 84 -202 84
t-202 -84t-84 -202zM244 243q0 15 10 25l82 82l-82 82q-10 10 -10 25t10 25l57 57q10 10 25 10q16 0 26 -10l82 -82l82 82q10 10 25 10t25 -10l57 -57q10 -10 10 -25t-10 -25l-82 -82l82 -82q10 -10 10 -25t-10 -25l-57 -57q-10 -10 -25 -10t-25 10l-82 82l-82 -82
q-10 -10 -26 -10q-15 0 -25 10l-57 57q-10 10 -10 25z" />
    <glyph glyph-name="uniE704" unicode="&#xe704;" horiz-adv-x="887" 
d="M15 350q0 123 60 219.5t153 151.5q101 58 216 58q123 0 219.5 -60t151.5 -154q57 -99 57 -215q0 -123 -60 -219.5t-153 -151.5q-101 -58 -215 -58q-123 0 -220 60t-152 154q-57 99 -57 215zM229 444q0 -23 18 -23h107q8 0 13 5.5t5 12.5q0 6 6 15q23 39 66 39
q23 0 46.5 -12.5t23.5 -31.5q0 -31 -50 -57q-29 -15 -44.5 -25t-31.5 -33.5t-16 -54.5v-14q0 -13 2 -13q1 0 3.5 -4.5t4.5 -3.5q5 0 8 -1h107q16 0 18 19q1 23 28 37q42 23 59.5 37.5t34.5 44.5q21 36 21 76q0 55 -33 96.5t-80 61.5q-48 21 -101 21q-118 0 -182 -83
q-33 -42 -33 -96v-13zM372 82q0 -8 5 -13t13 -5h107q7 0 12.5 5t5.5 13v107q0 7 -5.5 12.5t-12.5 5.5h-107q-8 0 -13 -5.5t-5 -12.5v-107z" />
    <glyph glyph-name="uniE705" unicode="&#xe705;" horiz-adv-x="887" 
d="M15 350q0 123 60 219.5t153 151.5q101 58 216 58q123 0 219.5 -60t151.5 -154q57 -99 57 -215q0 -123 -60 -219.5t-153 -151.5q-101 -58 -215 -58q-123 0 -220 60t-152 154q-57 99 -57 215zM301 82q0 -8 5.5 -13t12.5 -5h250q17 0 17 18v36q0 18 -17 18h-54v268
q0 17 -18 17h-178q-18 0 -18 -17v-36q0 -8 5.5 -13t12.5 -5h53v-214h-53q-7 0 -12.5 -5t-5.5 -13v-36zM372 511q0 -7 5 -12.5t13 -5.5h107q7 0 12.5 5.5t5.5 12.5v107q0 8 -5.5 13t-12.5 5h-107q-8 0 -13 -5t-5 -13v-107z" />
    <glyph glyph-name="uniE708" unicode="&#xe708;" horiz-adv-x="959" 
d="M86 -7q-28 0 -49.5 21.5t-21.5 49.5v215q0 29 21.5 50t49.5 21h286q29 0 50.5 -21.5t21.5 -49.5v-215q0 -28 -21.5 -49.5t-50.5 -21.5h-286zM86 421q-28 0 -49.5 21.5t-21.5 50.5v214q0 29 21.5 50.5t49.5 21.5h286q28 0 50 -21.5t22 -50.5v-214q0 -29 -22 -50.5
t-50 -21.5h-286zM586 -7q-28 0 -49.5 21.5t-21.5 49.5v215q0 29 21.5 50t49.5 21h286q29 0 50.5 -21.5t21.5 -49.5v-215q0 -28 -21.5 -49.5t-50.5 -21.5h-286zM515 493v214q0 29 21.5 50.5t49.5 21.5h286q28 0 50 -21.5t22 -50.5v-214q0 -29 -22 -50.5t-50 -21.5h-286
q-28 0 -49.5 21.5t-21.5 50.5z" />
    <glyph glyph-name="uniE70A" unicode="&#xe70a;" 
d="M26 353q74 120 203.5 201.5t285.5 81.5t285.5 -81.5t203.5 -201.5q11 -20 11 -39q0 -18 -11 -38q-74 -120 -203 -201.5t-286 -81.5q-156 0 -285.5 81.5t-203.5 201.5q-11 20 -11 38q0 19 11 39zM86 314q70 -109 180 -179.5t249 -70.5t249 70.5t180 179.5
q-85 130 -213 197q34 -58 34 -125q0 -104 -73 -177t-177 -73t-177 73t-73 177q0 67 34 125q-128 -67 -213 -197zM345 386q0 -11 8 -19t19 -8t19 8t8 19q0 47 34.5 81.5t81.5 34.5q11 0 19 8t8 19t-8 18.5t-19 7.5q-69 0 -119.5 -50t-50.5 -119z" />
    <glyph glyph-name="uniE70B" unicode="&#xe70b;" 
d="M26 353q85 130 212 207q125 76 277 76q43 0 100 -10l31 54q6 9 15 9q4 0 28 -12l46 -27q9 -6 9 -15v-5l-176 -316l-176 -316l-28 -50q-6 -9 -15 -9q-7 0 -75 39q-9 6 -9 16q0 5 25 49q-162 74 -264 233q-11 19 -11 38q0 20 11 39zM368 184q-45 33 -74 85.5t-29 116.5
q0 67 34 125q-128 -67 -213 -197q92 -142 239 -209zM345 386q0 -11 8 -19t19 -8t19 8t8 19q0 47 34.5 81.5t81.5 34.5q11 0 19 8t8 19t-8 18.5t-19 7.5q-69 0 -119.5 -50t-50.5 -119zM556 67q124 11 224 79t164 168q-63 98 -158 164l35 63q53 -36 102.5 -86t80.5 -102
q11 -20 11 -39q0 -18 -11 -38q-42 -70 -111 -132t-144 -98q-111 -53 -234 -53zM604 152l157 281q4 -23 4 -47q0 -82 -46.5 -145t-114.5 -89z" />
    <glyph glyph-name="uniE70C" unicode="&#xe70c;" horiz-adv-x="875" 
d="M15 707q0 29 21.5 50.5t49.5 21.5h233q32 0 67 -15.5t55 -35.5l399 -399q20 -21 20 -50q0 -31 -20 -51l-274 -274q-22 -21 -51 -21t-50 21l-399 399q-19 18 -35 54.5t-16 67.5v232zM122 600q0 -29 21.5 -50t50.5 -21t50 21t21 50t-21 50t-50 21t-50.5 -21t-21.5 -50z" />
    <glyph glyph-name="uniE70D" unicode="&#xe70d;" horiz-adv-x="1090" 
d="M15 707q0 29 21.5 50.5t49.5 21.5h233q32 0 67 -15.5t55 -35.5l399 -399q20 -21 20 -50q0 -31 -20 -51l-274 -274q-22 -21 -51 -21t-50 21l-399 399q-19 18 -35 54.5t-16 67.5v232zM122 600q0 -29 21.5 -50t50.5 -21t50 21t21 50t-21 50t-50 21t-50.5 -21t-21.5 -50z
M408 779h125q32 0 67 -15.5t55 -35.5l399 -399q21 -23 21 -50q0 -30 -21 -51l-274 -274q-22 -21 -51 -21q-15 0 -27 5.5t-16.5 9.5t-18.5 18l262 262q21 21 21 51q0 27 -21 50l-399 399q-20 20 -55 35.5t-67 15.5z" />
    <glyph glyph-name="uniE70F" unicode="&#xe70f;" 
d="M86 -79q-29 0 -50 21.5t-21 50.5v714q0 29 21 50.5t50 21.5h858q29 0 50 -21.5t21 -50.5v-714q0 -29 -21 -50.5t-50 -21.5h-858zM944 -7v71h-858v-71h858zM944 564v143h-462l-36 -71h-360v-72h858zM372 671v72h-214v-72h214zM363 162q63 -63 152 -63t152 63q62 62 62 151
q0 90 -62 152t-152 62t-152 -62t-62 -152q0 -89 62 -151zM372 313q0 59 42 101t101 42t101 -42t42 -101t-42 -101t-101 -42t-101 42t-42 101zM426 314q0 -8 5 -13t13 -5q17 0 17 18q0 22 15.5 38t38.5 16q7 0 12.5 5t5.5 13t-5.5 13t-12.5 5q-37 0 -63 -26.5t-26 -63.5z" />
    <glyph glyph-name="uniE715" unicode="&#xe715;" horiz-adv-x="959" 
d="M176 -7q-66 0 -113.5 47.5t-47.5 113.5v464q0 66 47.5 113.5t113.5 47.5h142q8 0 13 -5.5t5 -12.5q0 -15 -15 -18q-43 -15 -74 -34q-8 -2 -9 -2h-62q-37 0 -63.5 -26t-26.5 -63v-464q0 -37 26.5 -63.5t63.5 -26.5h464q37 0 63 26.5t26 63.5v119q0 10 10 16q15 7 30 21
q9 9 20.5 4t11.5 -16v-144q0 -66 -47.5 -113.5t-113.5 -47.5h-464zM158 386q0 91 28.5 154t84.5 99t128.5 52t169.5 16h89v107q0 15 10 25.5t26 10.5q14 0 25 -11l214 -214q11 -11 11 -25t-11 -25l-214 -214q-11 -11 -25 -11q-16 0 -26 10.5t-10 25.5v107h-89
q-181 0 -245 -73q-66 -77 -41 -264q2 -20 -18 -20q-12 0 -26 24q-51 80 -71 158q-10 36 -10 68z" />
    <glyph glyph-name="uniE716" unicode="&#xe716;" horiz-adv-x="959" 
d="M33 64q-7 0 -12.5 5t-5.5 13v232q0 44 31.5 75.5t75.5 31.5h36v304q0 23 15.5 38.5t37.5 15.5h375q23 0 50.5 -12t41.5 -26l85 -85q14 -14 26 -41t12 -51v-143h35q44 0 76 -32t32 -75v-232q0 -8 -5 -13t-13 -5h-125v-89q0 -23 -15.5 -38.5t-38.5 -15.5h-536
q-22 0 -37.5 15.5t-15.5 38.5v89h-125zM729 -7v143h-500v-143h500zM640 564q-22 0 -38 16t-16 38v89h-357v-357h500v214h-89zM801 314q0 -14 10.5 -24.5t24.5 -10.5t25 10.5t11 24.5t-11 25t-25 11t-24.5 -11t-10.5 -25z" />
    <glyph glyph-name="uniE717" unicode="&#xe717;" horiz-adv-x="1101" 
d="M51 350q-14 0 -25 11t-11 25q0 15 8 23l179 214q10 12 27 12t28 -12l178 -214q9 -9 9 -23t-11 -25t-25 -11h-107v-214h321q10 0 14 -6l89 -108q4 -5 4 -11q0 -7 -5.5 -12.5t-12.5 -5.5h-535q-18 0 -18 22v335h-107zM372 618q0 8 5 13t13 5h536q18 0 18 -23v-334h107
q14 0 24.5 -11t10.5 -25q0 -15 -8 -23l-179 -214q-10 -13 -27 -13t-27 13l-179 214q-8 8 -8 23q0 14 11 25t25 11h107v214h-322q-9 0 -14 7l-89 107q-4 4 -4 11z" />
    <glyph glyph-name="uniE718" unicode="&#xe718;" 
d="M15 350q0 147 146 253q66 47 159 75.5t195 28.5q137 0 252.5 -48.5t180.5 -129.5q67 -82 67 -179t-67 -179q-65 -81 -180.5 -129.5t-252.5 -48.5q-44 0 -81 4q-111 -97 -257 -135q-27 -8 -63 -12q-21 -3 -27 21v1q-5 7 11 27l25 28q17 19 30 35.5t21 32.5q21 42 30 75
q-87 50 -138 123t-51 157z" />
    <glyph glyph-name="uniE720" unicode="&#xe720;" 
d="M163 198q-64 37 -106 93.5t-42 129.5q0 86 56.5 149.5t139.5 98.5q91 38 197 38q108 0 198.5 -39t141.5 -103q53 -67 53 -144q0 -86 -56.5 -149t-139.5 -98q-91 -38 -197 -38q-48 0 -98 9q-92 -65 -203 -81h-2q-8 0 -13.5 6t-5.5 14q0 5 12 21q5 7 18 20.5t21.5 24.5
t14.5 23q2 3 3.5 7t4 9.5t3.5 8.5zM359 67q10 0 26.5 -1.5t22.5 -1.5q186 0 320 97q144 105 144 260q0 45 -13 85q67 -37 111.5 -94.5t44.5 -132.5q0 -137 -148 -224q11 -28 25 -46q23 -29 27 -33q3 -3 7 -6.5t6 -5.5t4 -5l4 -6q2 -3 3 -8v-7q-2 -7 -7.5 -12.5t-12.5 -4.5
q-112 16 -203 81q-50 -9 -98 -9q-150 0 -263 74z" />
    <glyph glyph-name="uniE724" unicode="&#xe724;" horiz-adv-x="601" 
d="M99 695q84 84 202 84t202 -84q83 -83 83 -202q0 -61 -18 -100l-203 -432q-18 -40 -64 -40t-64 40l-204 432q-18 39 -18 100q0 118 84 202zM158 493q0 -59 42 -101t101 -42t101 42t42 101t-42 101t-101 42t-101 -42t-42 -101z" />
    <glyph glyph-name="uniE729" unicode="&#xe729;" horiz-adv-x="816" 
d="M33 564q-7 0 -12.5 5t-5.5 13v36q0 8 5.5 13t12.5 5h172l39 93q8 19 29.5 34.5t45.5 15.5h178q24 0 45 -15.5t29 -34.5l39 -93h173q7 0 12.5 -5t5.5 -13v-36q0 -8 -5.5 -13t-12.5 -5h-54v-529q0 -44 -25.5 -79t-63.5 -35h-464q-38 0 -64 34t-26 78v531h-53zM158 35
q0 -23 12 -37q5 -5 6 -5h464q7 0 12.5 15t5.5 27v529h-500v-529zM247 100q-7 0 -12.5 5t-5.5 13v321q0 7 5.5 12.5t12.5 5.5h36q7 0 12.5 -5.5t5.5 -12.5v-321q0 -8 -5.5 -13t-12.5 -5h-36zM283 636h250l-27 65q-5 5 -9 6h-177q-5 -1 -10 -6zM390 100q-8 0 -13 5t-5 13v321
q0 7 5 12.5t13 5.5h36q8 0 13 -5.5t5 -12.5v-321q0 -8 -5 -13t-13 -5h-36zM515 118v321q0 7 5.5 12.5t12.5 5.5h36q17 0 17 -18v-321q0 -18 -17 -18h-36q-7 0 -12.5 5t-5.5 13z" />
    <glyph glyph-name="uniE73D" unicode="&#xe73d;" horiz-adv-x="959" 
d="M15 671q0 14 11 25t25 11h143q17 0 26.5 -13t12 -24t5.5 -34h670q14 0 25 -11t11 -25v-286q0 -14 -9.5 -23.5t-22.5 -11.5l-583 -69q7 -38 7 -39q0 -9 -13 -35h513q14 0 25 -11t11 -25t-11 -25t-25 -11h-35q29 0 50 -21t21 -50t-21 -50.5t-50 -21.5t-50.5 21.5
t-21.5 50.5t21.5 50t50.5 21h-500q29 0 50 -21t21 -50t-21 -50.5t-50 -21.5t-50.5 21.5t-21.5 50.5t21.5 50t50.5 21h-36q-14 0 -25 11t-11 25q0 8 6 22l15 28l13 26l-98 460h-114q-14 0 -25 10.5t-11 24.5z" />
    <glyph glyph-name="uniE740" unicode="&#xe740;" horiz-adv-x="887" 
d="M51 207q-14 0 -25 11t-11 25v214q0 14 11 25t25 11h250v161q0 14 10.5 24.5t24.5 10.5q16 0 26 -10l303 -304q11 -11 11 -25t-11 -25l-303 -304q-10 -10 -26 -10q-14 0 -24.5 10.5t-10.5 24.5v161h-250zM514 37q2 27 19 27h178q37 0 63.5 26.5t26.5 63.5v392
q0 37 -26.5 63.5t-63.5 26.5h-174q-13 0 -13 2q0 1 -4.5 3.5t-3.5 4.5q0 5 -1 8q0 3 -0.5 13.5t0 15t2 11.5t5.5 10t11 3h178q66 0 113.5 -47.5t47.5 -113.5v-392q0 -66 -47.5 -113.5t-113.5 -47.5h-178q-7 0 -12.5 5.5t-5.5 12.5q0 2 -0.5 12.5t-0.5 13.5z" />
    <glyph glyph-name="uniE741" unicode="&#xe741;" horiz-adv-x="905" 
d="M176 -7q-66 0 -113.5 47.5t-47.5 113.5v392q0 66 47.5 113.5t113.5 47.5h178q8 0 13 -5.5t5 -12.5q0 -3 0.5 -13t0 -15t-2 -12t-5.5 -10t-11 -3h-178q-37 0 -63.5 -26.5t-26.5 -63.5v-392q0 -37 26.5 -63.5t63.5 -26.5h174q13 0 13 -2q0 -1 4.5 -3.5t3.5 -4.5q0 -5 1 -8
q0 -3 0.5 -13t0 -15t-2 -12t-5.5 -10t-11 -3h-178zM229 243v214q0 14 11 25t25 11h250v161q0 14 11 24.5t25 10.5q15 0 25 -10l303 -304q11 -11 11 -25t-11 -25l-303 -304q-10 -10 -25 -10q-14 0 -25 10.5t-11 24.5v161h-250q-14 0 -25 11t-11 25z" />
    <glyph glyph-name="uniE744" unicode="&#xe744;" horiz-adv-x="887" 
d="M51 -79q-14 0 -25 11t-11 25v250q0 14 11 25t25 11t25 -11l80 -80l185 185q6 6 13 6t13 -6l64 -63q5 -5 5 -13t-5 -13l-186 -185l81 -81q10 -10 10 -25q0 -14 -10.5 -25t-24.5 -11h-250zM451 439q0 8 5 13l186 185l-81 81q-10 10 -10 25q0 14 10.5 25t24.5 11h250
q14 0 25 -11t11 -25v-250q0 -14 -11 -25t-25 -11t-25 11l-80 80l-185 -185q-6 -6 -13 -6t-13 6l-64 63q-5 5 -5 13z" />
    <glyph glyph-name="uniE746" unicode="&#xe746;" horiz-adv-x="873" 
d="M436 64q0 -14 -10.5 -24.5t-24.5 -10.5q-16 0 -26 10l-80 81l-185 -186q-5 -5 -13 -5t-13 5l-63 64q-6 6 -6 13t6 13l185 185l-81 80q-10 10 -10 25q0 14 11 25t25 11h250q14 0 24.5 -11t10.5 -25v-250zM436 386v250q0 14 11 24.5t25 10.5q15 0 25 -10l81 -81l185 186
q5 5 13 5q7 0 12 -5l64 -64q6 -6 6 -13t-6 -13l-185 -185l80 -80q11 -11 11 -25t-11 -25t-25 -11h-250q-14 0 -25 11t-11 25z" />
    <glyph glyph-name="uniE750" unicode="&#xe750;" horiz-adv-x="959" 
d="M944 -79q0 -29 -21.5 -50t-50.5 -21q-30 0 -50 21l-191 191q-101 -69 -223 -69q-83 0 -155 32t-123 83t-83 123t-32 155t32 155t83 123t123 83t155 32t155 -32t123 -83t83 -123t32 -155q0 -122 -69 -223l191 -191q21 -21 21 -51zM231 209q73 -73 177 -73q103 0 176 73
q74 74 74 177q0 102 -74 176t-176 74q-103 0 -177 -74q-73 -73 -73 -176q0 -104 73 -177zM229 368v36q0 17 18 17h125v125q0 8 5 13t13 5h36q8 0 13 -5t5 -13v-125h125q17 0 17 -17v-36q0 -18 -17 -18h-125v-125q0 -7 -5 -12.5t-13 -5.5h-36q-8 0 -13 5.5t-5 12.5v125h-125
q-7 0 -12.5 5t-5.5 13z" />
    <glyph glyph-name="uniE751" unicode="&#xe751;" horiz-adv-x="959" 
d="M944 -79q0 -29 -21.5 -50t-50.5 -21q-30 0 -50 21l-191 191q-101 -69 -223 -69q-83 0 -155 32t-123 83t-83 123t-32 155t32 155t83 123t123 83t155 32t155 -32t123 -83t83 -123t32 -155q0 -122 -69 -223l191 -191q21 -21 21 -51zM231 209q73 -73 177 -73q103 0 176 73
q74 74 74 177q0 102 -74 176t-176 74q-103 0 -177 -74q-73 -73 -73 -176q0 -104 73 -177zM229 368v36q0 17 18 17h322q17 0 17 -17v-36q0 -18 -17 -18h-322q-7 0 -12.5 5t-5.5 13z" />
    <glyph glyph-name="uniE758" unicode="&#xe758;" horiz-adv-x="887" 
d="M15 350q0 123 60 219.5t153 151.5q101 58 216 58q123 0 219.5 -60t151.5 -154q57 -99 57 -215q0 -123 -60 -219.5t-153 -151.5q-101 -58 -215 -58q-123 0 -220 60t-152 154q-57 99 -57 215zM158 350q0 -118 84 -202t202 -84t202 84q83 83 83 202t-83 202q-84 84 -202 84
t-202 -84t-84 -202zM247 332q0 8 5.5 13t12.5 5h107v196q0 8 5 13t13 5h107q7 0 12.5 -5t5.5 -13v-196h107q8 0 13 -5t5 -13q0 -7 -6 -13l-178 -178q-5 -5 -12 -5q-8 0 -13 5l-179 178q-5 5 -5 13z" />
    <glyph glyph-name="uniE75B" unicode="&#xe75b;" horiz-adv-x="887" 
d="M15 350q0 123 60 219.5t153 151.5q101 58 216 58q123 0 219.5 -60t151.5 -154q57 -99 57 -215q0 -123 -60 -219.5t-153 -151.5q-101 -58 -215 -58q-123 0 -220 60t-152 154q-57 99 -57 215zM158 350q0 -118 84 -202t202 -84t202 84q83 83 83 202t-83 202q-84 84 -202 84
t-202 -84t-84 -202zM247 368q0 7 6 13l178 178q5 5 13 5q7 0 12 -5l179 -178q5 -5 5 -13t-5 -13t-13 -5h-107v-196q0 -8 -5.5 -13t-12.5 -5h-107q-8 0 -13 5t-5 13v196h-107q-7 0 -12.5 5t-5.5 13z" />
    <glyph glyph-name="uniE75C" unicode="&#xe75c;" horiz-adv-x="899" 
d="M15 457q0 30 21 51l42 42q21 20 50 20q31 0 51 -20l271 -271l271 271q20 20 50 20t51 -20l42 -42q20 -21 20 -51t-20 -50l-364 -363q-22 -22 -50 -22q-31 0 -51 22l-363 363q-21 19 -21 50z" />
    <glyph glyph-name="uniE75D" unicode="&#xe75d;" horiz-adv-x="578" 
d="M15 386q0 29 21 50l363 364q20 20 51 20q30 0 50 -20l42 -42q21 -21 21 -51q0 -29 -21 -50l-271 -271l271 -271q21 -21 21 -51q0 -29 -21 -50l-42 -42q-20 -20 -50 -20q-31 0 -51 20l-363 363q-21 21 -21 51z" />
    <glyph glyph-name="uniE75E" unicode="&#xe75e;" horiz-adv-x="578" 
d="M15 64q0 30 21 51l271 271l-271 270q-21 22 -21 51t21 50l42 42q19 21 50 21q32 0 51 -21l363 -363q21 -21 21 -50q0 -28 -21 -51l-363 -363q-21 -21 -51 -21q-29 0 -50 21l-42 42q-21 22 -21 50z" />
    <glyph glyph-name="uniE75F" unicode="&#xe75f;" horiz-adv-x="899" 
d="M15 171q0 30 21 51l363 363q21 21 51 21q28 0 50 -21l363 -363q21 -21 21 -51t-20 -50l-42 -42q-21 -21 -51 -21q-31 0 -50 21l-271 271l-271 -271q-19 -21 -51 -21q-30 0 -50 21l-42 42q-21 19 -21 50z" />
    <glyph glyph-name="uniE760" unicode="&#xe760;" horiz-adv-x="887" 
d="M51 -43q-14 0 -25 11t-11 25v250q0 14 11 25t25 11h250q14 0 24.5 -11t10.5 -25q0 -15 -10 -25l-77 -77q82 -77 195 -77q80 0 143.5 38t99.5 98q1 2 29 66q4 13 17 13h107q8 0 13 -5.5t5 -12.5v-4q-36 -150 -150 -243t-267 -93q-169 0 -293 119l-72 -72q-11 -11 -25 -11z
M25 439v4q36 149 151 243q114 93 268 93q169 0 295 -119l72 72q11 11 25 11t25 -11t11 -25v-250q0 -14 -11 -25t-25 -11h-250q-14 0 -24.5 11t-10.5 25q0 15 10 25l77 77q-83 77 -194 77q-80 0 -144 -38.5t-100 -97.5q-1 -2 -29 -66q-4 -13 -17 -13h-111q-7 0 -12.5 5.5
t-5.5 12.5z" />
    <glyph glyph-name="uniE761" unicode="&#xe761;" horiz-adv-x="887" 
d="M15 350q0 123 60 219.5t153 151.5q101 58 216 58q123 0 219.5 -60t151.5 -154q57 -99 57 -215q0 -123 -60 -219.5t-153 -151.5q-101 -58 -215 -58q-123 0 -220 60t-152 154q-57 99 -57 215zM158 350q0 -118 84 -202t202 -84t202 84q83 83 83 202t-83 202q-84 84 -202 84
t-202 -84t-84 -202zM301 189v322q0 19 17 30.5t36 0.5l285 -161q19 -11 19 -31t-19 -31l-285 -161q-7 -4 -18 -4q-15 0 -25 10t-10 25z" />
    <glyph glyph-name="uniE762" unicode="&#xe762;" 
d="M15 -61v822q0 15 7.5 17.5t17.5 -7.5l396 -396q6 -6 8 -10v396q0 15 7.5 17.5t17.5 -7.5l396 -396q4 -4 7 -10v378q0 14 11 25t25 11h71q14 0 25 -11t11 -25v-786q0 -14 -11 -25t-25 -11h-71q-14 0 -25 11t-11 25v378q-3 -6 -7 -10l-396 -396q-10 -10 -17.5 -7.5
t-7.5 17.5v396q-2 -4 -8 -10l-396 -396q-10 -10 -17.5 -7.5t-7.5 17.5z" />
    <glyph glyph-name="uniE763" unicode="&#xe763;" 
d="M15 -43v786q0 14 11 25t25 11h71q14 0 25 -11t11 -25v-378q1 4 7 10l396 396q10 10 17.5 7.5t7.5 -17.5v-396q1 3 8 10l396 396q10 10 17.5 7.5t7.5 -17.5v-822q0 -15 -7.5 -17.5t-17.5 7.5l-396 396q-7 7 -8 10v-396q0 -15 -7.5 -17.5t-17.5 7.5l-396 396q-6 6 -7 10
v-378q0 -14 -11 -25t-25 -11h-71q-14 0 -25 11t-11 25z" />
    <glyph glyph-name="uniE777" unicode="&#xe777;" horiz-adv-x="887" 
d="M51 -7q-14 0 -25 11t-11 25v269q0 32 14 68l133 308q5 13 19 23t30 10h465q16 0 30 -10t19 -23l133 -308q14 -36 14 -68v-269q0 -14 -11 -25t-25 -11h-785zM125 314h176l53 -107h179l53 107h176q0 1 -1 4.5t-2 4.5l-118 277h-395l-118 -277q0 -1 -1 -5t-2 -4z" />
    <glyph glyph-name="uniE779" unicode="&#xe779;" horiz-adv-x="959" 
d="M943 -79q-30 0 -104.5 4.5t-108.5 4.5q-54 0 -75 -1l-112 -6l-32 -1q0 20 2 44l73 15q36 8 41 15q4 5 4 13q0 9 -3 18l-78 191l-251 1q-14 -31 -58 -153q-13 -35 -13 -47q0 -17 10 -24q15 -12 57 -18q8 0 26 -3.5t21 -3.5q0 -5 0.5 -15.5t0.5 -16.5q0 -7 -2 -15
q-29 0 -194 11l-27 -5q-48 -8 -93 -8h-12l1 45q9 4 45 10q48 8 59 15t29 40l288 748h72l70 -161l50 -119l65 -157l58 -140q8 -18 33 -81t40 -94q12 -27 19 -31q13 -11 39 -13q25 -3 57 -15q4 -30 4 -32q0 -3 -0.5 -8t-0.5 -7zM325 287q110 -2 181 -2l16 1q-44 133 -102 252z
" />
    <glyph glyph-name="uniE77A" unicode="&#xe77a;" horiz-adv-x="816" 
d="M414 779q3 0 16.5 -0.5t18.5 -0.5h41q49 0 106 -15q70 -21 114.5 -68t44.5 -122q0 -77 -71 -130q-19 -13 -84 -43q99 -22 149 -82q52 -60 52 -132q0 -74 -38 -130.5t-96 -84.5q-92 -44 -224 -40l-110 3q-46 1 -166 -6q-38 -3 -152 -7l1 53q94 19 107 24q10 16 11 28
q5 42 5 109l-1 277q-1 44 -2.5 120t-2.5 105q-1 52 -7 62q-8 12 -44 14q-7 1 -64 8l-2 46l145 3l212 7l25 1q2 0 8 0.5t8 0.5zM378 414q99 0 148 36.5t49 124.5q0 62 -48 104q-47 42 -142 42q-32 0 -73 -7q0 -19 2 -43q3 -45 3 -156l-1 -55q0 -8 0.5 -22t0.5 -20
q21 -4 61 -4zM316 176l2 -150q0 -6 7 -25q42 -18 78 -18q210 0 210 187q0 63 -23 101q-33 53 -78 70.5t-139 17.5q-41 0 -56 -6v-80z" />
    <glyph glyph-name="uniE77B" unicode="&#xe77b;" horiz-adv-x="601" 
d="M15 -77l9 47q1 0 43 11q38 10 65 22q17 22 23 56q14 77 46 227l7 36q15 84 30 128l2 6l17 88l9 35q7 38 16 103v21q-25 13 -80 16q-4 0 -8.5 0.5t-7.5 1t-5 0.5l10 58l177 -8q15 -1 41 -1q45 0 157 7l20 2q-3 -28 -10 -50q-15 -5 -57.5 -16.5t-59.5 -18.5
q-15 -38 -21 -95l-14 -65q-9 -37 -14 -62t-9 -43l-34 -174l-21 -88l-24 -131l-7 -25q-1 -2 1 -15q5 -1 103 -18q-1 -8 -9 -55q-7 0 -18.5 -1t-17.5 -1q-2 0 -16 2q-38 5 -81 10l-110 1q-3 0 -152 -11z" />
    <glyph glyph-name="uniE77C" unicode="&#xe77c;" horiz-adv-x="1028" 
d="M601 690q-12 0 -59 -0.5t-60 -0.5q-20 0 -38 -3q-6 -51 -4 -75v-85v-185l2 -201l-1 -82q0 -24 6 -47q27 -13 50 -18q1 0 10 -3q7 -2 24.5 -6.5t31 -9t21.5 -8.5q2 -17 2 -28q0 -9 -1 -16q-2 0 -8.5 -0.5t-10.5 -0.5q-62 0 -105 6q-36 4 -132 4q-54 0 -130 -7
q-9 0 -22 -1.5t-17 -1.5q0 3 -0.5 5.5t-1 4.5t-0.5 3v2v14v5q13 20 44 28q76 20 89 28q5 12 6 31q5 125 4 242l-3 238v124q0 5 0.5 13.5t0.5 12t-1 8.5t-4 6.5t-8 2.5q-28 4 -83 4q-19 0 -52.5 -7.5t-43.5 -14.5q-9 -5 -13 -18q-4 -10 -13.5 -46t-11.5 -43q-3 -8 -10 -16.5
t-13 -8.5q-25 15 -31 25v213l45 1l30 -15q11 -3 118 -3h73l10 2h64h120h164l19 -1q15 -1 31 17l24 1q3 0 8 -0.5t7 -0.5v-58q1 -25 1 -74v-55v-33q0 -7 -3 -28q-21 -9 -37 -10q-27 46 -39 106q-6 30 -7 36q-3 20 -10 24t-32 4zM804 54q4 10 24 10h44v572h-44q-19 0 -24 10.5
t6 24.5l71 90q11 15 27 15t27 -15l71 -90q11 -14 6 -24.5t-24 -10.5h-44v-572h44q19 0 24 -10.5t-6 -24.5l-71 -90q-11 -15 -27 -15t-27 15l-71 90q-10 15 -6 25z" />
    <glyph glyph-name="uniE77D" unicode="&#xe77d;" horiz-adv-x="887" 
d="M735 690q-15 0 -75 -0.5t-74 -0.5q-52 0 -70 -3q-6 -56 -5 -75q1 -43 1 -128.5t1 -128.5v-82q0 -25 6 -47q27 -13 50 -18q1 0 10 -3q72 -22 76 -24q3 -26 3 -28t-2 -16h-19q-68 0 -104 5q-45 5 -133 5q-52 0 -130 -7q-26 -3 -39 -3q-1 8 -1 14l-1 15v5q12 18 44 27
q76 20 89 28q6 15 7 31q3 76 3 242l-3 24q0 151 -1 156q-1 10 -11 11q-28 4 -83 4q-20 0 -90 -8.5t-77 -13.5q-9 -5 -13 -18q-4 -10 -13.5 -46t-11.5 -43q-3 -8 -10 -16.5t-13 -8.5q-25 15 -31 25v213l45 1l30 -15q11 -3 118 -3h73l10 2h64h249h178l19 -1q15 -1 31 17l23 1
q3 0 8.5 -0.5t7.5 -0.5v-58q1 -25 1 -74v-55v-33q0 -7 -3 -28q-21 -8 -38 -10q-25 43 -38 106q-6 30 -7 36q-3 22 -10.5 25t-40.5 3zM18 29q0 17 14 27l91 70q14 11 24.5 6.5t10.5 -23.5v-45h571v45q0 19 10.5 23.5t24.5 -6.5l91 -70q14 -10 14 -27q0 -18 -14 -28l-91 -70
q-14 -11 -24.5 -6.5t-10.5 23.5v45h-571v-45q0 -19 -10.5 -23.5t-24.5 6.5l-91 70q-14 10 -14 28z" />
    <glyph glyph-name="uniE77E" unicode="&#xe77e;" 
d="M51 -7q-14 0 -25 11t-11 25v71q0 14 11 25t25 11h928q14 0 25 -11t11 -25v-71q0 -14 -11 -25t-25 -11h-928zM51 207q-14 0 -25 11t-11 25v71q0 14 11 25t25 11h714q14 0 25 -11t11 -25v-71q0 -14 -11 -25t-25 -11h-714zM51 421q-14 0 -25 11t-11 25v72q0 14 11 24.5
t25 10.5h857q14 0 25 -10.5t11 -24.5v-72q0 -14 -11 -25t-25 -11h-857zM15 671v72q0 14 11 25t25 11h643q14 0 24.5 -11t10.5 -25v-72q0 -14 -10.5 -24.5t-24.5 -10.5h-643q-14 0 -25 10.5t-11 24.5z" />
    <glyph glyph-name="uniE77F" unicode="&#xe77f;" 
d="M51 -7q-14 0 -25 11t-11 25v71q0 14 11 25t25 11h928q14 0 25 -11t11 -25v-71q0 -14 -11 -25t-25 -11h-928zM122 421q-14 0 -25 11t-11 25v72q0 14 11 24.5t25 10.5h786q14 0 25 -10.5t11 -24.5v-72q0 -14 -11 -25t-25 -11h-786zM265 207q-14 0 -25 11t-11 25v71
q0 14 11 25t25 11h500q14 0 25 -11t11 -25v-71q0 -14 -11 -25t-25 -11h-500zM301 671v72q0 14 10.5 25t24.5 11h358q14 0 24.5 -11t10.5 -25v-72q0 -14 -10.5 -24.5t-24.5 -10.5h-358q-14 0 -24.5 10.5t-10.5 24.5z" />
    <glyph glyph-name="uniE780" unicode="&#xe780;" 
d="M51 -7q-14 0 -25 11t-11 25v71q0 14 11 25t25 11h928q14 0 25 -11t11 -25v-71q0 -14 -11 -25t-25 -11h-928zM122 421q-14 0 -25 11t-11 25v72q0 14 11 24.5t25 10.5h857q14 0 25 -10.5t11 -24.5v-72q0 -14 -11 -25t-25 -11h-857zM265 207q-14 0 -25 11t-11 25v71
q0 14 11 25t25 11h714q14 0 25 -11t11 -25v-71q0 -14 -11 -25t-25 -11h-714zM301 671v72q0 14 10.5 25t24.5 11h643q14 0 25 -11t11 -25v-72q0 -14 -11 -24.5t-25 -10.5h-643q-14 0 -24.5 10.5t-10.5 24.5z" />
    <glyph glyph-name="uniE781" unicode="&#xe781;" 
d="M51 -7q-14 0 -25 11t-11 25v71q0 14 11 25t25 11h928q14 0 25 -11t11 -25v-71q0 -14 -11 -25t-25 -11h-928zM51 207q-14 0 -25 11t-11 25v71q0 14 11 25t25 11h928q14 0 25 -11t11 -25v-71q0 -14 -11 -25t-25 -11h-928zM51 421q-14 0 -25 11t-11 25v72q0 14 11 24.5
t25 10.5h928q14 0 25 -10.5t11 -24.5v-72q0 -14 -11 -25t-25 -11h-928zM15 671v72q0 14 11 25t25 11h928q14 0 25 -11t11 -25v-72q0 -14 -11 -24.5t-25 -10.5h-928q-14 0 -25 10.5t-11 24.5z" />
    <glyph glyph-name="uniE782" unicode="&#xe782;" 
d="M33 -7q-7 0 -12.5 5.5t-5.5 12.5v107q0 8 5.5 13t12.5 5h107q8 0 13 -5t5 -13v-107q0 -7 -5 -12.5t-13 -5.5h-107zM33 207q-7 0 -12.5 5.5t-5.5 12.5v107q0 8 5.5 13t12.5 5h107q8 0 13 -5t5 -13v-107q0 -7 -5 -12.5t-13 -5.5h-107zM33 421q-7 0 -12.5 5.5t-5.5 12.5v107
q0 8 5.5 13t12.5 5h107q8 0 13 -5t5 -13v-107q0 -7 -5 -12.5t-13 -5.5h-107zM33 636q-7 0 -12.5 5t-5.5 13v107q0 7 5.5 12.5t12.5 5.5h107q8 0 13 -5.5t5 -12.5v-107q0 -8 -5 -13t-13 -5h-107zM247 -7q-7 0 -12.5 5.5t-5.5 12.5v107q0 8 5.5 13t12.5 5h750q7 0 12.5 -5
t5.5 -13v-107q0 -7 -5.5 -12.5t-12.5 -5.5h-750zM247 207q-7 0 -12.5 5.5t-5.5 12.5v107q0 8 5.5 13t12.5 5h750q7 0 12.5 -5t5.5 -13v-107q0 -7 -5.5 -12.5t-12.5 -5.5h-750zM247 421q-7 0 -12.5 5.5t-5.5 12.5v107q0 8 5.5 13t12.5 5h750q7 0 12.5 -5t5.5 -13v-107
q0 -7 -5.5 -12.5t-12.5 -5.5h-750zM229 654v107q0 7 5.5 12.5t12.5 5.5h750q7 0 12.5 -5.5t5.5 -12.5v-107q0 -8 -5.5 -13t-12.5 -5h-750q-7 0 -12.5 5t-5.5 13z" />
    <glyph glyph-name="uniE783" unicode="&#xe783;" 
d="M33 -7q-7 0 -12.5 5.5t-5.5 12.5v107q0 8 5.5 13t12.5 5h964q7 0 12.5 -5t5.5 -13v-107q0 -7 -5.5 -12.5t-12.5 -5.5h-964zM33 636q-7 0 -12.5 5t-5.5 13v107q0 7 5.5 12.5t12.5 5.5h964q7 0 12.5 -5.5t5.5 -12.5v-107q0 -8 -5.5 -13t-12.5 -5h-964zM229 225
q0 -7 -5.5 -12.5t-12.5 -5.5t-12 5l-161 161q-5 5 -5 13t5 13l161 160q5 5 12 5t12.5 -5t5.5 -13v-321zM390 207q-8 0 -13 5.5t-5 12.5v107q0 8 5 13t13 5h607q7 0 12.5 -5t5.5 -13v-107q0 -7 -5.5 -12.5t-12.5 -5.5h-607zM372 439v107q0 8 5 13t13 5h607q7 0 12.5 -5
t5.5 -13v-107q0 -7 -5.5 -12.5t-12.5 -5.5h-607q-8 0 -13 5.5t-5 12.5z" />
    <glyph glyph-name="uniE784" unicode="&#xe784;" 
d="M33 -7q-7 0 -12.5 5.5t-5.5 12.5v107q0 8 5.5 13t12.5 5h964q7 0 12.5 -5t5.5 -13v-107q0 -7 -5.5 -12.5t-12.5 -5.5h-964zM33 207q-7 0 -12.5 5.5t-5.5 12.5v321q0 8 5.5 13t12.5 5q8 0 13 -5l160 -160q5 -5 5 -13t-5 -13l-160 -161q-5 -5 -13 -5zM33 636q-7 0 -12.5 5
t-5.5 13v107q0 7 5.5 12.5t12.5 5.5h964q7 0 12.5 -5.5t5.5 -12.5v-107q0 -8 -5.5 -13t-12.5 -5h-964zM390 207q-8 0 -13 5.5t-5 12.5v107q0 8 5 13t13 5h607q7 0 12.5 -5t5.5 -13v-107q0 -7 -5.5 -12.5t-12.5 -5.5h-607zM372 439v107q0 8 5 13t13 5h607q7 0 12.5 -5
t5.5 -13v-107q0 -7 -5.5 -12.5t-12.5 -5.5h-607q-8 0 -13 5.5t-5 12.5z" />
    <glyph glyph-name="uniE78E" unicode="&#xe78e;" horiz-adv-x="887" 
d="M15 350q0 109 47.5 197t123.5 145q28 17 55 13t45 -27.5t14 -52.5t-28 -47q-114 -87 -114 -228q0 -118 84 -202t202 -84t202 84q83 83 83 202q0 141 -114 228q-22 17 -27 46t13 54q16 23 45.5 27.5t54.5 -13.5q76 -58 123.5 -145.5t47.5 -196.5q0 -91 -35 -169.5
t-90 -133.5q-56 -56 -134.5 -91t-168.5 -35t-168.5 35t-134.5 91t-91 134.5t-35 168.5zM372 421v358q0 28 21.5 49.5t50.5 21.5q28 0 49.5 -21t21.5 -50v-358q0 -29 -21.5 -50t-49.5 -21q-29 0 -50.5 21.5t-21.5 49.5z" />
    <glyph glyph-name="uniE78F" unicode="&#xe78f;" horiz-adv-x="1046" 
d="M612 -7q7 0 12.5 5.5t4.5 12.5l-11 143q-2 17 -19 17h-152q-17 0 -19 -17l-11 -143q-1 -7 4.5 -12.5t12.5 -5.5h-393q-26 0 -26 41q0 30 15 64l232 583q4 10 14.5 18t21.5 8h189q-7 0 -12.5 -5.5t-6.5 -12.5l-8 -107q-1 -8 4 -13t12 -5h93q8 0 13 5.5t4 12.5l-8 107
q-1 7 -6.5 12.5t-12.5 5.5h189q24 0 35 -26l233 -583q15 -35 15 -64q0 -41 -26 -41h-393zM439 294q-1 -7 4 -11t12 -4h136q7 0 12 4t4 11v2l-13 179q-1 7 -6.5 12.5t-12.5 5.5h-104q-7 0 -12.5 -5.5t-6.5 -12.5l-13 -179v-2z" />
    <glyph glyph-name="uniE790" unicode="&#xe790;" 
d="M104 -7q-37 0 -63 26t-26 63v607q0 37 26 63.5t63 26.5h822q37 0 63 -26.5t26 -63.5v-607q0 -37 -26 -63t-63 -26h-822zM86 82q0 -8 5 -13t13 -5h822q8 0 13 5t5 13v464q0 8 -5 13t-13 5h-822q-8 0 -13 -5t-5 -13v-464zM176 136q-8 0 -13 5t-5 13v35q0 7 5 12.5t13 5.5
h35q7 0 12.5 -5.5t5.5 -12.5v-35q0 -8 -5.5 -13t-12.5 -5h-35zM176 279q-18 0 -18 17v36q0 8 5 13t13 5h35q7 0 12.5 -5t5.5 -13v-36q0 -17 -18 -17h-35zM176 421q-8 0 -13 5.5t-5 12.5v36q0 7 5 12.5t13 5.5h35q7 0 12.5 -5.5t5.5 -12.5v-36q0 -7 -5.5 -12.5t-12.5 -5.5
h-35zM319 136q-7 0 -12.5 5t-5.5 13v35q0 7 5.5 12.5t12.5 5.5h535q8 0 13 -5.5t5 -12.5v-35q0 -8 -5 -13t-13 -5h-535zM319 279q-18 0 -18 17v36q0 8 5.5 13t12.5 5h535q8 0 13 -5t5 -13v-36q0 -17 -18 -17h-535zM301 439v36q0 7 5.5 12.5t12.5 5.5h535q8 0 13 -5.5
t5 -12.5v-36q0 -7 -5 -12.5t-13 -5.5h-535q-7 0 -12.5 5.5t-5.5 12.5z" />
    <glyph glyph-name="uniE791" unicode="&#xe791;" horiz-adv-x="816" 
d="M15 350h357v-357h-357v357zM15 779h357v-358h-357v358zM301 65v214h-215v-214h215zM301 493v214h-215v-214h215zM158 207h71v-71h-71v71zM158 636h71v-72h-71v72zM444 350h214v-71h71v71h72v-214h-215v71h-71v-214h-71v357zM444 779h357v-358h-357v358zM729 493v214h-214
v-214h214zM586 64h72v-71h-72v71zM586 636h72v-72h-72v72zM729 -7v71h72v-71h-72z" />
    <glyph glyph-name="uniE792" unicode="&#xe792;" 
d="M15 779h143v-858h-143v858zM194 779h71v-858h-71v858zM301 779h35v-858h-35v858zM354 779h36v-858h-36v858zM444 779h71v-858h-71v858zM586 779h143v-858h-143v858zM765 779h36v-858h-36v858zM854 779h36v-858h-36v858zM944 -79v858h71v-858h-71z" />
    <glyph glyph-name="uniE793" unicode="&#xe793;" horiz-adv-x="887" 
d="M15 350q0 123 60 219.5t153 151.5q101 58 216 58q123 0 219.5 -60t151.5 -154q57 -99 57 -215q0 -123 -60 -219.5t-153 -151.5q-101 -58 -215 -58q-123 0 -220 60t-152 154q-57 99 -57 215zM158 350q0 -118 84 -202t202 -84v572q-118 0 -202 -84t-84 -202z" />
    <glyph glyph-name="uniE794" unicode="&#xe794;" horiz-adv-x="601" 
d="M60 432l42 62l49 73q27 42 58 104.5t44 107.5q5 15 18 25t30 10t30 -10t17 -25q13 -45 44 -107.5t58 -104.5q10 -16 47 -70t44 -65q45 -70 45 -153q0 -119 -83 -202q-84 -84 -202 -84t-202 84t-84 202q0 81 45 153zM158 207q0 -29 21 -50t50 -21t50.5 21t21.5 50
q0 10 -4 21.5t-7.5 17.5t-11.5 18l-11 15q-18 27 -26 53q-1 9 -12 9q-9 0 -11 -9q-9 -29 -40 -74q-20 -31 -20 -51z" />
    <glyph glyph-name="uniE7A1" unicode="&#xe7a1;" horiz-adv-x="887" 
d="M836 421q14 0 25 -10.5t11 -24.5v-72q0 -118 -57.5 -206t-150.5 -136q-98 -51 -220 -51q-126 0 -223.5 52t-150.5 139q-55 89 -55 202v72q0 14 11 24.5t25 10.5h214q14 0 25 -10.5t11 -24.5v-72q0 -54 40.5 -80.5t102.5 -26.5q93 0 129 57q13 20 13 50v72q0 14 11 24.5
t25 10.5h214zM51 493q-14 0 -25 11t-11 25v214q0 14 11 25t25 11h214q14 0 25 -11t11 -25v-214q0 -14 -11 -25t-25 -11h-214zM586 529v214q0 14 11 25t25 11h214q14 0 25 -11t11 -25v-214q0 -14 -11 -25t-25 -11h-214q-14 0 -25 11t-11 25z" />
    <glyph glyph-name="uniE800" unicode="&#xe800;" horiz-adv-x="816" 
d="M15 332v107q0 23 15.5 38.5t38.5 15.5h232v232q0 23 15.5 38.5t37.5 15.5h107q23 0 38.5 -15.5t15.5 -38.5v-232h232q23 0 38.5 -15.5t15.5 -38.5v-107q0 -22 -15.5 -37.5t-38.5 -15.5h-232v-233q0 -22 -15.5 -37.5t-38.5 -15.5h-107q-22 0 -37.5 15.5t-15.5 37.5v233
h-232q-23 0 -38.5 15.5t-15.5 37.5z" />
    <glyph glyph-name="uniE801" unicode="&#xe801;" horiz-adv-x="816" 
d="M15 332v107q0 23 15.5 38.5t38.5 15.5h678q23 0 38.5 -15.5t15.5 -38.5v-107q0 -22 -15.5 -37.5t-38.5 -15.5h-678q-23 0 -38.5 15.5t-15.5 37.5z" />
    <glyph glyph-name="uniE802" unicode="&#xe802;" 
d="M15 318q0 13 9 21.5t22 8.5h250q14 0 23 -8.5t9 -21.5t-9.5 -22.5t-22.5 -9.5h-250q-13 0 -22 9.5t-9 22.5zM15 443q0 13 9 21.5t22 8.5h125q13 0 22 -8.5t9 -21.5t-9 -22.5t-22 -9.5h-125q-13 0 -22 9.5t-9 22.5zM78 568q0 13 9 21.5t22 8.5h125q13 0 22 -8.5t9 -21.5
t-9 -22.5t-22 -9.5h-125q-13 0 -22 9.5t-9 22.5zM1015 518q0 -82 -56.5 -138.5t-138.5 -56.5q-14 0 -34 2q-63 -39 -135 -39q-73 0 -136 39q-20 -2 -35 -2q-81 0 -137 56q-57 57 -57 139q0 78 55 134t131 59q74 77 179 77q104 0 178 -77q76 -3 131 -59t55 -134zM515 38
q-26 0 -44.5 18.5t-18.5 43.5q0 35 63 125l16 -23q17 -26 31 -55q16 -34 16 -47q0 -25 -18.5 -43.5t-44.5 -18.5zM702 -25q0 35 63 125l16 -23q17 -26 31 -55q16 -34 16 -47q0 -25 -19 -44t-44 -19t-44 19t-19 44z" />
    <glyph glyph-name="uniE803" unicode="&#xe803;" 
d="M515 850q80 0 145 -35t105 -92q18 2 31 2q91 0 155 -64t64 -155q0 -90 -64 -154t-155 -64q-43 0 -78 13q-88 -76 -203 -76t-203 76q-35 -13 -78 -13q-91 0 -155 64t-64 154q0 91 64 155t155 64q13 0 31 -2q40 57 105 92t145 35zM515 -150q-14 0 -24.5 10t-10.5 25v41
q-18 7 -31 18l-36 -20q-21 -11 -39 1.5t-11 36.5q5 16 15 21l35 21q-3 18 0 37l-35 20q-27 19 -12 48q6 12 19 16t28 -4l36 -21q15 14 31 20v41q0 13 11 24t24 11t24 -11t11 -24v-41q16 -6 31 -20l36 21q21 11 39 -2t11 -37q-5 -15 -15 -21l-35 -20q3 -19 0 -37l35 -21
q10 -6 14.5 -19.5t-2.5 -27.5q-16 -27 -47 -12l-36 20q-13 -11 -31 -18v-41q0 -15 -10.5 -25t-24.5 -10zM480 23q0 -14 10.5 -24t24.5 -10t24.5 10.5t10.5 23.5q0 14 -10.5 24t-24.5 10t-24.5 -10t-10.5 -24z" />
    <glyph glyph-name="uniE804" unicode="&#xe804;" 
d="M515 850q80 0 145 -35t105 -92q18 2 31 2q91 0 155 -64t64 -155q0 -90 -64 -154t-155 -64q-43 0 -78 13q-88 -76 -203 -76t-203 76q-35 -13 -78 -13q-91 0 -155 64t-64 154q0 91 64 155t155 64q13 0 31 -2q40 57 105 92t145 35zM208 190q10 -6 16 -16l23 8q20 3 26 -16
t-16 -25l-23 -6q0 -11 -6 -21l17 -18q16 -14 1 -28q-15 -15 -30 -1l-15 17q-3 -1 -10.5 -2.5t-11.5 -2.5l-8 -24q-5 -21 -24 -15q-21 5 -15 27l6 23q-6 2 -16 16l-23 -8q-20 -3 -24 16t14 25l24 6q0 11 6 21l-18 18q-14 14 0 28t29 1l18 -17q9 3 21 6l6 23q6 20 26 14
q19 -6 13 -26zM159 125q9 -9 20.5 -5t14 13.5t-6.5 19.5q-14 16 -28 1q-15 -15 0 -29zM515 -150q-14 0 -24.5 10t-10.5 25v41q-18 7 -31 18l-36 -20q-21 -11 -39 1.5t-11 36.5q5 16 15 21l35 21q-3 18 0 37l-35 20q-27 19 -12 48q6 12 19 16t28 -4l36 -21q15 14 31 20v41
q0 13 11 24t24 11t24 -11t11 -24v-41q16 -6 31 -20l36 21q21 11 39 -2t11 -37q-5 -15 -15 -21l-35 -20q3 -19 0 -37l35 -21q10 -6 14.5 -19.5t-2.5 -27.5q-16 -27 -47 -12l-36 20q-13 -11 -31 -18v-41q0 -15 -10.5 -25t-24.5 -10zM480 23q0 -14 10.5 -24t24.5 -10t24.5 10.5
t10.5 23.5q0 14 -10.5 24t-24.5 10t-24.5 -10t-10.5 -24zM806 112q5 9 16 15l-6 24q-6 19 13 25q20 6 26 -14l6 -23q12 -3 21 -6l18 18q15 13 29 -1.5t0 -28.5l-18 -17q6 -10 6 -22l24 -5q19 -6 14 -26q-4 -18 -24 -15l-23 7q-9 -12 -16 -15l6 -24q6 -21 -15 -26
q-19 -6 -24 15l-8 23q-16 4 -22 6l-15 -18q-15 -14 -30 1q-16 14 1 29l17 17q-6 9 -6 22l-23 6q-22 6 -16 25q6 20 26 14zM842 63q9 -9 20.5 -5.5t14 13t-6.5 19.5q-14 16 -28 1q-15 -15 0 -28z" />
    <glyph glyph-name="uniE805" unicode="&#xe805;" 
d="M515 850q80 0 145 -35t105 -92q18 2 31 2q91 0 155 -64t64 -155q0 -90 -64 -154t-155 -64q-43 0 -78 13q-88 -76 -203 -76t-203 76q-35 -13 -78 -13q-91 0 -155 64t-64 154q0 91 64 155t155 64q13 0 31 -2q40 57 105 92t145 35zM140 162q0 26 18.5 44.5t43.5 18.5
q24 0 43.5 -19.5t19.5 -43.5q0 -25 -18.5 -43.5t-44.5 -18.5t-44 18t-18 44zM265 -88q0 26 18.5 44.5t44.5 18.5q24 0 43 -19.5t19 -43.5q0 -26 -18 -44t-44 -18t-44.5 18.5t-18.5 43.5zM452 100q0 25 18.5 43.5t44.5 18.5q24 0 43.5 -19t19.5 -43q0 -25 -18.5 -43.5
t-44.5 -18.5t-44.5 18.5t-18.5 43.5zM640 -88q0 26 18.5 44.5t43.5 18.5q24 0 43.5 -19.5t19.5 -43.5q0 -25 -18.5 -43.5t-44.5 -18.5t-44 18t-18 44zM765 162q0 26 18.5 44.5t44.5 18.5q24 0 42 -20q20 -18 20 -43q0 -26 -18 -44t-44 -18t-44.5 18.5t-18.5 43.5z" />
    <glyph glyph-name="uniE806" unicode="&#xe806;" 
d="M15 234q0 91 64 155q65 65 155 65q16 0 31 -4l1 2q1 2 1 3q-2 20 -2 30q0 69 51 122q51 52 123 52q5 0 13 -2q71 89 188 89t188 -89q8 2 13 2q72 0 123 -52t51 -122q0 -67 -47 -117q47 -61 47 -133q0 -93 -64 -156q-65 -63 -155 -63q-41 0 -78 14q-88 -76 -203 -76
t-203 76q-37 -14 -78 -14q-91 0 -155 63t-64 155z" />
    <glyph glyph-name="uniE807" unicode="&#xe807;" 
d="M15 336q0 91 64 155t155 64q13 0 31 -2q1 4 4 4q-4 16 -4 29q0 72 51 123t123 51h13q72 90 188 90t188 -90h13q72 0 123 -51t51 -123q0 -65 -47 -117q47 -59 47 -133q0 -90 -64 -154t-155 -64q-43 0 -78 13q-80 -71 -193 -74l-10 -19l63 -63l-188 -125l62 125l-62 63
l45 29q-73 20 -123 64q-35 -13 -78 -13q-91 0 -155 64t-64 154z" />
    <glyph glyph-name="uniE808" unicode="&#xe808;" horiz-adv-x="280" 
d="M15 38q0 73 63 107v574q0 28 18 48.5t44 20.5t44 -20.5t18 -48.5v-574q63 -34 63 -107q0 -51 -37.5 -88.5t-88.5 -37.5t-87.5 37.5t-36.5 88.5z" />
    <glyph glyph-name="uniE809" unicode="&#xe809;" horiz-adv-x="476" 
d="M21 424q-14 31 1 60.5t40 37.5q32 14 61.5 -1t40.5 -40q6 -12 6 -27q0 -49 -48 -69q-33 -13 -61.5 0.5t-39.5 38.5zM58 454q0 -14 10.5 -24t24.5 -10t24 10t10 24t-10 23.5t-24 9.5t-24.5 -9.5t-10.5 -23.5zM224 284v128q0 52 40 82t91 30q70 0 106 -33l-33 -53
q-26 23 -71 23q-29 0 -46.5 -16.5t-17.5 -45.5v-100q0 -29 17.5 -45.5t46.5 -16.5q41 0 73 23l31 -53q-44 -35 -104 -35q-53 0 -93 31.5t-40 80.5z" />
    <glyph glyph-name="uniE80A" unicode="&#xe80a;" horiz-adv-x="479" 
d="M21 423q-12 32 1 60t41 37q33 13 61 -0.5t39 -38.5q14 -32 -1 -60t-40 -38q-14 -6 -30 -6q-49 0 -71 46zM58 452q0 -14 10 -24t24 -10t24 10t10 24t-10 23.5t-24 9.5t-24 -9.5t-10 -23.5zM226 174v346h238v-63h-170v-80h145v-62h-145v-141h-68z" />
    <glyph glyph-name="uniE80B" unicode="&#xe80b;" 
d="M78 336q0 -64 46 -110t110 -46q51 0 90 29q22 -27 50 -45l-56 -37l-6 4q-35 -13 -78 -13q-91 0 -155 64t-64 154q0 91 64 155t155 64q13 0 31 -2q1 4 4 4q-4 16 -4 29q0 72 51 123t123 51h13q72 90 188 90t188 -90h13q72 0 123 -51t51 -123q0 -65 -47 -117
q47 -59 47 -133q0 -90 -64 -154t-155 -64q-40 0 -78 15q-39 -35 -92 -56l-35 35l12 23q62 25 103 74q39 -29 90 -29q64 0 110 46t46 110t-45.5 110.5t-110.5 46.5l-25 -2q-14 -2 -33 -10q-32 60 -89.5 98.5t-133.5 38.5q-104 0 -178 -77q-27 -27 -41 -54q-2 -4 -4 -6
q-27 12 -58 12q-64 0 -110 -46.5t-46 -110.5zM640 788q-54 0 -96 -28t-62 -70q-22 8 -43 8q-38 0 -66 -22t-40 -55q83 59 182 59q80 0 145 -35t105 -92q18 2 31 2q70 0 129 -41q27 32 27 72q0 47 -32.5 79.5t-78.5 32.5q-21 0 -43 -8q-20 42 -62 70t-96 28zM390 -150l62 188
l-62 62l188 125l-63 -125l63 -62z" />
    <glyph glyph-name="uniE80C" unicode="&#xe80c;" horiz-adv-x="842" 
d="M15 350q0 14 8.5 22.5t22.5 8.5h63q13 0 22 -8.5t9 -22.5t-9 -22.5t-22 -8.5h-63q-14 0 -22.5 8.5t-8.5 22.5zM134 108l45 43q21 21 43 0t0 -43l-43 -45q-24 -21 -45 0t0 45zM134 592q-21 24 0 45t45 0l43 -45q22 -22 0 -43t-43 0zM267 504q65 65 154 65q90 0 155 -65
q64 -64 64 -154t-64 -154q-65 -65 -155 -65q-89 0 -154 65t-65 154t65 154zM421 -56q-13 0 -22 9t-9 22v63q0 14 9 22.5t22 8.5t22 -8.5t9 -22.5v-63q0 -13 -9 -22t-22 -9zM421 631q-13 0 -22 8.5t-9 22.5v63q0 13 9 22t22 9t22 -9t9 -22v-63q0 -14 -9 -22.5t-22 -8.5z
M663 151l45 -43q21 -24 0 -45t-45 0l-43 45q-24 21 -1 43q23 21 44 0zM620 592l43 45q24 21 45 0t0 -45l-45 -43q-21 -21 -44 0q-23 22 1 43zM702 350q0 13 9 22t23 9h62q14 0 23 -9t9 -22t-9 -22t-23 -9h-62q-14 0 -23 9t-9 22z" />
    <glyph glyph-name="uniE80D" unicode="&#xe80d;" horiz-adv-x="456" 
d="M15 357q0 91 64 155q36 33 82 51q-21 -73 -5.5 -130.5t56.5 -98.5t99 -56t130 6q-18 -46 -51 -82q-65 -65 -155 -65q-91 0 -156 65q-64 64 -64 155z" />
    <glyph glyph-name="uniE80E" unicode="&#xe80e;" 
d="M77 283q61 63 149 67q-24 45 -24 94q0 89 65 154q64 64 154 64q91 0 154 -62q62 -61 65 -152q76 -34 125 -100q18 2 31 2q91 0 155 -64t64 -155q0 -90 -64 -154q-65 -65 -155 -65q-41 0 -78 14q-88 -76 -203 -76t-203 76q-37 -14 -78 -14q-90 0 -155 65q-64 64 -64 154
q0 88 62 152zM15 444q0 14 8.5 22.5t22.5 8.5h63q13 0 22 -8.5t9 -22.5t-9 -23t-22 -9h-63q-13 0 -22 9t-9 23zM134 686q-21 24 0 45t45 0l43 -45q22 -22 0 -43t-43 0zM421 600q-64 0 -110 -46t-46 -110q0 -38 20 -73q92 104 230 104q28 0 61 -6q-9 55 -52.5 93t-102.5 38z
M421 725q-13 0 -22 8.5t-9 22.5v63q0 13 9 22t22 9t22 -9t9 -22v-63q0 -14 -9 -22.5t-22 -8.5zM620 686l43 45q24 21 45 0t0 -45l-45 -43q-21 -21 -43 0t0 43zM702 444q0 13 9 22t23 9h62q14 0 23 -9t9 -22q0 -14 -9 -23t-23 -9h-62q-14 0 -23 9t-9 23z" />
    <glyph glyph-name="uniE80F" unicode="&#xe80f;" 
d="M865 338q64 -20 107 -76.5t43 -130.5q0 -90 -64 -154q-65 -65 -155 -65q-41 0 -78 14q-88 -76 -203 -76t-203 76q-37 -14 -78 -14q-90 0 -155 65q-64 64 -64 154q0 91 64 155t155 64q13 0 31 -2q77 107 211 125q-20 69 0 133.5t62 106.5q39 39 94 59q19 7 33 -7t8 -32
q-32 -85 12 -156.5t121 -89.5q52 -12 105 8q18 6 32.5 -8.5t7.5 -32.5q-27 -75 -86 -116zM533 577q-12 -57 7 -104q135 -9 219 -117q66 15 104 64q-112 -6 -192 74q-79 79 -72 190q-51 -39 -66 -107z" />
    <glyph glyph-name="uniE810" unicode="&#xe810;" 
d="M15 319q0 90 64 154q65 65 155 65q13 0 31 -2q40 56 105 91t145 35t145 -35t105 -91q18 2 31 2q90 0 155 -65q64 -64 64 -154q0 -91 -64 -155t-155 -64q-41 0 -78 14q-88 -76 -203 -76t-203 76q-37 -14 -78 -14q-91 0 -155 64t-64 155z" />
    <glyph glyph-name="uniE811" unicode="&#xe811;" 
d="M15 506q0 91 64 155t155 64q13 0 31 -2q40 57 105 92t145 35t145 -35t105 -92q18 2 31 2q91 0 155 -64t64 -155q0 -90 -64 -154t-155 -64q-43 0 -78 13q-74 -65 -182 -74l-21 -65l63 -62l-188 -188l62 188l-62 62l68 69q-81 15 -146 70q-35 -13 -78 -13q-91 0 -155 64
t-64 154z" />
    <glyph glyph-name="uniE812" unicode="&#xe812;" 
d="M515 788q80 0 145 -35t105 -92q9 1 31 1q91 0 155 -64t64 -154q0 -91 -64 -155t-155 -64q-41 0 -78 14q-89 -77 -203 -77t-203 77q-37 -14 -78 -14q-91 0 -155 64t-64 155q0 90 64 154t155 64q22 0 31 -1q40 57 105 92t145 35zM452 -25q0 35 63 125l16 -23q17 -26 31 -55
q16 -34 16 -47q0 -25 -19 -44t-44 -19t-44 19t-19 44z" />
    <glyph glyph-name="uniE813" unicode="&#xe813;" 
d="M515 850q80 0 145 -35t105 -92q18 2 31 2q91 0 155 -64t64 -155q0 -90 -64 -154t-155 -64q-43 0 -78 13q-88 -76 -203 -76t-203 76q-35 -13 -78 -13q-91 0 -155 64t-64 154q0 91 64 155t155 64q13 0 31 -2q40 57 105 92t145 35zM265 38q-26 0 -44.5 18.5t-18.5 43.5
q0 35 63 125l16 -23q17 -26 31 -55q16 -34 16 -47q0 -25 -18.5 -43.5t-44.5 -18.5zM517 -150q-26 0 -44.5 18.5t-18.5 43.5q0 36 63 126l16 -24q17 -26 31 -55q15 -31 15 -47q0 -26 -18.5 -44t-43.5 -18zM702 -25q0 35 63 125l16 -23q17 -26 31 -55q16 -34 16 -47
q0 -25 -19 -44t-44 -19t-44 19t-19 44z" />
    <glyph glyph-name="uniE814" unicode="&#xe814;" 
d="M15 131q0 13 8.5 22t22.5 9h250q14 0 23 -9t9 -22t-9 -22t-23 -9h-250q-14 0 -22.5 9t-8.5 22zM15 256q0 14 9 23t22 9h125q13 0 22 -9t9 -23t-9 -22.5t-22 -8.5h-125q-14 0 -22.5 8.5t-8.5 22.5zM78 381q0 13 9 22t22 9h125q14 0 22.5 -9t8.5 -22t-8.5 -22t-22.5 -9
h-125q-13 0 -22 9t-9 22zM286 330q0 78 55 135.5t131 60.5q73 76 179 76q105 0 178 -76q76 -3 131 -60.5t55 -135.5q0 -79 -57 -136t-138 -57q-14 0 -34 2q-64 -41 -135 -41q-72 0 -136 41q-20 -2 -35 -2q-80 0 -137 57t-57 136z" />
    <glyph glyph-name="uniE815" unicode="&#xe815;" horiz-adv-x="626" 
d="M15 521q0 11 11 22t22 11q10 0 23 -11l43 -45q10 -10 10 -21t-11 -21.5t-21 -10.5l-21 10l-45 43q-11 13 -11 23zM94 194q0 14 9 22.5t22 8.5h375q14 0 23 -9t9 -22q0 -14 -9 -23t-23 -9h-375q-13 0 -22 9t-9 23zM98 287q12 78 72 133t143 55t143 -54.5t72 -132.5h-63
q-9 53 -51.5 88.5t-100.5 35.5t-100.5 -36t-51.5 -89h-63zM157 69q0 13 8.5 22t22.5 9h250q14 0 22.5 -9t8.5 -22t-8.5 -22t-22.5 -9h-250q-14 0 -22.5 9t-8.5 22zM313 538q-13 0 -22 9t-9 22v62q0 13 9 22t22 9t22 -9t9 -22v-62q0 -13 -9 -22t-22 -9zM512 455
q-11 11 -11 22q0 10 11 21l43 45q13 11 23 11q11 0 22 -11t11 -22q0 -10 -11 -23l-45 -43q-10 -10 -21 -10z" />
    <glyph glyph-name="uniE816" unicode="&#xe816;" horiz-adv-x="842" 
d="M15 350q0 14 8.5 22.5t22.5 8.5h63q13 0 22 -8.5t9 -22.5t-9 -22.5t-22 -8.5h-63q-14 0 -22.5 8.5t-8.5 22.5zM156 52q-11 0 -22 11t-11 22q0 10 11 23l45 43q11 12 22 12l21 -11q11 -11 11 -22t-11 -22l-43 -45q-13 -11 -23 -11zM123 615q0 11 11 22t22 11q10 0 23 -11
l43 -45q11 -11 11 -21q0 -11 -11 -22t-21 -11l-22 11l-45 43q-11 13 -11 23zM267 504q65 65 154 65q90 0 155 -65q64 -64 64 -154t-64 -154q-65 -65 -155 -65q-89 0 -154 65t-65 154t65 154zM265 350q0 -64 46 -110t110 -46t110.5 46.5t46.5 109.5q0 64 -46.5 110t-110.5 46
t-110 -46t-46 -110zM421 -56q-13 0 -22 9t-9 22v63q0 14 9 22.5t22 8.5t22 -8.5t9 -22.5v-63q0 -13 -9 -22t-22 -9zM421 631q-13 0 -22 8.5t-9 22.5v63q0 13 9 22t22 9t22 -9t9 -22v-63q0 -14 -9 -22.5t-22 -8.5zM719 85q0 -11 -11 -22t-22 -11q-10 0 -23 11l-43 45
q-10 10 -10 21t11 22t21 11l21 -11l45 -43q11 -13 11 -23zM686 648q11 0 22 -11t11 -22q0 -10 -11 -23l-45 -43q-11 -11 -21 -11l-22 11q-10 10 -10 22q0 11 10 21l43 45q13 11 23 11zM702 350q0 13 9 22t23 9h62q14 0 23 -9t9 -22t-9 -22t-23 -9h-62q-14 0 -23 9t-9 22z
" />
    <glyph glyph-name="uniE817" unicode="&#xe817;" horiz-adv-x="518" 
d="M472 315q12 0 21.5 -10t9.5 -21q0 -2 -2 -10q-20 -56 -58 -94q-74 -74 -178 -74t-177 73t-73 177t74 178q38 38 94 58q8 2 10 2q12 0 21.5 -10t9.5 -22q0 -3 -2 -11q-10 -29 -10 -61q0 -79 54 -133q38 -38 91 -50q19 -4 42 -4q32 0 61 10q8 2 12 2zM78 357q0 -79 54 -134
q54 -54 131 -54q93 0 148 72q-3 0 -9 -0.5t-10 -0.5q-99 0 -171 72t-72 171q0 3 0.5 9t0.5 10q-12 -7 -18 -13q-54 -54 -54 -132z" />
    <glyph glyph-name="uniE818" unicode="&#xe818;" horiz-adv-x="780" 
d="M15 321q0 13 8.5 22t22.5 9h63q13 0 22 -9t9 -22q0 -14 -9 -23t-22 -9h-63q-13 0 -22 9t-9 23zM156 23q-11 0 -22 11t-11 22q0 10 11 23l45 42q11 13 22 13l21 -12q11 -11 11 -22q0 -10 -11 -21l-43 -45q-13 -11 -23 -11zM123 586q0 11 11 22t22 11q10 0 23 -11l43 -45
q11 -11 11 -22t-10.5 -21.5t-21.5 -10.5l-22 11l-45 43q-11 13 -11 23zM267 475q64 64 154 64q35 0 63 -9q28 9 62 9q91 0 155 -64t64 -154q0 -91 -64 -155t-155 -64q-31 0 -62 10q-31 -10 -63 -10q-90 0 -154 64q-65 65 -65 155q0 89 65 154zM390 473q-52 -9 -88.5 -52.5
t-36.5 -99.5q0 -57 37 -100.5t88 -52.5q-62 62 -62 153q0 90 62 152zM421 -86q-13 0 -22 9t-9 23v62q0 14 9 22.5t22 8.5t22 -8.5t9 -22.5v-62q0 -14 -9 -23t-22 -9zM390 633v63q0 14 9 22.5t22 8.5t22 -8.5t9 -22.5v-63q0 -13 -9 -22t-22 -9t-22 9t-9 22z" />
    <glyph glyph-name="uniE819" unicode="&#xe819;" horiz-adv-x="968" 
d="M15 258q0 14 11 22.5t26 8.5h168q-11 34 -14 63h-97q-13 0 -22 9t-9 22t9 22t22 9h97q3 29 14 63h-174q-14 0 -22.5 8.5t-8.5 22.5t8.5 22.5t22.5 8.5h203q38 54 99 89.5t136 35.5q108 0 186 -72q79 -73 91 -178h160q13 0 22 -9t9 -22t-9 -22t-22 -9h-160q-3 -29 -14 -63
h43q16 0 27 -8.5t11 -22.5t-11 -22.5t-27 -8.5h-72q-38 -54 -98.5 -89.5t-135.5 -35.5t-136 35.5t-99 89.5h-197q-15 0 -26 8.5t-11 22.5zM286 289h395q13 30 18 63h-430q5 -36 17 -63zM515 508q0 -14 -8.5 -22.5t-22.5 -8.5h-198q-12 -27 -17 -63h430q-12 78 -72 133
t-143 55q-88 0 -153 -63h153q14 0 22.5 -8.5t8.5 -22.5zM331 227q65 -63 153 -63t152 63h-305z" />
    <glyph glyph-name="uniE81A" unicode="&#xe81a;" horiz-adv-x="842" 
d="M15 194q0 14 12 22.5t29 8.5h490q39 0 66.5 -27.5t27.5 -66.5t-27.5 -66t-66.5 -27t-66.5 27t-27.5 66q0 16 6 31h-402q-17 0 -29 9t-12 23zM15 319q0 13 8.5 22t22.5 9h600q-6 15 -6 31q0 39 27.5 66.5t66.5 27.5t66.5 -27.5t27.5 -66.5t-27.5 -66t-66.5 -27h-688
q-14 0 -22.5 9t-8.5 22zM15 444q0 14 8.5 22.5t22.5 8.5h287q-5 13 -5 31q0 39 27 66.5t66 27.5t66.5 -27.5t27.5 -66.5t-27.5 -66.5t-66.5 -27.5h-375q-13 0 -22 9t-9 23z" />
    <glyph glyph-name="uniE81B" unicode="&#xe81b;" horiz-adv-x="588" 
d="M80 163q-27 0 -46 17t-19 44q0 11 2 17q6 25 29 39l64 37q-4 15 -4 33q0 19 4 35l-64 35q-31 21 -31 56q0 28 17.5 45t45.5 17q16 0 30 -8l65 -37q31 23 58 33v74q0 25 18.5 43.5t44.5 18.5t44 -18t18 -44v-74q29 -11 59 -33l64 37q13 7 29 7q27 0 46 -17t19 -44
q0 -35 -31 -56l-65 -37q4 -15 4 -33t-4 -33l65 -37q31 -21 31 -56q0 -27 -19 -44t-46 -17q-16 0 -29 7l-64 37q-27 -21 -59 -33v-74q0 -26 -18 -44t-44 -18t-44.5 18.5t-18.5 43.5v74q-27 10 -58 33l-65 -37q-13 -7 -28 -7zM231 350q0 -26 18 -45q18 -17 45 -17q26 0 44 18
t18 44t-18 44t-44 18t-44.5 -18.5t-18.5 -43.5z" />
    <glyph glyph-name="uniE81C" unicode="&#xe81c;" 
d="M77 283q61 63 149 67q-24 45 -24 94q0 89 65 154q64 64 154 64q91 0 154 -62q62 -61 65 -152q76 -34 125 -100q18 2 31 2q91 0 155 -64t64 -155q0 -90 -64 -154q-65 -65 -155 -65q-41 0 -78 14q-88 -76 -203 -76t-203 76q-37 -14 -78 -14q-90 0 -155 65q-64 64 -64 154
q0 88 62 152zM15 444q0 14 8.5 22.5t22.5 8.5h63q13 0 22 -8.5t9 -22.5t-9 -23t-22 -9h-63q-13 0 -22 9t-9 23zM78 131q0 -64 46 -110t110 -46q51 0 90 29q77 -92 191 -92t191 92q39 -29 90 -29q64 0 110 46t46 110t-46 110.5t-110 46.5q-31 0 -58 -12q-37 69 -108 107
q-33 17 -58 22q-27 7 -57 7q-115 0 -191 -89q-20 -23 -32 -47q-2 0 -15 4q-24 8 -43 8q-64 0 -110 -46.5t-46 -110.5zM123 709q0 11 11 22t22 11q10 0 23 -11l43 -45q11 -11 11 -22q0 -10 -10.5 -21t-21.5 -11l-22 11l-45 43q-11 13 -11 23zM421 600q-64 0 -110 -46
t-46 -110q0 -38 20 -73q92 104 230 104q28 0 61 -6q-9 55 -52.5 93t-102.5 38zM421 725q-13 0 -22 8.5t-9 22.5v63q0 13 9 22t22 9t22 -9t9 -22v-63q0 -14 -9 -22.5t-22 -8.5zM686 742q11 0 22 -11t11 -22q0 -10 -11 -23l-45 -43q-11 -11 -21 -11l-22 11q-10 10 -10 21
q0 12 10 22l43 45q13 11 23 11zM702 444q0 13 9 22t23 9h62q14 0 23 -9t9 -22q0 -14 -9 -23t-23 -9h-62q-14 0 -23 9t-9 23z" />
    <glyph glyph-name="uniE81D" unicode="&#xe81d;" 
d="M865 338q64 -20 107 -76.5t43 -130.5q0 -90 -64 -154q-65 -65 -155 -65q-41 0 -78 14q-88 -76 -203 -76t-203 76q-37 -14 -78 -14q-90 0 -155 65q-64 64 -64 154q0 91 64 155t155 64q13 0 31 -2q77 107 211 125q-9 32 -9 64q0 105 71 176q39 39 94 59q7 3 13 3
q11 0 20.5 -10.5t9.5 -21.5q0 -2 -2 -10q-12 -33 -12 -66q0 -73 54 -129q56 -56 131 -56q29 0 65 13q4 1 11 1q11 0 21 -9.5t10 -20.5q0 -7 -2 -12q-27 -75 -86 -116zM78 131q0 -64 46 -110t110 -46q51 0 90 29q77 -92 191 -92t191 92q39 -29 90 -29q64 0 110 46t46 110
t-46 110.5t-110 46.5q-31 0 -58 -12q-8 8 -8 13q-27 41 -59 69q-72 54 -156 54q-14 0 -14 -1q-71 -3 -124.5 -40.5t-84.5 -94.5q-27 12 -58 12q-64 0 -110 -46.5t-46 -110.5zM533 577q-5 -23 -5 -41q0 -33 12 -63q135 -9 219 -117q66 15 104 64h-15q-101 0 -177 74
q-73 73 -73 170q0 4 0.5 10t0.5 10q-51 -39 -66 -107z" />
    <glyph glyph-name="uniE81E" unicode="&#xe81e;" horiz-adv-x="842" 
d="M15 8q0 14 8.5 22.5t22.5 8.5h750q14 0 23 -9t9 -22t-9 -22t-23 -9h-750q-14 0 -22.5 8.5t-8.5 22.5zM15 133q0 13 8.5 22t22.5 9h750q14 0 23 -9t9 -22t-9 -22t-23 -9h-750q-14 0 -22.5 9t-8.5 22zM15 258q0 14 8.5 22.5t22.5 8.5h750q14 0 23 -9t9 -22t-9 -22t-23 -9
h-750q-14 0 -22.5 8.5t-8.5 22.5zM15 383q0 13 8.5 22t22.5 9h63q13 0 22 -9t9 -22t-9 -22t-22 -9h-63q-14 0 -22.5 9t-8.5 22zM123 648q0 11 11 22t22 11q10 0 23 -11l43 -45q11 -11 11 -21t-10.5 -21t-21.5 -11l-22 10l-45 43q-11 13 -11 23zM421 539q-64 0 -110 -46
t-46 -110q0 -16 4 -31h-63q-4 20 -4 31q0 90 65 155q64 64 154 64q91 0 155 -64t64 -155q0 -11 -4 -31h-62q4 15 4 31q0 64 -46.5 110t-110.5 46zM421 664q-13 0 -22 9t-9 23v62q0 14 9 22.5t22 8.5t22 -8.5t9 -22.5v-62q0 -14 -9 -23t-22 -9zM686 681q11 0 22 -11t11 -22
q0 -10 -11 -23l-45 -43q-10 -10 -21 -10l-22 10q-10 10 -10 22q0 11 10 21l43 45q13 11 23 11zM702 383q0 13 9 22t23 9h62q14 0 23 -9t9 -22t-9 -22t-23 -9h-62q-14 0 -23 9t-9 22z" />
    <glyph glyph-name="uniE81F" unicode="&#xe81f;" horiz-adv-x="842" 
d="M15 8q0 14 8.5 22.5t22.5 8.5h750q14 0 23 -9t9 -22t-9 -22t-23 -9h-750q-14 0 -22.5 8.5t-8.5 22.5zM15 133q0 13 8.5 22t22.5 9h750q14 0 23 -9t9 -22t-9 -22t-23 -9h-750q-14 0 -22.5 9t-8.5 22zM15 258q0 14 8.5 22.5t22.5 8.5h750q14 0 23 -9t9 -22t-9 -22t-23 -9
h-750q-14 0 -22.5 8.5t-8.5 22.5zM203 512q7 73 53 129t113 80q8 2 11 2q12 0 21.5 -10t9.5 -21q0 -6 -1 -10q-13 -36 -13 -66q0 -75 55 -130q56 -54 130 -54l66 12q8 2 10 2q12 0 21.5 -10t9.5 -22q0 -3 -2 -11q-11 -29 -24 -51h-82q17 15 18 18q-3 0 -10 -0.5t-10 -0.5
q-98 0 -170 73q-74 76 -74 176v15q-33 -24 -51.5 -63t-18.5 -83q0 -78 57 -135h-80q-40 63 -40 133q0 18 1 27z" />
    <glyph glyph-name="uniE820" unicode="&#xe820;" 
d="M15 6q0 14 9 23t22 9h938q13 0 22 -9t9 -23t-8.5 -22.5t-22.5 -8.5h-938q-14 0 -22.5 8.5t-8.5 22.5zM15 131q0 13 8.5 22t22.5 9h938q14 0 22.5 -9t8.5 -22t-8.5 -22t-22.5 -9h-938q-14 0 -22.5 9t-8.5 22zM15 256q0 14 9 23t22 9h938q13 0 22 -9t9 -23t-8.5 -22.5
t-22.5 -8.5h-938q-14 0 -22.5 8.5t-8.5 22.5zM15 381q0 91 64 155t155 64q13 0 31 -2q40 57 105 92t145 35t145 -35t105 -92q18 2 31 2q91 0 155 -64t64 -155q0 -11 -4 -31h-62q3 11 3 31q0 64 -46 110.5t-110 46.5q-31 0 -58 -12q-32 59 -89.5 97.5t-133.5 38.5
t-133.5 -38.5t-89.5 -97.5q-27 12 -58 12q-64 0 -110 -46.5t-46 -110.5q0 -20 3 -31h-62q-4 20 -4 31z" />
    <glyph glyph-name="uniE821" unicode="&#xe821;" horiz-adv-x="655" 
d="M15 194q0 14 8.5 22.5t22.5 8.5h563q13 0 22 -8.5t9 -22.5t-9 -23t-22 -9h-563q-13 0 -22 9t-9 23zM15 319q0 13 8.5 22t22.5 9h563q13 0 22 -9t9 -22t-9 -22t-22 -9h-563q-14 0 -22.5 9t-8.5 22zM15 444q0 14 8.5 22.5t22.5 8.5h563q13 0 22 -8.5t9 -22.5t-9 -23t-22 -9
h-563q-13 0 -22 9t-9 23zM15 569q0 13 8.5 22t22.5 9h563q13 0 22 -9t9 -22t-9 -22t-22 -9h-563q-14 0 -22.5 9t-8.5 22z" />
    <glyph glyph-name="uniE822" unicode="&#xe822;" 
d="M515 662q80 0 145 -35t105 -91q18 2 31 2q90 0 155 -65q64 -64 64 -154q0 -91 -64 -155t-155 -64q-41 0 -78 14q-88 -76 -203 -76t-203 76q-37 -14 -78 -14q-91 0 -155 64t-64 155q0 90 64 154q65 65 155 65q13 0 31 -2q40 56 105 91t145 35zM78 319q0 -64 46 -110.5
t110 -46.5q50 0 90 30q77 -92 191 -92t191 92q40 -30 90 -30q64 0 110 46.5t46 110.5t-46 110t-110 46q-31 0 -58 -12q-32 60 -89.5 98.5t-133.5 38.5t-133.5 -38.5t-89.5 -98.5q-27 12 -58 12q-64 0 -110 -46t-46 -110z" />
    <glyph glyph-name="uniE823" unicode="&#xe823;" 
d="M78 506q0 -64 46 -110t110 -46q51 0 90 29q46 -55 117 -78l-49 -49q-47 19 -80 49q-35 -13 -78 -13q-91 0 -155 64t-64 154q0 91 64 155t155 64q13 0 31 -2q40 57 105 92t145 35t145 -35t105 -92q18 2 31 2q91 0 155 -64t64 -155q0 -90 -64 -154t-155 -64q-43 0 -78 13
q-46 -41 -111 -60l25 78q48 29 74 60q39 -29 90 -29q64 0 110 46t46 110t-46 110t-110 46q-33 0 -58 -11q-32 60 -89.5 98.5t-133.5 38.5t-133.5 -38.5t-89.5 -98.5q-25 11 -58 11q-64 0 -110 -46t-46 -110zM390 -88l62 188l-62 62l188 188l-63 -188l63 -62z" />
    <glyph glyph-name="uniE824" unicode="&#xe824;" 
d="M515 788q80 0 145 -35t105 -92q9 1 31 1q91 0 155 -64t64 -154q0 -91 -64 -155t-155 -64q-41 0 -78 14q-89 -77 -203 -77t-203 77q-37 -14 -78 -14q-91 0 -155 64t-64 155q0 90 64 154t155 64q22 0 31 -1q40 57 105 92t145 35zM78 444q0 -64 46 -110t110 -46q51 0 90 29
q77 -92 191 -92t191 92q39 -29 90 -29q64 0 110 46t46 110t-46 110t-110 46q-31 0 -58 -12q-32 60 -89.5 98.5t-133.5 38.5t-133.5 -38.5t-89.5 -98.5q-27 12 -58 12q-64 0 -110 -46t-46 -110zM452 -25q0 35 63 125l16 -23q17 -26 31 -55q16 -34 16 -47q0 -25 -19 -44
t-44 -19t-44 19t-19 44z" />
    <glyph glyph-name="uniE825" unicode="&#xe825;" 
d="M515 850q80 0 145 -35t105 -92q18 2 31 2q91 0 155 -64t64 -155q0 -90 -64 -154t-155 -64q-43 0 -78 13q-88 -76 -203 -76t-203 76q-35 -13 -78 -13q-91 0 -155 64t-64 154q0 91 64 155t155 64q13 0 31 -2q40 57 105 92t145 35zM78 506q0 -64 46 -110t110 -46q51 0 90 29
q76 -91 191 -91t191 91q39 -29 90 -29q64 0 110 46t46 110t-46 110t-110 46q-33 0 -58 -11q-32 60 -89.5 98.5t-133.5 38.5t-133.5 -38.5t-89.5 -98.5q-25 11 -58 11q-64 0 -110 -46t-46 -110zM265 38q-26 0 -44.5 18.5t-18.5 43.5q0 35 63 125l16 -23q17 -26 31 -55
q16 -34 16 -47q0 -25 -18.5 -43.5t-44.5 -18.5zM517 -150q-26 0 -44.5 18.5t-18.5 43.5q0 36 63 126l16 -24q17 -26 31 -55q15 -31 15 -47q0 -26 -18.5 -44t-43.5 -18zM702 -25q0 35 63 125l16 -23q17 -26 31 -55q16 -34 16 -47q0 -25 -19 -44t-44 -19t-44 19t-19 44z" />
    <glyph glyph-name="uniE826" unicode="&#xe826;" 
d="M15 131q0 13 8.5 22t22.5 9h250q14 0 23 -9t9 -22t-9 -22t-23 -9h-250q-14 0 -22.5 9t-8.5 22zM15 256q0 14 9 23t22 9h125q13 0 22 -9t9 -23t-9 -22.5t-22 -8.5h-125q-14 0 -22.5 8.5t-8.5 22.5zM78 381q0 13 9 22t22 9h125q14 0 22.5 -9t8.5 -22t-8.5 -22t-22.5 -9
h-125q-13 0 -22 9t-9 22zM480 137q-80 0 -137 57t-57 136q0 78 55 135.5t131 60.5q73 76 179 76q105 0 178 -76q76 -3 131 -60.5t55 -135.5q0 -79 -57 -136t-138 -57q-14 0 -34 2q-64 -41 -135 -41q-72 0 -136 41q-20 -2 -35 -2zM349 330q0 -54 38.5 -92t92.5 -38q27 0 47 7
q55 -46 124 -46q70 0 122 46q21 -7 47 -7q54 0 93 38t39 92t-39 93.5t-93 39.5q-6 0 -18 -2q-56 78 -151 78q-97 0 -152 -78q-12 2 -19 2q-54 0 -92.5 -39.5t-38.5 -93.5z" />
    <glyph glyph-name="uniE827" unicode="&#xe827;" 
d="M15 318q0 13 9 21.5t22 8.5h250q14 0 23 -8.5t9 -21.5t-9.5 -22.5t-22.5 -9.5h-250q-13 0 -22 9.5t-9 22.5zM15 443q0 13 9 21.5t22 8.5h125q13 0 22 -8.5t9 -21.5t-9 -22.5t-22 -9.5h-125q-13 0 -22 9.5t-9 22.5zM78 568q0 13 9 21.5t22 8.5h125q13 0 22 -8.5t9 -21.5
t-9 -22.5t-22 -9.5h-125q-13 0 -22 9.5t-9 22.5zM1015 518q0 -82 -56.5 -138.5t-138.5 -56.5q-14 0 -34 2q-63 -39 -135 -39q-73 0 -136 39q-20 -2 -35 -2q-81 0 -137 56q-57 57 -57 139q0 78 55 134t131 59q74 77 179 77q104 0 178 -77q76 -3 131 -59t55 -134zM349 518
q0 -54 38.5 -93.5t92.5 -39.5q25 0 47 8q55 -45 124 -45t122 45q24 -8 47 -8q54 0 93 39.5t39 93.5t-39 92.5t-93 38.5h-18q-57 76 -151 76q-95 0 -152 -76h-19q-54 0 -92.5 -38.5t-38.5 -92.5zM515 38q-26 0 -44.5 18.5t-18.5 43.5q0 35 63 125l16 -23q17 -26 31 -55
q16 -34 16 -47q0 -25 -18.5 -43.5t-44.5 -18.5zM702 -25q0 35 63 125l16 -23q17 -26 31 -55q16 -34 16 -47q0 -25 -19 -44t-44 -19t-44 19t-19 44z" />
    <glyph glyph-name="uniE828" unicode="&#xe828;" 
d="M515 850q80 0 145 -35t105 -92q18 2 31 2q91 0 155 -64t64 -155q0 -90 -64 -154t-155 -64q-43 0 -78 13q-88 -76 -203 -76t-203 76q-35 -13 -78 -13q-91 0 -155 64t-64 154q0 91 64 155t155 64q13 0 31 -2q40 57 105 92t145 35zM78 506q0 -64 46 -110t110 -46q51 0 90 29
q76 -91 191 -91t191 91q39 -29 90 -29q64 0 110 46t46 110t-46 110t-110 46q-33 0 -58 -11q-32 60 -89.5 98.5t-133.5 38.5t-133.5 -38.5t-89.5 -98.5q-25 11 -58 11q-64 0 -110 -46t-46 -110zM515 -150q-14 0 -24.5 10t-10.5 25v41q-18 7 -31 18l-36 -20q-18 -10 -35 -0.5
t-17 28.5q0 2 2 10q5 16 15 21l35 21q-2 12 -2 19q0 6 2 18l-35 20q-17 11 -17 31t16.5 29.5t35.5 -0.5l36 -21q15 14 31 20v41q0 13 11 24t24 11t24 -11t11 -24v-41q16 -6 31 -20l36 21q19 10 35.5 0.5t16.5 -29.5t-17 -31l-35 -20q2 -12 2 -18q0 -7 -2 -19l35 -21
q17 -9 17 -31q0 -19 -17 -28.5t-35 0.5l-36 20q-13 -11 -31 -18v-41q0 -15 -10.5 -25t-24.5 -10zM480 23q0 -14 10.5 -24t24.5 -10t24.5 10.5t10.5 23.5q0 14 -10.5 24t-24.5 10t-24.5 -10t-10.5 -24z" />
    <glyph glyph-name="uniE829" unicode="&#xe829;" 
d="M78 506q0 -64 46 -110t110 -46q51 0 90 29q0 -1 19 -19q-22 -14 -31 -33q-7 -11 -12 -28q-30 -11 -66 -11q-91 0 -155 64t-64 154q0 91 64 155t155 64q13 0 31 -2q40 57 105 92t145 35t145 -35t105 -92q18 2 31 2q91 0 155 -64t64 -155q0 -90 -64 -154t-155 -64
q-36 0 -66 11q-5 17 -12 28q-9 19 -31 33q2 2 6 5.5t7.5 7t5.5 6.5q39 -29 90 -29q64 0 110 46t46 110t-46 110t-110 46q-33 0 -58 -11q-32 60 -89.5 98.5t-133.5 38.5t-133.5 -38.5t-89.5 -98.5q-25 11 -58 11q-64 0 -110 -46t-46 -110zM515 38q-14 0 -24.5 10t-10.5 25v41
q-20 7 -31 17l-36 -19q-18 -10 -35 -0.5t-17 28.5q0 2 2 10q4 15 15 20l35 22q-2 12 -2 18q0 7 2 19l-35 19q-17 11 -17 31t17 30t35 0l36 -21q13 13 31 19v41q0 14 11 24.5t24 10.5t24 -10.5t11 -24.5v-41q18 -6 31 -19l36 21q19 10 35.5 0t16.5 -30t-17 -31l-35 -19
q2 -12 2 -19q0 -6 -2 -18l35 -22q17 -8 17 -30q0 -19 -17 -28.5t-35 0.5l-36 19q-11 -10 -31 -17v-41q0 -15 -10.5 -25t-24.5 -10zM480 210q0 -14 10.5 -24t24.5 -10t24.5 10.5t10.5 23.5q0 14 -10.5 24.5t-24.5 10.5t-24.5 -10.5t-10.5 -24.5z" />
    <glyph glyph-name="uniE82A" unicode="&#xe82a;" 
d="M515 850q80 0 145 -35t105 -92q18 2 31 2q91 0 155 -64t64 -155q0 -90 -64 -154t-155 -64q-43 0 -78 13q-88 -76 -203 -76t-203 76q-35 -13 -78 -13q-91 0 -155 64t-64 154q0 91 64 155t155 64q13 0 31 -2q40 57 105 92t145 35zM94 98q-20 0 -20 23q0 13 15 18l24 6
q0 11 6 21l-18 18q-7 7 -7 14q0 8 7 15t15 7q7 0 14 -7l18 -17q9 3 21 6l6 23q5 15 17 15q10 0 17 -5.5t7 -12.5q0 -3 -2 -9l-6 -23q10 -6 16 -16l23 8q1 0 3 0.5t3 0.5q8 0 14.5 -7t6.5 -17q0 -13 -17 -18l-23 -6q0 -11 -6 -21l17 -18q9 -8 9 -15t-8 -14t-15 -7q-8 0 -15 7
l-15 17q-3 -1 -10.5 -2.5t-11.5 -2.5l-8 -24q-3 -16 -16 -16q-24 0 -24 19q0 6 1 9l6 23q-6 2 -16 16l-23 -8h-5zM78 506q0 -64 46 -110t110 -46q51 0 90 29q76 -91 191 -91t191 91q39 -29 90 -29q64 0 110 46t46 110t-46 110t-110 46q-33 0 -58 -11q-32 60 -89.5 98.5
t-133.5 38.5t-133.5 -38.5t-89.5 -98.5q-25 11 -58 11q-64 0 -110 -46t-46 -110zM173 119l15 6q7 7 7 14t-8 14.5t-15 7.5l-13 -7q-8 -8 -8 -15q0 -6 8 -14q6 -6 14 -6zM515 -150q-14 0 -24.5 10t-10.5 25v41q-18 7 -31 18l-36 -20q-18 -10 -35 -0.5t-17 28.5q0 22 17 31
l35 21q-2 12 -2 19q0 6 2 18l-35 20q-17 11 -17 31t16.5 29.5t35.5 -0.5l36 -21q15 14 31 20v41q0 13 11 24t24 11t24 -11t11 -24v-41q16 -6 31 -20l36 21q21 11 39 -2t11 -37q-5 -15 -15 -21l-35 -20q2 -12 2 -18q0 -7 -2 -19l35 -21q10 -6 14.5 -19.5t-2.5 -27.5
q-16 -27 -47 -12l-36 20q-13 -11 -31 -18v-41q0 -15 -10.5 -25t-24.5 -10zM480 23q0 -14 10.5 -24t24.5 -10t24.5 10.5t10.5 23.5q0 14 -10.5 24t-24.5 10t-24.5 -10t-10.5 -24zM756 96q0 10 5 16.5t13 6.5q6 0 9 -1l23 -6q5 9 16 15l-6 24q-2 6 -2 8q0 8 7 13.5t17 5.5
q12 0 17 -16l6 -23q12 -3 21 -6l18 18q7 7 14 7t14.5 -7.5t7.5 -15.5q0 -7 -7 -14l-18 -17q6 -10 6 -22l24 -5q15 -5 15 -19q0 -23 -20 -23q-1 0 -2.5 0.5t-2.5 0.5l-23 7q-9 -12 -16 -15l6 -24q1 -3 1 -8q0 -19 -24 -19q-13 0 -16 16l-8 23q-16 4 -22 6l-15 -18
q-7 -7 -15 -7q-7 0 -15 7.5t-8 14.5t9 15l17 17q-6 9 -6 22l-23 6q-17 5 -17 17zM842 63q7 -7 15 -7l14 7q7 7 7 13q0 7 -7.5 15t-14.5 8l-14 -8q-7 -7 -7 -14t7 -14z" />
    <glyph glyph-name="uniE82B" unicode="&#xe82b;" 
d="M515 850q80 0 145 -35t105 -92q18 2 31 2q91 0 155 -64t64 -155q0 -90 -64 -154t-155 -64q-43 0 -78 13q-88 -76 -203 -76t-203 76q-35 -13 -78 -13q-91 0 -155 64t-64 154q0 91 64 155t155 64q13 0 31 -2q40 57 105 92t145 35zM78 506q0 -64 46 -110t110 -46q28 0 54 10
l36 13l29 -25q71 -60 162 -60t162 60l29 25l36 -13q26 -10 54 -10q64 0 110 46t46 110t-46 110t-110 46q-15 0 -21 -1l-37 -6l-24 31q-74 102 -199 102t-199 -102l-24 -31l-37 6q-6 1 -21 1q-64 0 -110 -46t-46 -110zM140 162q0 26 18.5 44.5t43.5 18.5q24 0 43.5 -19.5
t19.5 -43.5q0 -25 -18.5 -43.5t-44.5 -18.5t-44 18t-18 44zM265 -88q0 26 18.5 44.5t44.5 18.5q24 0 43 -19.5t19 -43.5q0 -26 -18 -44t-44 -18t-44.5 18.5t-18.5 43.5zM452 100q0 25 18.5 43.5t44.5 18.5q24 0 43.5 -19t19.5 -43q0 -25 -18.5 -43.5t-44.5 -18.5t-44.5 18.5
t-18.5 43.5zM640 -88q0 26 18.5 44.5t43.5 18.5q24 0 43.5 -19.5t19.5 -43.5q0 -25 -18.5 -43.5t-44.5 -18.5t-44 18t-18 44zM765 162q0 26 18.5 44.5t44.5 18.5q24 0 42 -20q20 -18 20 -43q0 -26 -18 -44t-44 -18t-44.5 18.5t-18.5 43.5z" />
    <glyph glyph-name="uniE82C" unicode="&#xe82c;" 
d="M841 555q72 0 123 -51t51 -123q0 -65 -47 -117q47 -61 47 -133q0 -90 -64 -154q-65 -65 -155 -65q-41 0 -78 14q-88 -76 -203 -76t-203 76q-37 -14 -78 -14q-90 0 -155 65q-64 64 -64 154q0 91 64 155t155 64q13 0 31 -2q1 4 4 4q-4 16 -4 29q0 72 51 123t123 51h13
q72 90 188 90t188 -90h13zM78 131q0 -64 46 -110t110 -46q51 0 90 29q77 -92 191 -92t191 92q39 -29 90 -29q64 0 110 46t46 110t-45.5 110.5t-110.5 46.5l-25 -2q-14 -2 -33 -10q-32 59 -89.5 97.5t-133.5 38.5q-105 0 -178 -76q-25 -27 -41 -54q0 -6 -4 -6q-27 12 -58 12
q-64 0 -110 -46.5t-46 -110.5zM333 416q83 59 182 59q80 0 145 -35t105 -92q18 2 31 2q71 0 129 -43q27 33 27 74q0 47 -32.5 79.5t-78.5 32.5q-21 0 -43 -8q-21 41 -63.5 69t-94.5 28t-94.5 -28t-63.5 -69q-22 8 -43 8q-38 0 -66 -22t-40 -55z" />
    <glyph glyph-name="uniF047" unicode="&#xf047;" 
d="M15 350q0 14 11 25l142 143q11 11 26 11q14 0 24.5 -11t10.5 -25v-72h215v215h-72q-14 0 -25 10.5t-11 24.5q0 15 11 26l143 142q11 11 25 11t25 -11l143 -142q11 -11 11 -26q0 -14 -11 -24.5t-25 -10.5h-72v-215h215v72q0 14 10.5 25t24.5 11q15 0 26 -11l142 -143
q11 -11 11 -25t-11 -25l-142 -143q-11 -11 -26 -11q-14 0 -24.5 11t-10.5 25v72h-215v-215h72q14 0 25 -10.5t11 -24.5q0 -15 -11 -26l-143 -142q-11 -11 -25 -11t-25 11l-143 142q-11 11 -11 26q0 14 11 24.5t25 10.5h72v215h-215v-72q0 -14 -10.5 -25t-24.5 -11
q-15 0 -26 11l-142 143q-11 11 -11 25z" />
    <glyph glyph-name="uniF08E" unicode="&#xf08e;" 
d="M176 -7q-66 0 -113.5 47.5t-47.5 113.5v464q0 66 47.5 113.5t113.5 47.5h393q17 0 17 -18v-36q0 -18 -17 -18h-393q-37 0 -63.5 -26t-26.5 -63v-464q0 -37 26.5 -63.5t63.5 -26.5h464q37 0 63 26.5t26 63.5v178q0 8 5.5 13t12.5 5h36q7 0 12.5 -5t5.5 -13v-178
q0 -66 -47.5 -113.5t-113.5 -47.5h-464zM397 314q0 7 6 13l364 364l-99 98q-10 10 -10 25q0 14 11 25t25 11h285q14 0 25 -11t11 -25v-285q0 -14 -11 -25t-25 -11q-15 0 -25 10l-98 99l-364 -364q-6 -6 -13 -6t-13 6l-63 63q-6 6 -6 13z" />
    <glyph glyph-name="uniF096" unicode="&#xf096;" horiz-adv-x="816" 
d="M176 -7q-66 0 -113.5 47.5t-47.5 113.5v464q0 66 47.5 113.5t113.5 47.5h464q66 0 113.5 -47.5t47.5 -113.5v-464q0 -66 -47.5 -113.5t-113.5 -47.5h-464zM86 154q0 -37 26.5 -63.5t63.5 -26.5h464q37 0 63 26.5t26 63.5v464q0 37 -26 63t-63 26h-464q-37 0 -63.5 -26
t-26.5 -63v-464z" />
    <glyph glyph-name="uniF097" unicode="&#xf097;" horiz-adv-x="744" 
d="M80 -66q-27 0 -46 18.5t-19 44.5v719q0 26 19 44.5t46 18.5h585q27 0 45.5 -18.5t18.5 -44.5v-719q0 -27 -18 -44.5t-46 -17.5q-27 0 -47 18l-246 236l-246 -236q-21 -19 -46 -19zM86 14l143 137l143 137l144 -138l142 -136v693h-572v-693z" />
    <glyph glyph-name="uniF098" unicode="&#xf098;" horiz-adv-x="887" 
d="M176 -79q-66 0 -113.5 47.5t-47.5 113.5v536q0 66 47.5 113.5t113.5 47.5h535q66 0 113.5 -47.5t47.5 -113.5v-536q0 -66 -47.5 -113.5t-113.5 -47.5h-535zM158 498q0 -20 4 -36.5t13 -40.5t11 -29q33 -91 121 -179q89 -89 178 -121l24 -9l26 -9q10 -4 25.5 -7t30.5 -3
q34 0 73 19q65 30 65 101q0 7 -1 9q-2 5 -21 17q-17 11 -50 27l-29 16q-2 1 -10 6.5t-14.5 9t-12.5 3.5q-9 0 -26 -18q-13 -14 -32 -37q-15 -18 -24 -18q-13 0 -35 15q-107 59 -166 166q-16 24 -16 35q0 4 2.5 8.5t8 9.5t9 8.5t10 8t7.5 5.5q36 26 36 43q0 6 -3 12.5
t-8.5 14t-6.5 9.5q-20 39 -37 68l-14 23q-13 10 -18 11q-71 0 -101 -65q-19 -39 -19 -73z" />
    <glyph glyph-name="uniF099" unicode="&#xf099;" horiz-adv-x="1076" 
d="M15 32q0 8 5.5 13t12.5 5q5 0 25 -1t25 -1q112 0 209 59q-58 13 -101.5 53.5t-61.5 96.5q-1 3 -1 6q0 7 5 12t12 5q2 0 8 -1t7 -1q-47 30 -78 80t-31 111q0 8 6.5 14.5t14.5 6.5q2 0 10.5 -3t17 -7t9.5 -4q-52 63 -52 142q0 68 31 114q6 9 14 9t15 -7q37 -41 62 -64
q141 -127 330 -144q-2 16 -2 27q0 93 66 159q67 67 160 67q90 0 157 -64q52 10 117 46q5 3 9 3q17 0 17 -18q0 -14 -16 -42t-28 -42q21 7 41 15q9 4 13 4q18 0 18 -17q0 -7 -2 -10q-36 -58 -100 -106v-19q2 -128 -56 -255q-71 -156 -214.5 -254.5t-337.5 -98.5
q-146 0 -279 69q-34 17 -49 27q-8 5 -8 15z" />
    <glyph glyph-name="uniF09A" unicode="&#xf09a;" horiz-adv-x="459" 
d="M15 393v112q0 9 6 15t15 6h68v57q0 196 198 196q66 0 126 -17q19 -6 16 -24l-15 -108q-1 -8 -8.5 -13.5t-17.5 -4.5q-42 9 -75 9q-27 0 -34.5 -8.5t-7.5 -37.5v-49h121q9 0 15 -7t5 -16l-7 -112q-1 -8 -7 -14t-15 -6h-112v-428q0 -9 -6.5 -15.5t-14.5 -6.5h-140
q-9 0 -15 6.5t-6 15.5v428h-68q-9 0 -15 6.5t-6 15.5z" />
    <glyph glyph-name="uniF09B" unicode="&#xf09b;" horiz-adv-x="887" 
d="M15 350q0 123 60 219.5t153 151.5q101 58 216 58q123 0 219.5 -60t151.5 -154q57 -99 57 -215q0 -123 -60 -219.5t-153 -151.5q-101 -58 -215 -58q-123 0 -220 60t-152 154q-57 99 -57 215zM86 350q0 -115 70 -211q69 -95 180 -129v94q-27 -4 -38 -4q-61 0 -85 56
q-11 29 -32 46q-23 19 -23 22q0 7 15 7q10 0 18.5 -2.5t17 -10t11.5 -10.5t12 -16l9 -12q21 -28 54 -28q21 0 45 8q9 30 35 49q-91 9 -137 47q-44 37 -44 125q0 67 40 111q-8 26 -8 47q0 30 16 60q33 0 56 -10q22 -9 56 -34q40 10 95 10q45 0 85 -9q31 22 56 33q23 10 56 10
q15 -29 15 -60q0 -23 -8 -47q41 -47 41 -111q0 -89 -45 -126q-44 -37 -137 -46q39 -25 39 -73v-126q111 34 180 129q70 96 70 211q0 75 -29.5 141t-75.5 112t-111 75t-141 29t-141.5 -29t-111.5 -75t-75.5 -112t-29.5 -141z" />
    <glyph glyph-name="uniF09E" unicode="&#xf09e;" horiz-adv-x="816" 
d="M15 100q0 44 31.5 75.5t75.5 31.5t75.5 -31.5t31.5 -75.5t-31.5 -75.5t-75.5 -31.5t-75.5 31.5t-31.5 75.5zM15 457q0 15 10.5 25.5t25.5 10.5h3q186 -16 315 -146q130 -129 146 -316q1 -16 -9.5 -27t-26.5 -11h-75q-14 0 -24 9t-11 23q-12 128 -103 219t-219 103
q-14 1 -23 11t-9 24v75zM15 663v80q0 15 10.5 25.5t25.5 10.5h1q156 -8 288 -70t230 -161q99 -98 161 -230t70 -288q1 -15 -10 -26t-26 -11h-80q-14 0 -24.5 9.5t-11.5 23.5q-7 124 -57.5 231.5t-127.5 184.5t-185 128t-231 58q-14 1 -23.5 11t-9.5 24z" />
    <glyph glyph-name="uniF0A0" unicode="&#xf0a0;" horiz-adv-x="887" 
d="M104 -7q-37 0 -63 26t-26 63v179q0 13 9 42l110 338q9 28 34 47t57 19h437q32 0 57 -19t34 -47l110 -338q9 -29 9 -42v-179q0 -37 -26 -63t-63 -26h-679zM86 82q0 -8 5 -13t13 -5h679q7 0 12.5 5t5.5 13v179q0 7 -5.5 12.5t-12.5 5.5h-679q-8 0 -13 -5.5t-5 -12.5v-179z
M114 350h659l-88 269q-6 17 -23 17h-437q-17 0 -23 -17zM506 171q0 18 13.5 31.5t31.5 13.5t31 -13.5t13 -31.5t-13 -31t-31 -13t-31.5 13t-13.5 31zM649 171q0 18 13.5 31.5t31.5 13.5t31 -13.5t13 -31.5t-13 -31t-31 -13t-31.5 13t-13.5 31z" />
    <glyph glyph-name="uniF0A3" unicode="&#xf0a3;" horiz-adv-x="888" 
d="M16 236q-6 23 12 39l77 75l-77 75q-17 17 -11 40t28 28l105 27l-29 103q-6 24 10 39q16 17 39 11l104 -29l27 104q5 22 28 28.5t40 -10.5l75 -77l75 77q17 17 40 10.5t28 -28.5l26 -104l104 29q23 6 39 -11q17 -16 11 -39l-30 -103l105 -27q22 -5 28.5 -28t-10.5 -40
l-77 -75l77 -75q17 -17 10.5 -40t-28.5 -28l-105 -27l30 -103q6 -23 -11 -39q-16 -17 -39 -11l-104 29l-26 -104q-7 -31 -39 -31q-18 0 -29 13l-75 77l-75 -77q-16 -17 -40 -11q-22 6 -28 29l-27 104l-104 -29q-23 -6 -39 11q-16 15 -10 39l29 103l-105 27q-23 6 -29 29z
" />
    <glyph glyph-name="uniF0A8" unicode="&#xf0a8;" horiz-adv-x="887" 
d="M15 350q0 123 60 219.5t153 151.5q101 58 216 58q123 0 219.5 -60t151.5 -154q57 -99 57 -215q0 -123 -60 -219.5t-153 -151.5q-101 -58 -215 -58q-123 0 -220 60t-152 154q-57 99 -57 215zM155 350q0 -15 10 -25l253 -253q10 -10 25 -10t25 10l51 51q10 10 10 25t-10 25
l-106 106h281q14 0 24.5 10.5t10.5 24.5v72q0 14 -10.5 24.5t-24.5 10.5h-281l106 106q11 11 11 25t-11 25l-51 51q-10 10 -25 10t-25 -10l-253 -253q-10 -10 -10 -25z" />
    <glyph glyph-name="uniF0A9" unicode="&#xf0a9;" horiz-adv-x="887" 
d="M15 350q0 123 60 219.5t153 151.5q101 58 216 58q123 0 219.5 -60t151.5 -154q57 -99 57 -215q0 -123 -60 -219.5t-153 -151.5q-101 -58 -215 -58q-123 0 -220 60t-152 154q-57 99 -57 215zM158 314q0 -14 11 -24.5t25 -10.5h280l-106 -106q-10 -10 -10 -25t10 -25
l51 -51q10 -10 25 -10t25 10l253 253q10 10 10 25t-10 25l-253 253q-10 10 -25 10t-25 -10l-51 -51q-10 -10 -10 -25t10 -25l106 -106h-280q-14 0 -25 -10.5t-11 -24.5v-72z" />
    <glyph glyph-name="uniF0AA" unicode="&#xf0aa;" horiz-adv-x="887" 
d="M15 350q0 123 60 219.5t153 151.5q101 58 216 58q123 0 219.5 -60t151.5 -154q57 -99 57 -215q0 -123 -60 -219.5t-153 -151.5q-101 -58 -215 -58q-123 0 -220 60t-152 154q-57 99 -57 215zM156 351q0 -16 10 -26l50 -50q10 -10 26 -10q15 0 25 10l105 105v-280
q0 -14 11 -25t25 -11h71q14 0 25 11t11 25v280l105 -105q11 -11 26 -11q14 0 25 11l50 50q11 11 11 26q0 14 -11 25l-252 252q-11 11 -25 11q-15 0 -26 -11l-252 -252q-10 -10 -10 -25z" />
    <glyph glyph-name="uniF0AB" unicode="&#xf0ab;" horiz-adv-x="887" 
d="M15 350q0 123 60 219.5t153 151.5q101 58 216 58q123 0 219.5 -60t151.5 -154q57 -99 57 -215q0 -123 -60 -219.5t-153 -151.5q-101 -58 -215 -58q-123 0 -220 60t-152 154q-57 99 -57 215zM156 349q0 -15 10 -25l252 -252q11 -11 26 -11q14 0 25 11l252 252q11 11 11 25
q0 15 -11 26l-50 50q-10 10 -25 10q-16 0 -26 -10l-105 -105v280q0 14 -11 25t-25 11h-71q-14 0 -25 -11t-11 -25v-280l-105 105q-11 11 -25 11q-15 0 -26 -11l-50 -50q-10 -10 -10 -26z" />
    <glyph glyph-name="uniF0AE" unicode="&#xf0ae;" 
d="M51 -7q-14 0 -25 11t-11 25v142q0 14 11 25t25 11h928q14 0 25 -11t11 -25v-142q0 -14 -11 -25t-25 -11h-928zM51 279q-14 0 -25 10.5t-11 24.5v143q0 14 11 25t25 11h928q14 0 25 -11t11 -25v-143q0 -14 -11 -24.5t-25 -10.5h-928zM51 564q-14 0 -25 11t-11 25v143
q0 14 11 25t25 11h928q14 0 25 -11t11 -25v-143q0 -14 -11 -25t-25 -11h-928zM944 350v71h-572v-71h572zM944 64v72h-358v-72h358zM729 636h215v71h-215v-71z" />
    <glyph glyph-name="uniF0B0" unicode="&#xf0b0;" horiz-adv-x="817" 
d="M18 685q9 22 33 22h715q23 0 32 -22q10 -24 -7 -39l-275 -275v-414q0 -15 -10 -25.5t-26 -10.5q-14 0 -25 11l-143 143q-11 11 -11 25v271l-275 275q-17 16 -8 39z" />
    <glyph glyph-name="uniF0B2" unicode="&#xf0b2;" horiz-adv-x="887" 
d="M15 -43v250q0 22 22 32t39 -7l80 -80l198 198l-198 198l-80 -80q-11 -11 -25 -11q-16 0 -26 11t-10 25v250q0 14 11 25t25 11h250q22 0 32 -22t-7 -39l-81 -81l199 -198l198 198l-81 81q-17 17 -7 39t32 22h250q14 0 25 -11t11 -25v-250q0 -15 -10 -25.5t-26 -10.5
q-14 0 -25 11l-80 80l-198 -198l198 -198l80 80q16 17 39 8q22 -9 22 -33v-250q0 -14 -11 -25t-25 -11h-250q-22 0 -32 22t7 39l81 81l-198 198l-199 -198l81 -81q17 -17 7 -39t-32 -22h-250q-14 0 -25 11t-11 25z" />
    <glyph glyph-name="uniF0C3" unicode="&#xf0c3;" horiz-adv-x="844" 
d="M601 743q0 -14 -11 -25t-25 -11h-36v-223l281 -442q32 -51 12 -86t-78 -35h-643q-59 0 -79 36q-19 36 12 85l281 442v223h-36q-14 0 -24.5 11t-10.5 25t10.5 25t24.5 11h286q14 0 25 -11t11 -25zM224 207h397l-163 257v243h-72v-243z" />
    <glyph glyph-name="uniF0C5" unicode="&#xf0c5;" 
d="M69 64q-23 0 -38.5 16t-15.5 38v375q0 23 12 50t26 41l228 228q15 15 41.5 26.5t49.5 11.5h232q22 0 38 -16t16 -38v-183q38 23 71 23h232q23 0 38.5 -16t15.5 -38v-678q0 -22 -15.5 -38t-38.5 -16h-535q-22 0 -38 16t-16 38v160h-303zM372 546q0 -22 -15 -37.5
t-38 -15.5h-233v-357h286v143q0 23 12 50t26 41l176 176v233h-214v-233zM134 564h167v167zM729 332q0 -22 -15.5 -37.5t-37.5 -15.5h-232v-358h500v643h-215v-232zM491 350h167v167z" />
    <glyph glyph-name="uniF0C8" unicode="&#xf0c8;" horiz-adv-x="887" 
d="M15 82v536q0 66 47.5 113.5t113.5 47.5h535q66 0 113.5 -47.5t47.5 -113.5v-536q0 -66 -47.5 -113.5t-113.5 -47.5h-535q-66 0 -113.5 47.5t-47.5 113.5z" />
    <glyph glyph-name="uniF0C9" unicode="&#xf0c9;" horiz-adv-x="887" 
d="M51 -7q-14 0 -25 11t-11 25v71q0 14 11 25t25 11h785q14 0 25 -11t11 -25v-71q0 -14 -11 -25t-25 -11h-785zM51 279q-14 0 -25 10.5t-11 24.5v72q0 14 11 24.5t25 10.5h785q14 0 25 -10.5t11 -24.5v-72q0 -14 -11 -24.5t-25 -10.5h-785zM15 600v71q0 14 11 25t25 11h785
q14 0 25 -11t11 -25v-71q0 -14 -11 -25t-25 -11h-785q-14 0 -25 11t-11 25z" />
    <glyph glyph-name="uniF0CA" unicode="&#xf0ca;" 
d="M15 64q0 44 31.5 75.5t75.5 31.5t75.5 -31.5t31.5 -75.5t-31.5 -75.5t-75.5 -31.5t-75.5 31.5t-31.5 75.5zM15 350q0 44 31.5 75.5t75.5 31.5t75.5 -31.5t31.5 -75.5t-31.5 -75.5t-75.5 -31.5t-75.5 31.5t-31.5 75.5zM15 636q0 44 31.5 75.5t75.5 31.5t75.5 -31.5
t31.5 -75.5t-31.5 -75.5t-75.5 -31.5t-75.5 31.5t-31.5 75.5zM319 -7q-7 0 -12.5 5.5t-5.5 12.5v107q0 8 5.5 13t12.5 5h678q7 0 12.5 -5t5.5 -13v-107q0 -7 -5.5 -12.5t-12.5 -5.5h-678zM319 279q-18 0 -18 17v108q0 17 18 17h678q18 0 18 -17v-108q0 -17 -18 -17h-678z
M301 582v107q0 7 5.5 12.5t12.5 5.5h678q7 0 12.5 -5.5t5.5 -12.5v-107q0 -8 -5.5 -13t-12.5 -5h-678q-7 0 -12.5 5t-5.5 13z" />
    <glyph glyph-name="uniF0CB" unicode="&#xf0cb;" horiz-adv-x="1022" 
d="M117 493q41 0 69 -23.5t28 -62.5q0 -27 -18.5 -50.5t-42.5 -36.5q-25 -15 -42 -28q-20 -15 -20 -30h71v34h58v-89h-202q-3 19 -3 30q0 36 17 60t52 48.5t44 32.5q13 12 13 25q0 29 -30 29q-26 0 -45 -32l-48 33q13 27 38.5 43.5t60.5 16.5zM219 -54q0 -44 -30 -70
t-76 -26q-59 0 -96 37l32 49q26 -25 59 -25q17 0 28.5 8.5t11.5 23.5q0 35 -58 31l-15 31q59 73 63 76v1q-5 0 -27 -1t-27 -1v-29h-60v85h186v-49l-53 -65q27 -6 44.5 -26t17.5 -50zM94 620v135v7h-1q-5 -10 -28 -30l-39 42l75 71h60v-225h60v-56h-187v56h60zM310 -7
q-8 0 -13 5.5t-5 12.5v107q0 8 5 13t13 5h679q7 0 12.5 -5t5.5 -13v-107q0 -7 -5.5 -12.5t-12.5 -5.5h-679zM310 279q-18 0 -18 17v108q0 17 18 17h679q18 0 18 -17v-108q0 -17 -18 -17h-679zM292 582v107q0 7 5 12.5t13 5.5h679q7 0 12.5 -5.5t5.5 -12.5v-107
q0 -8 -5.5 -13t-12.5 -5h-679q-8 0 -13 5t-5 13z" />
    <glyph glyph-name="uniF0CC" unicode="&#xf0cc;" 
d="M33 279q-18 0 -18 17v36q0 8 5.5 13t12.5 5h964q7 0 12.5 -5t5.5 -13v-36q0 -17 -18 -17h-964zM285 386q-23 28 -39.5 70t-16.5 79q0 101 75 173q74 71 219 71q72 0 192 -38q6 -21 12 -66q8 -74 8 -102q0 -10 -3 -25l-7 -2l-46 4l-8 1q-29 83 -58 114q-49 51 -117 51
q-59 0 -99 -31t-40 -83q0 -41 37 -78q38 -38 156 -72q30 -9 77 -29.5t72 -36.5h-414zM246 79v38l1 20v25l57 1q10 -23 29 -71q14 -36 52 -67q53 -44 132 -44q68 0 120 37.5t52 97.5q0 46 -45 87q-18 15 -77 40h230q4 -20 4 -51q0 -112 -63 -177q-22 -20 -61 -45
q-46 -28 -87.5 -38.5t-110.5 -10.5q-66 0 -109 13l-78 23q-31 9 -40 15q-5 5 -5 12v8q0 69 -1 87z" />
    <glyph glyph-name="uniF0CD" unicode="&#xf0cd;" horiz-adv-x="887" 
d="M15 -25q0 7 5.5 12.5t12.5 5.5h821q8 0 13 -5.5t5 -12.5v-36q0 -7 -5 -12.5t-13 -5.5h-821q-7 0 -12.5 5.5t-5.5 12.5v36zM15 777h22q23 0 86 -3t69 -3q16 0 176 5q37 0 48 1l-1 -8l1 -36v-5q-37 -5 -69 -5q-33 0 -44 -14q-7 -7 -7 -73v-33l1 -127l8 -157q6 -123 82 -164
q50 -26 98 -26q104 0 162 44q48 36 66 99q12 40 12 128q0 38 -2.5 74.5t-7 81.5t-6.5 73l-2 33q-3 38 -13 49q-19 19 -43 19l-56 -1l-8 2l1 48h47l114 -6q42 -2 110 6l10 -2q3 -21 3 -28q0 -1 -0.5 -3.5t-1 -6t-0.5 -7.5q-34 -8 -47 -8q-41 -6 -44 -9q-8 -8 -8 -23
q0 -2 0.5 -15.5t0.5 -16.5q6 -13 13 -221q3 -109 -9 -170q-9 -49 -28 -78t-57 -59q-90 -68 -244 -68q-182 0 -258 94q-35 42 -47 109q-9 45 -9 132v186q0 105 -9 119q-14 20 -82 22q-24 2 -25 2z" />
    <glyph glyph-name="uniF0CE" unicode="&#xf0ce;" horiz-adv-x="959" 
d="M104 -7q-37 0 -63 26t-26 63v607q0 37 26 63.5t63 26.5h750q37 0 63.5 -26.5t26.5 -63.5v-607q0 -37 -26.5 -63t-63.5 -26h-750zM86 82q0 -8 5 -13t13 -5h179q7 0 12.5 5t5.5 13v107q0 7 -5.5 12.5t-12.5 5.5h-179q-8 0 -13 -5.5t-5 -12.5v-107zM86 296q0 -17 18 -17h179
q18 0 18 17v108q0 17 -18 17h-179q-18 0 -18 -17v-108zM86 511q0 -7 5 -12.5t13 -5.5h179q7 0 12.5 5.5t5.5 12.5v107q0 8 -5.5 13t-12.5 5h-179q-8 0 -13 -5t-5 -13v-107zM372 82q0 -8 5 -13t13 -5h179q17 0 17 18v107q0 18 -17 18h-179q-8 0 -13 -5.5t-5 -12.5v-107z
M372 296q0 -17 18 -17h179q17 0 17 17v108q0 17 -17 17h-179q-18 0 -18 -17v-108zM372 511q0 -7 5 -12.5t13 -5.5h179q17 0 17 18v107q0 18 -17 18h-179q-8 0 -13 -5t-5 -13v-107zM658 82q0 -8 5 -13t13 -5h178q8 0 13 5t5 13v107q0 7 -5 12.5t-13 5.5h-178q-8 0 -13 -5.5
t-5 -12.5v-107zM658 296q0 -17 18 -17h178q18 0 18 17v108q0 17 -18 17h-178q-18 0 -18 -17v-108zM658 511q0 -7 5 -12.5t13 -5.5h178q8 0 13 5.5t5 12.5v107q0 8 -5 13t-13 5h-178q-8 0 -13 -5t-5 -13v-107z" />
    <glyph glyph-name="uniF0D0" unicode="&#xf0d0;" horiz-adv-x="944" 
d="M25 107l718 718q10 10 25 10t25 -10l110 -111q10 -10 10 -25t-10 -25l-717 -717q-11 -11 -25 -11t-25 11l-111 110q-10 10 -10 25t10 25zM71 779l55 16l17 55l17 -55l54 -16l-54 -17l-17 -55l-17 55zM179 671l109 34l33 109l34 -109l109 -34l-109 -33l-34 -109l-33 109z
M429 779l54 16l17 55l17 -55l54 -16l-54 -17l-17 -55l-17 55zM604 585l60 -59l164 163l-60 60zM786 421l54 17l17 55l17 -55l55 -17l-55 -16l-17 -55l-17 55z" />
    <glyph glyph-name="uniF0D2" unicode="&#xf0d2;" horiz-adv-x="887" 
d="M15 350q0 123 60 219.5t153 151.5q101 58 216 58q123 0 219.5 -60t151.5 -154q57 -99 57 -215q0 -123 -60 -219.5t-153 -151.5q-101 -58 -215 -58q-62 0 -122 18q32 51 43 92q1 5 5 20l12 43l14 55q11 -22 41.5 -38t62.5 -16q72 0 123.5 40t78.5 103q30 71 30 151
q0 71 -36 124.5t-94 85.5q-66 36 -142 36q-169 0 -257 -121q-49 -68 -49 -147q0 -59 23 -103t65 -61q8 -1 12 -1t7 7t4.5 12t3.5 14t3 13q3 14 -6 24q-29 35 -29 84q0 86 58 145q59 60 153 60q81 0 130 -44t49 -120q0 -54 -14 -104.5t-46.5 -87t-76.5 -36.5
q-34 0 -54.5 24.5t-12.5 58.5q3 15 15.5 56t15.5 53q7 30 7 43q0 28 -15.5 46t-42.5 18q-37 0 -60 -33.5t-23 -77.5q0 -40 14 -68l-55 -233q-9 -37 -7 -99q-110 49 -183.5 153.5t-73.5 239.5z" />
    <glyph glyph-name="uniF0D3" unicode="&#xf0d3;" horiz-adv-x="887" 
d="M15 82v536q0 66 47.5 113.5t113.5 47.5h535q66 0 113.5 -47.5t47.5 -113.5v-536q0 -66 -47.5 -113.5t-113.5 -47.5h-404q45 63 60 118q1 5 5 20l11 41l14 55q11 -22 40.5 -37.5t62.5 -15.5q105 0 167 85.5t62 205.5q0 95 -73 168q-77 75 -195 75q-167 0 -254 -120
q-49 -67 -49 -145q0 -59 22.5 -102t64.5 -60q17 -6 21 10q2 6 3.5 14t2.5 12.5t2 7.5q3 13 -6 24q-28 34 -28 84q0 84 58 143t151 59q80 0 128 -43.5t48 -118.5q0 -54 -13.5 -103.5t-45.5 -86t-75 -36.5q-33 0 -54 24t-13 58q3 14 15.5 56t15.5 53q6 24 6 41q0 28 -15 46
t-41 18q-37 0 -59.5 -33t-22.5 -76q0 -42 13 -68l-54 -231q-13 -54 -4 -142h-102q-66 0 -113.5 47.5t-47.5 113.5z" />
    <glyph glyph-name="uniF0D4" unicode="&#xf0d4;" horiz-adv-x="887" 
d="M15 351q57 -66 152 -66q18 0 39 3q-11 -32 -11 -48q0 -36 35 -83q-131 -5 -215 -48v242zM15 611q0 70 46 119t115 49h535q66 0 113.5 -47.5t47.5 -113.5v-54h-143v143h-71v-143h-143v-71h143v-143h71v143h143v-411q0 -66 -47.5 -113.5t-113.5 -47.5h-261q22 40 22 88
q0 54 -21.5 89t-61.5 71q-5 5 -33 27t-39 37q-12 17 -12 33q0 33 44 72q38 35 59.5 71t21.5 90q0 44 -16 84t-41 63q-2 2 -10 7t-11 9l-2 2l-2 4q-1 1 -2 3h76l75 36h-244q-161 0 -238 -96zM22 35q47 88 214 88q21 0 27 -1q52 -35 86 -66q15 -15 27 -33q17 -25 17 -62
q0 -25 -5 -40h-212q-55 0 -97.5 33t-56.5 81zM69 536q0 55 29.5 93t79.5 38q72 0 113 -81q35 -70 35 -144q0 -123 -102 -123q-82 0 -129 104q-26 57 -26 113z" />
    <glyph glyph-name="uniF0D5" unicode="&#xf0d5;" horiz-adv-x="959" 
d="M457 734q37 -23 60 -67t23 -97q0 -77 -44 -125l-30 -29q-27 -26 -38 -41q-13 -17 -13 -38q0 -26 33 -55l35 -28q30 -25 39.5 -35.5t28 -34t25.5 -48.5t7 -56q0 -89 -79 -157q-85 -73 -234 -73q-118 0 -195 57q-60 43 -60 117q0 40 21.5 77t52.5 60q86 62 251 67
q-35 45 -35 83q0 9 2 17t5.5 17t4.5 14q-15 -2 -39 -2q-83 0 -143 54q-59 53 -59 138q0 80 54.5 140.5t128.5 77.5q60 12 105 12h244l-76 -45h-75zM118 50q0 -58 39.5 -92t99.5 -48q35 -9 71 -9q77 0 126.5 32.5t49.5 98.5q0 36 -29 79q-6 10 -31 31q-20 18 -70 52
q-6 1 -28 1q-164 0 -213 -86q-15 -25 -15 -59zM288 738q-51 0 -80 -37.5t-29 -92.5q0 -91 58 -166q40 -52 97 -52q103 0 103 124q0 69 -36 143q-16 34 -45.5 57.5t-67.5 23.5zM586 564v72h143v143h72v-143h143v-72h-143v-143h-72v143h-143z" />
    <glyph glyph-name="uniF0D6" unicode="&#xf0d6;" horiz-adv-x="1101" 
d="M51 -7q-14 0 -25 11t-11 25v642q0 14 11 25t25 11h1000q14 0 24.5 -11t10.5 -25v-642q0 -14 -10.5 -25t-24.5 -11h-1000zM86 207q58 0 100.5 -42.5t42.5 -100.5h643q0 58 42 100.5t101 42.5v286q-59 0 -101 42.5t-42 100.5h-643q0 -58 -42.5 -100.5t-100.5 -42.5v-286z
M372 350q0 82 45 154q21 33 56 55.5t78 22.5q84 0 133 -78q45 -72 45 -154t-45 -154q-49 -78 -133 -78q-43 0 -78 22.5t-56 55.5q-45 72 -45 154zM440 434l43 -44q24 21 31 31h1v-160h-71v-54h214v54h-72v250h-63z" />
    <glyph glyph-name="uniF0DB" unicode="&#xf0db;" horiz-adv-x="959" 
d="M104 -79q-37 0 -63 26.5t-26 63.5v678q0 37 26 63.5t63 26.5h750q37 0 63.5 -26.5t26.5 -63.5v-678q0 -37 -26.5 -63.5t-63.5 -26.5h-750zM86 11q0 -7 5 -12.5t13 -5.5h340v643h-358v-625zM515 -7h339q8 0 13 5.5t5 12.5v625h-357v-643z" />
    <glyph glyph-name="uniF0DC" unicode="&#xf0dc;" horiz-adv-x="601" 
d="M15 243q0 14 11 25t25 11h500q14 0 24.5 -11t10.5 -25q0 -15 -10 -25l-250 -250q-11 -11 -25 -11t-25 11l-250 250q-11 11 -11 25zM15 457q0 14 11 25l250 250q11 11 25 11t25 -11l250 -250q10 -10 10 -25q0 -14 -10.5 -25t-24.5 -11h-500q-14 0 -25 11t-11 25z" />
    <glyph glyph-name="uniF0DD" unicode="&#xf0dd;" horiz-adv-x="601" 
d="M15 243q0 14 11 25t25 11h500q14 0 24.5 -11t10.5 -25q0 -15 -10 -25l-250 -250q-11 -11 -25 -11t-25 11l-250 250q-11 11 -11 25z" />
    <glyph glyph-name="uniF0DE" unicode="&#xf0de;" horiz-adv-x="601" 
d="M15 457q0 14 11 25l250 250q11 11 25 11t25 -11l250 -250q10 -10 10 -25q0 -14 -10.5 -25t-24.5 -11h-500q-14 0 -25 11t-11 25z" />
    <glyph glyph-name="uniF0E0" unicode="&#xf0e0;" 
d="M104 -79q-37 0 -63 26.5t-26 63.5v443q25 -29 56 -49q234 -160 278 -192q7 -5 18.5 -14l16.5 -13l14 -9q9 -6 16 -9l17 -9q10 -5 22 -10q32 -13 61 -13h2q27 0 60.5 13t53.5 27q27 18 51 37l278 192q34 24 56 49v-443q0 -37 -26 -63.5t-63 -26.5h-822zM15 606
q0 44 23.5 72.5t65.5 28.5h822q36 0 62.5 -26.5t26.5 -62.5q0 -86 -95 -153l-128 -89l-96 -66l-61 -43q-42 -30 -59 -40q-36 -20 -60 -20h-2q-33 0 -89 38q-29 20 -53 39l-261 181q-33 23 -64.5 63.5t-31.5 77.5z" />
    <glyph glyph-name="uniF0E1" unicode="&#xf0e1;" horiz-adv-x="800" 
d="M15 665q0 38 27.5 65.5t65.5 27.5t65.5 -27.5t27.5 -65.5t-27.5 -65.5t-65.5 -27.5t-65.5 27.5t-27.5 65.5zM40 -7q-8 0 -14 6t-6 13v485q0 7 6 13t14 6h137q7 0 13 -6t6 -13v-485q0 -8 -6 -13.5t-13 -5.5h-137zM271 12v485q0 7 6 13t14 6h133q13 0 16.5 -8.5t3.5 -26.5
q52 48 137 48q96 0 150 -48.5t54 -141.5v-327q0 -7 -6 -13t-14 -6h-141q-8 0 -13.5 5.5t-5.5 13.5v296q0 40 -15 58t-53 18q-89 0 -89 -109v-263q0 -8 -6 -13.5t-14 -5.5h-137q-8 0 -14 6t-6 13z" />
    <glyph glyph-name="uniF0E4" unicode="&#xf0e4;" 
d="M15 207q0 106 41 198t105 156t156 105t198 41t198 -41t156 -105t105 -156t41 -198q0 -143 -79 -269q-11 -17 -30 -17h-782q-19 0 -30 17q-79 125 -79 269zM86 207q0 -29 21.5 -50t50.5 -21t50 21t21 50t-21 50.5t-50 21.5t-50.5 -21.5t-21.5 -50.5zM194 457q0 -29 21 -50
t50 -21t50 21t21 50t-21 50.5t-50 21.5t-50 -21.5t-21 -50.5zM411 127q-11 -43 11.5 -81.5t61.5 -49.5t85 11q31 18 46 54t0 77q-12 32 -40 51l57 213q5 22 -13.5 37t-39.5 3q-12 -7 -17 -22l-56 -213q-35 -3 -61 -25.5t-34 -54.5zM444 564q0 -29 21 -50t50 -21t50 21t21 50
t-21 50.5t-50 21.5t-50 -21.5t-21 -50.5zM694 457q0 -29 21 -50t50 -21t50 21t21 50t-21 50.5t-50 21.5t-50 -21.5t-21 -50.5zM801 207q0 -29 21 -50t50 -21t50.5 21t21.5 50t-21.5 50.5t-50.5 21.5t-50 -21.5t-21 -50.5z" />
    <glyph glyph-name="uniF0E5" unicode="&#xf0e5;" 
d="M111 -150q-18 0 -24 21v1q-5 7 11 27l25 28q17 19 30 35.5t21 32.5q21 42 30 75q-87 50 -138 123t-51 157q0 97 67 179q65 81 180.5 129.5t252.5 48.5t252.5 -48.5t180.5 -129.5q67 -82 67 -179t-67 -179q-65 -81 -180.5 -129.5t-252.5 -48.5q-44 0 -81 4
q-111 -97 -257 -135q-27 -8 -63 -12h-3zM86 350q0 -63 40 -119q39 -55 113 -98l48 -28l-15 -54q-14 -51 -39 -96q81 33 154 96l24 21l31 -3q43 -5 73 -5q115 0 214 39.5t156 104.5q59 67 59 142t-59 142q-57 65 -156 104.5t-214 39.5q-114 0 -213.5 -39.5t-156.5 -104.5
q-59 -67 -59 -142z" />
    <glyph glyph-name="uniF0E6" unicode="&#xf0e6;" 
d="M163 198q-64 37 -106 93.5t-42 129.5q0 86 56.5 149.5t139.5 98.5q91 38 197 38q108 0 198.5 -39t141.5 -103q53 -67 53 -144q0 -86 -56.5 -149t-139.5 -98q-91 -38 -197 -38q-48 0 -98 9q-92 -65 -203 -81h-2q-8 0 -13.5 6t-5.5 14q0 5 12 21q5 7 18 20.5t21.5 24.5
t14.5 23q2 3 3.5 7t4 9.5t3.5 8.5zM86 421q0 -95 113 -161l54 -32l-19 -47q11 6 34 22l25 18l29 -6q46 -8 86 -8q86 0 160 29.5t117 78.5q44 50 44 106q0 57 -44 107q-43 49 -117 78.5t-160 29.5t-160.5 -30t-117.5 -78q-44 -50 -44 -107zM359 67q10 0 26.5 -1.5t22.5 -1.5
q186 0 320 97q144 105 144 260q0 45 -13 85q67 -37 111.5 -94.5t44.5 -132.5q0 -137 -148 -224q11 -28 25 -46q23 -29 27 -33q3 -3 7 -6.5t6 -5.5t4 -5l4 -6q2 -3 3 -8v-7q-2 -7 -7.5 -12.5t-12.5 -4.5q-112 16 -203 81q-50 -9 -98 -9q-150 0 -263 74z" />
    <glyph glyph-name="uniF0E8" unicode="&#xf0e8;" 
d="M15 -25v179q0 22 15.5 37.5t38.5 15.5h53v107q0 28 22 50t50 22h285v107h-53q-23 0 -38.5 15.5t-15.5 37.5v179q0 23 16 38.5t38 15.5h178q22 0 38 -15.5t16 -38.5v-179q0 -22 -15.5 -37.5t-38.5 -15.5h-53v-107h285q28 0 50 -22t22 -50v-107h53q23 0 38.5 -15.5
t15.5 -37.5v-179q0 -23 -15.5 -38.5t-38.5 -15.5h-178q-23 0 -38.5 15.5t-15.5 38.5v179q0 22 15.5 37.5t38.5 15.5h53v107h-285v-107h53q23 0 38.5 -15.5t15.5 -37.5v-179q0 -23 -16 -38.5t-38 -15.5h-178q-22 0 -38 15.5t-16 38.5v179q0 22 15.5 37.5t38.5 15.5h53v107
h-285v-107h53q23 0 38.5 -15.5t15.5 -37.5v-179q0 -23 -15.5 -38.5t-38.5 -15.5h-178q-23 0 -38.5 15.5t-15.5 38.5z" />
    <glyph glyph-name="uniF0EA" unicode="&#xf0ea;" 
d="M69 -7q-23 0 -38.5 15.5t-15.5 37.5v750q0 22 15.5 38t38.5 16h607q22 0 37.5 -15.5t15.5 -38.5v-183q13 -8 20 -15l228 -228q15 -15 26.5 -41.5t11.5 -49.5v-375q0 -22 -15.5 -38t-38.5 -16h-535q-22 0 -38 16t-16 38v89h-303zM158 725q0 -7 5 -12.5t13 -5.5h393
q17 0 17 18v36q0 18 -17 18h-393q-8 0 -13 -5.5t-5 -12.5v-36zM711 279q-23 0 -38 15.5t-15 37.5v232h-214v-643h500v358h-233zM729 350h167l-167 167v-167z" />
    <glyph glyph-name="uniF0EB" unicode="&#xf0eb;" horiz-adv-x="601" 
d="M219 -25q-26 0 -43.5 14.5t-17.5 39.5q0 13 7 26q-25 16 -25 45q0 20 14 36q-14 16 -14 35q0 31 26 46q-4 52 -52 113q-21 27 -42 49q-57 63 -57 150q0 57 25.5 104.5t64.5 77.5q86 68 196 68q109 0 195 -68q39 -30 64.5 -77.5t25.5 -104.5q0 -87 -57 -150
q-29 -32 -43.5 -51t-31.5 -51q-18 -34 -19 -60q26 -15 26 -46q0 -19 -14 -35q14 -16 14 -36q0 -29 -25 -45q8 -14 8 -26q0 -25 -17.5 -39.5t-43.5 -14.5q-10 -23 -32 -38.5t-50 -15.5t-50 15.5t-32 38.5zM124 428q3 -3 17 -18t17 -19q71 -85 79 -166h127q8 81 79 166
q3 4 17 19t17 18q38 44 38 101q0 63 -39.5 105t-98.5 61q-37 12 -76 12q-80 0 -145 -47q-70 -51 -70 -131q0 -57 38 -101zM283 600q0 8 5.5 13t12.5 5q65 0 104 -39q21 -21 21 -50q0 -7 -5 -12.5t-13 -5.5t-13 5.5t-5 12.5q0 25 -30 39q-31 14 -59 14q-7 0 -12.5 5t-5.5 13z
" />
    <glyph glyph-name="uniF0EC" unicode="&#xf0ec;" 
d="M229 -43q0 -7 -5.5 -12.5t-12.5 -5.5t-13 6l-178 178q-5 5 -5 13t5 13l179 178q5 5 12 5t12.5 -5t5.5 -13v-107h768q7 0 12.5 -5.5t5.5 -12.5v-107q0 -8 -5.5 -13t-12.5 -5h-768v-107zM15 439v107q0 8 5.5 13t12.5 5h768v107q0 7 5.5 12.5t12.5 5.5q8 0 13 -5l178 -178
q5 -5 5 -13t-5 -13l-179 -179q-5 -5 -12 -5t-12.5 5t-5.5 13v107h-768q-7 0 -12.5 5.5t-5.5 12.5z" />
    <glyph glyph-name="uniF0ED" unicode="&#xf0ed;" horiz-adv-x="1101" 
d="M15 243q0 76 41 136.5t103 89.5q-1 11 -1 24q0 118 84 202t202 84q92 0 162.5 -51t101.5 -127q40 35 93 35q59 0 101 -42t42 -101q0 -42 -23 -77q69 -16 117 -74t48 -135q0 -89 -62 -151q-63 -63 -152 -63h-607q-104 0 -177 73t-73 177zM301 332q0 -8 5 -13l196 -196
q5 -5 13 -5t13 5l196 196q5 5 5 13t-5.5 13t-12.5 5h-125v196q0 18 -17 18h-108q-17 0 -17 -18v-196h-125q-7 0 -12.5 -5t-5.5 -13z" />
    <glyph glyph-name="uniF0EE" unicode="&#xf0ee;" horiz-adv-x="1101" 
d="M15 243q0 76 41 136.5t103 89.5q-1 11 -1 24q0 118 84 202t202 84q92 0 162.5 -51t101.5 -127q40 35 93 35q59 0 101 -42t42 -101q0 -42 -23 -77q69 -16 117 -74t48 -135q0 -89 -62 -151q-63 -63 -152 -63h-607q-104 0 -177 73t-73 177zM301 368q0 -8 5.5 -13t12.5 -5
h125v-196q0 -18 17 -18h108q17 0 17 18v196h125q7 0 12.5 5t5.5 13t-5 13l-196 196q-5 5 -13 5t-13 -5l-196 -196q-5 -5 -5 -13z" />
    <glyph glyph-name="uniF0F0" unicode="&#xf0f0;" horiz-adv-x="816" 
d="M164 -79q-68 0 -108.5 39t-40.5 106q0 204 88 281q27 24 67 34q-12 -29 -12 -67v-113q-31 -10 -51.5 -37.5t-20.5 -63.5q0 -44 32 -75.5t76 -31.5t75.5 31.5t31.5 75.5q0 35 -21 63t-51 38v113q0 33 14 52q73 -58 165 -58q91 0 164 58q14 -19 14 -52v-35q-58 0 -100 -42
t-42 -101v-50q-18 -17 -18 -40q0 -22 15 -37.5t38 -15.5t38.5 15.5t15.5 37.5q0 24 -18 40v50q0 28 21.5 49.5t49.5 21.5q29 0 50.5 -21.5t21.5 -49.5v-50q-18 -17 -18 -40q0 -22 15.5 -37.5t38.5 -15.5q22 0 37.5 15.5t15.5 37.5q0 24 -18 40v50q0 41 -20 73t-51 50
q0 93 -12 122q37 -8 66 -33t46 -58q43 -85 43 -224q0 -67 -40.5 -106t-108.5 -39h-488zM158 100q0 14 11 25t25 11t24.5 -11t10.5 -25t-10.5 -25t-24.5 -11t-25 11t-11 25zM194 564q0 90 62 152q63 63 152 63q88 0 151 -63t63 -152q0 -88 -63 -151t-151 -63q-89 0 -152 63
q-62 62 -62 151z" />
    <glyph glyph-name="uniF0F1" unicode="&#xf0f1;" horiz-adv-x="816" 
d="M229 209q-86 10 -150 69t-64 143v286q0 14 11 25t25 11q5 0 9 -1q20 37 62 37q29 0 50.5 -21.5t21.5 -50.5t-21.5 -50t-50.5 -21q-19 0 -36 10v-225q0 -61 54.5 -101.5t124.5 -40.5t124.5 40.5t54.5 101.5v225q-17 -10 -36 -10q-29 0 -50.5 21t-21.5 50t21.5 50.5
t50.5 21.5q42 0 62 -37q4 1 9 1q14 0 25 -11t11 -25v-286q0 -84 -64 -143t-150 -69v-73q0 -62 54 -102.5t124 -40.5t124.5 41t54.5 102v220q-30 11 -51 38t-21 63q0 44 32 75.5t76 31.5t75.5 -31.5t31.5 -75.5q0 -36 -21 -63t-51 -38v-220q0 -89 -73 -152q-74 -63 -177 -63
t-176 63q-74 63 -74 152v73zM658 457q0 -14 11 -25t25 -11t24.5 11t10.5 25t-10.5 25t-24.5 11t-25 -11t-11 -25z" />
    <glyph glyph-name="uniF0F2" unicode="&#xf0f2;" 
d="M140 -79q-51 0 -88 37t-37 88v465q0 51 37 88t88 37h36v-715h-36zM676 779q22 0 37.5 -15.5t15.5 -38.5v-89h72v-715h-572v715h72v89q0 23 15.5 38.5t37.5 15.5h322zM658 636v71h-286v-71h286zM854 -79v715h36q51 0 88 -37t37 -88v-465q0 -51 -37 -88t-88 -37h-36z" />
    <glyph glyph-name="uniF0F3" unicode="&#xf0f3;" horiz-adv-x="959" 
d="M15 64q98 83 156 212.5t58 287.5q0 93 54.5 147t146.5 65q-4 9 -4 20q0 23 15.5 38.5t37.5 15.5q23 0 38.5 -16t15.5 -38q0 -8 -5 -20q92 -11 146.5 -65t54.5 -147q0 -158 58.5 -287.5t156.5 -212.5q0 -28 -21.5 -49.5t-50.5 -21.5h-250q0 -59 -42 -101t-101 -42t-101 42
t-42 101h-250q-28 0 -49.5 21.5t-21.5 49.5zM381 -7q0 -41 28.5 -69.5t69.5 -28.5q9 0 9 9q0 8 -9 8q-33 0 -56.5 24t-23.5 57q0 9 -9 9t-9 -9z" />
    <glyph glyph-name="uniF0F4" unicode="&#xf0f4;" horiz-adv-x="1066" 
d="M158 -79q-58 0 -100.5 42.5t-42.5 100.5h1000q0 -58 -42.5 -100.5t-100.5 -42.5h-714zM283 136q-51 0 -88 37t-37 88v410q0 14 11 25t25 11h642q89 0 152 -63t63 -151q0 -89 -63 -152q-62 -62 -152 -62h-35v-18q0 -51 -37 -88t-88 -37h-393zM801 386h35q44 0 76 31.5
t32 75.5t-32 75.5t-76 31.5h-35v-214z" />
    <glyph glyph-name="uniF0F5" unicode="&#xf0f5;" horiz-adv-x="816" 
d="M86 356q-30 10 -50.5 38t-20.5 63v357q0 14 11 25t25 11t24.5 -11t10.5 -25v-232q0 -14 11 -25t25 -11t25 11t11 25v232q0 14 11 25t25 11t24.5 -11t10.5 -25v-232q0 -14 11 -25t25 -11t25 11t11 25v232q0 14 10.5 25t24.5 11t25 -11t11 -25v-357q0 -35 -20.5 -63
t-50.5 -38v-435q0 -28 -21.5 -49.5t-50.5 -21.5h-71q-29 0 -50.5 21.5t-21.5 49.5v435zM444 225v446q0 73 52.5 126t125.5 53h143q14 0 25 -11t11 -25v-893q0 -28 -21.5 -49.5t-50.5 -21.5h-71q-29 0 -50.5 21.5t-21.5 49.5v286h-125q-17 0 -17 18z" />
    <glyph glyph-name="uniF0F6" unicode="&#xf0f6;" horiz-adv-x="744" 
d="M69 -79q-23 0 -38.5 15.5t-15.5 38.5v750q0 23 15.5 38.5t38.5 15.5h303q23 0 50.5 -12t41.5 -26l227 -228q14 -14 26 -41t12 -51v-446q0 -23 -15.5 -38.5t-37.5 -15.5h-607zM426 421q-22 0 -38 15.5t-16 38.5v232h-286v-714h572v428h-232zM176 136q-8 0 -13 5t-5 13v35
q0 7 5 12.5t13 5.5h393q17 0 17 -18v-35q0 -18 -17 -18h-393zM176 279q-18 0 -18 17v36q0 8 5 13t13 5h393q17 0 17 -18v-36q0 -17 -17 -17h-393zM444 493h166l-166 167v-167z" />
    <glyph glyph-name="uniF0F7" unicode="&#xf0f7;" horiz-adv-x="816" 
d="M51 -150q-14 0 -25 11t-11 25v928q0 14 11 25t25 11h714q14 0 25 -11t11 -25v-928q0 -14 -11 -25t-25 -11h-714zM497 64q7 0 12.5 -5t5.5 -13v-125h214v858h-643v-858h215v125q0 8 5.5 13t12.5 5h178zM176 64q-8 0 -13 5t-5 13v36q0 8 5 13t13 5h35q7 0 12.5 -5t5.5 -13
v-36q0 -8 -5.5 -13t-12.5 -5h-35zM176 207q-8 0 -13 5.5t-5 12.5v36q0 7 5 12.5t13 5.5h35q7 0 12.5 -5.5t5.5 -12.5v-36q0 -7 -5.5 -12.5t-12.5 -5.5h-35zM176 350q-8 0 -13 5t-5 13v36q0 17 18 17h35q18 0 18 -17v-36q0 -8 -5.5 -13t-12.5 -5h-35zM176 493q-8 0 -13 5.5
t-5 12.5v35q0 8 5 13t13 5h35q7 0 12.5 -5t5.5 -13v-35q0 -7 -5.5 -12.5t-12.5 -5.5h-35zM176 636q-8 0 -13 5t-5 13v35q0 7 5 12.5t13 5.5h35q7 0 12.5 -5.5t5.5 -12.5v-35q0 -8 -5.5 -13t-12.5 -5h-35zM319 207q-7 0 -12.5 5.5t-5.5 12.5v36q0 7 5.5 12.5t12.5 5.5h35
q8 0 13 -5.5t5 -12.5v-36q0 -7 -5 -12.5t-13 -5.5h-35zM319 350q-7 0 -12.5 5t-5.5 13v36q0 17 18 17h35q18 0 18 -17v-36q0 -8 -5 -13t-13 -5h-35zM319 493q-7 0 -12.5 5.5t-5.5 12.5v35q0 8 5.5 13t12.5 5h35q8 0 13 -5t5 -13v-35q0 -7 -5 -12.5t-13 -5.5h-35zM319 636
q-7 0 -12.5 5t-5.5 13v35q0 7 5.5 12.5t12.5 5.5h35q8 0 13 -5.5t5 -12.5v-35q0 -8 -5 -13t-13 -5h-35zM461 207q-17 0 -17 18v36q0 18 17 18h36q7 0 12.5 -5.5t5.5 -12.5v-36q0 -7 -5.5 -12.5t-12.5 -5.5h-36zM461 350q-17 0 -17 18v36q0 17 17 17h36q18 0 18 -17v-36
q0 -8 -5.5 -13t-12.5 -5h-36zM461 493q-17 0 -17 18v35q0 18 17 18h36q7 0 12.5 -5t5.5 -13v-35q0 -7 -5.5 -12.5t-12.5 -5.5h-36zM461 636q-17 0 -17 18v35q0 18 17 18h36q7 0 12.5 -5.5t5.5 -12.5v-35q0 -8 -5.5 -13t-12.5 -5h-36zM604 64q-8 0 -13 5t-5 13v36q0 8 5 13
t13 5h36q8 0 13 -5t5 -13v-36q0 -8 -5 -13t-13 -5h-36zM604 207q-8 0 -13 5.5t-5 12.5v36q0 7 5 12.5t13 5.5h36q8 0 13 -5.5t5 -12.5v-36q0 -7 -5 -12.5t-13 -5.5h-36zM604 350q-8 0 -13 5t-5 13v36q0 17 18 17h36q18 0 18 -17v-36q0 -8 -5 -13t-13 -5h-36zM604 493
q-8 0 -13 5.5t-5 12.5v35q0 8 5 13t13 5h36q8 0 13 -5t5 -13v-35q0 -7 -5 -12.5t-13 -5.5h-36zM586 654v35q0 7 5 12.5t13 5.5h36q8 0 13 -5.5t5 -12.5v-35q0 -8 -5 -13t-13 -5h-36q-8 0 -13 5t-5 13z" />
    <glyph glyph-name="uniF0F8" unicode="&#xf0f8;" horiz-adv-x="816" 
d="M51 -150q-14 0 -25 11t-11 25v714q0 14 11 25t25 11h178v160q0 22 15.5 38t38.5 16h250q22 0 37.5 -15.5t15.5 -38.5v-160h179q14 0 25 -11t11 -25v-714q0 -14 -11 -25t-25 -11h-714zM283 493q-23 0 -38.5 15.5t-15.5 37.5v18h-143v-643h215v125q0 8 5.5 13t12.5 5h178
q7 0 12.5 -5t5.5 -13v-125h214v643h-143v-18q0 -22 -15 -37.5t-38 -15.5h-250zM176 64q-8 0 -13 5t-5 13v36q0 8 5 13t13 5h35q7 0 12.5 -5t5.5 -13v-36q0 -8 -5.5 -13t-12.5 -5h-35zM176 207q-8 0 -13 5.5t-5 12.5v36q0 7 5 12.5t13 5.5h35q7 0 12.5 -5.5t5.5 -12.5v-36
q0 -7 -5.5 -12.5t-12.5 -5.5h-35zM176 350q-8 0 -13 5t-5 13v36q0 17 18 17h35q18 0 18 -17v-36q0 -8 -5.5 -13t-12.5 -5h-35zM319 207q-7 0 -12.5 5.5t-5.5 12.5v36q0 7 5.5 12.5t12.5 5.5h35q8 0 13 -5.5t5 -12.5v-36q0 -7 -5 -12.5t-13 -5.5h-35zM319 350q-7 0 -12.5 5
t-5.5 13v36q0 17 18 17h35q18 0 18 -17v-36q0 -8 -5 -13t-13 -5h-35zM301 582q0 -8 5.5 -13t12.5 -5h35q8 0 13 5t5 13v54h72v-54q0 -18 17 -18h36q7 0 12.5 5t5.5 13v179q0 7 -5.5 12.5t-12.5 5.5h-36q-17 0 -17 -18v-54h-72v54q0 7 -5 12.5t-13 5.5h-35q-7 0 -12.5 -5.5
t-5.5 -12.5v-179zM461 207q-17 0 -17 18v36q0 18 17 18h36q7 0 12.5 -5.5t5.5 -12.5v-36q0 -7 -5.5 -12.5t-12.5 -5.5h-36zM461 350q-17 0 -17 18v36q0 17 17 17h36q18 0 18 -17v-36q0 -8 -5.5 -13t-12.5 -5h-36zM604 64q-8 0 -13 5t-5 13v36q0 8 5 13t13 5h36q8 0 13 -5
t5 -13v-36q0 -8 -5 -13t-13 -5h-36zM604 207q-8 0 -13 5.5t-5 12.5v36q0 7 5 12.5t13 5.5h36q8 0 13 -5.5t5 -12.5v-36q0 -7 -5 -12.5t-13 -5.5h-36zM586 368v36q0 17 18 17h36q18 0 18 -17v-36q0 -8 -5 -13t-13 -5h-36q-8 0 -13 5t-5 13z" />
    <glyph glyph-name="uniF0F9" unicode="&#xf0f9;" horiz-adv-x="1066" 
d="M15 100q0 14 11 25t25 11v232q0 36 25 61l110 110q25 25 61 25h89v179q0 14 11 25t25 11h643q14 0 25 -11t11 -25v-643q0 -14 -11 -25t-25 -11h-107q0 -58 -42 -100.5t-101 -42.5t-101 42.5t-42 100.5h-214q0 -58 -42 -100.5t-101 -42.5t-101 42.5t-42 100.5h-71
q-14 0 -25 11t-11 25zM336 350v143h-88q-9 -2 -12 -5l-109 -109q-3 -4 -5 -12v-17h214zM194 64q0 -29 21 -50t50 -21t50 21t21 50t-21 50.5t-50 21.5t-50 -21.5t-21 -50.5zM479 439q0 -7 5.5 -12.5t12.5 -5.5h125v-125q0 -17 18 -17h107q18 0 18 17v125h125q8 0 13 5.5
t5 12.5v107q0 8 -5 13t-13 5h-125v125q0 7 -5.5 12.5t-12.5 5.5h-107q-8 0 -13 -5.5t-5 -12.5v-125h-125q-7 0 -12.5 -5t-5.5 -13v-107zM694 64q0 -29 21 -50t50 -21t50 21t21 50t-21 50.5t-50 21.5t-50 -21.5t-21 -50.5z" />
    <glyph glyph-name="uniF0FA" unicode="&#xf0fa;" 
d="M140 -79q-51 0 -88 37t-37 88v465q0 51 37 88t88 37h18v-715h-18zM676 779q22 0 37.5 -15.5t15.5 -38.5v-89h90v-715h-608v715h90v89q0 23 15.5 38.5t37.5 15.5h322zM301 225q0 -7 5.5 -12.5t12.5 -5.5h125v-125q0 -18 17 -18h108q17 0 17 18v125h125q7 0 12.5 5.5
t5.5 12.5v107q0 8 -5.5 13t-12.5 5h-125v125q0 18 -17 18h-108q-17 0 -17 -18v-125h-125q-7 0 -12.5 -5t-5.5 -13v-107zM658 636v71h-286v-71h286zM872 -79v715h18q51 0 88 -37t37 -88v-465q0 -51 -37 -88t-88 -37h-18z" />
    <glyph glyph-name="uniF0FB" unicode="&#xf0fb;" horiz-adv-x="1101" 
d="M15 350v71l107 14v4h-71v18h-18v107l18 18h53l107 -125h90v232h-36v18h179q35 0 35 -9t-35 -9h-39l164 -196h35l125 -36l197 -18q154 -34 160 -53q0 -18 -160 -54l-197 -18l-125 -35h-35l-164 -197h39q35 0 35 -9t-35 -9h-179v18h36v232h-90l-107 -125h-53l-18 18v107h18
v18h71v5z" />
    <glyph glyph-name="uniF0FC" unicode="&#xf0fc;" horiz-adv-x="923" 
d="M282 207q-118 0 -174.5 57t-56.5 176v160l-36 36l18 71h268l18 72h535l18 -108l-36 -17v-447l72 -107v-107h-643v107l71 107h-54zM194 475q0 -32 1 -47.5t7 -34.5t18 -29q9 -7 44 -13q6 -2 34.5 -1.5t37.5 0.5v214h-142v-89z" />
    <glyph glyph-name="uniF0FD" unicode="&#xf0fd;" horiz-adv-x="887" 
d="M176 -79q-66 0 -113.5 47.5t-47.5 113.5v536q0 66 47.5 113.5t113.5 47.5h535q66 0 113.5 -47.5t47.5 -113.5v-536q0 -66 -47.5 -113.5t-113.5 -47.5h-535zM158 100q0 -14 11 -25t25 -11h71q14 0 25 11t11 25v179h285v-179q0 -14 11 -25t25 -11h72q14 0 24.5 11t10.5 25
v500q0 14 -10.5 25t-24.5 11h-72q-14 0 -25 -11t-11 -25v-179h-285v179q0 14 -11 25t-25 11h-71q-14 0 -25 -11t-11 -25v-500z" />
    <glyph glyph-name="uniF0FE" unicode="&#xf0fe;" horiz-adv-x="887" 
d="M176 -79q-66 0 -113.5 47.5t-47.5 113.5v536q0 66 47.5 113.5t113.5 47.5h535q66 0 113.5 -47.5t47.5 -113.5v-536q0 -66 -47.5 -113.5t-113.5 -47.5h-535zM158 314q0 -14 11 -24.5t25 -10.5h178v-179q0 -14 11 -25t25 -11h71q14 0 25 11t11 25v179h179q14 0 24.5 10.5
t10.5 24.5v72q0 14 -10.5 24.5t-24.5 10.5h-179v179q0 14 -11 25t-25 11h-71q-14 0 -25 -11t-11 -25v-179h-178q-14 0 -25 -10.5t-11 -24.5v-72z" />
    <glyph glyph-name="uniF100" unicode="&#xf100;" horiz-adv-x="569" 
d="M21 327l260 260q6 6 12 6q7 0 13 -6l28 -28q6 -6 6 -13q0 -6 -6 -12l-219 -220l219 -219q6 -6 6 -13t-6 -13l-28 -28q-5 -5 -13 -5q-7 0 -12 5l-260 260q-6 6 -6 13t6 13zM229 314q0 7 6 13l260 260q6 6 13 6t13 -6l27 -28q6 -6 6 -13q0 -6 -6 -12l-219 -220l219 -219
q6 -6 6 -13t-6 -13l-27 -28q-5 -5 -13 -5t-13 5l-260 260q-6 6 -6 13z" />
    <glyph glyph-name="uniF101" unicode="&#xf101;" horiz-adv-x="569" 
d="M21 95l219 219l-219 220q-6 6 -6 12q0 7 6 13l27 28q6 6 13 6t13 -6l260 -260q6 -6 6 -13t-6 -13l-260 -260q-5 -5 -13 -5t-13 5l-27 28q-6 6 -6 13t6 13zM229 82q0 7 6 13l219 219l-219 220q-6 6 -6 12q0 7 6 13l28 28q6 6 13 6q6 0 12 -6l260 -260q6 -6 6 -13t-6 -13
l-260 -260q-5 -5 -12 -5q-8 0 -13 5l-28 28q-6 6 -6 13z" />
    <glyph glyph-name="uniF102" unicode="&#xf102;" horiz-adv-x="587" 
d="M21 131l260 260q5 5 12 5q8 0 13 -5l260 -260q6 -6 6 -13t-6 -13l-28 -28q-5 -5 -12 -5q-8 0 -13 5l-220 219l-219 -219q-5 -5 -13 -5t-13 5l-27 28q-6 6 -6 13t6 13zM15 332q0 7 6 13l260 260q6 6 12 6q7 0 13 -6l260 -260q6 -6 6 -13t-6 -13l-28 -28q-5 -5 -12 -5
q-8 0 -13 5l-220 220l-219 -220q-5 -5 -13 -5t-13 5l-27 28q-6 6 -6 13z" />
    <glyph glyph-name="uniF103" unicode="&#xf103;" horiz-adv-x="587" 
d="M21 381l27 28q5 5 13 5t13 -5l219 -220l220 220q5 5 13 5q7 0 12 -5l28 -28q6 -6 6 -13t-6 -13l-260 -260q-6 -6 -13 -6q-6 0 -12 6l-260 260q-6 6 -6 13t6 13zM15 582q0 7 6 13l27 28q5 5 13 5t13 -5l219 -219l220 219q5 5 13 5q7 0 12 -5l28 -28q6 -6 6 -13t-6 -13
l-260 -260q-5 -5 -13 -5q-7 0 -12 5l-260 260q-6 6 -6 13z" />
    <glyph glyph-name="uniF104" unicode="&#xf104;" horiz-adv-x="355" 
d="M15 314q0 7 6 13l260 260q6 6 12 6q7 0 13 -6l28 -28q6 -6 6 -13q0 -6 -6 -12l-219 -220l219 -219q6 -6 6 -13t-6 -13l-28 -28q-5 -5 -13 -5q-7 0 -12 5l-260 260q-6 6 -6 13z" />
    <glyph glyph-name="uniF105" unicode="&#xf105;" horiz-adv-x="355" 
d="M15 82q0 7 6 13l219 219l-219 220q-6 6 -6 12q0 7 6 13l27 28q6 6 13 6t13 -6l260 -260q6 -6 6 -13t-6 -13l-260 -260q-5 -5 -13 -5t-13 5l-27 28q-6 6 -6 13z" />
    <glyph glyph-name="uniF106" unicode="&#xf106;" horiz-adv-x="587" 
d="M15 189q0 7 6 13l260 260q6 6 12 6q7 0 13 -6l260 -260q6 -6 6 -13t-6 -13l-28 -27q-6 -6 -12 -6q-7 0 -13 6l-220 219l-219 -219q-6 -6 -13 -6t-13 6l-27 27q-6 6 -6 13z" />
    <glyph glyph-name="uniF107" unicode="&#xf107;" horiz-adv-x="587" 
d="M15 439q0 7 6 13l27 28q6 6 13 6t13 -6l219 -219l220 219q6 6 13 6q6 0 12 -6l28 -28q6 -6 6 -13t-6 -13l-260 -260q-5 -5 -13 -5q-7 0 -12 5l-260 260q-6 6 -6 13z" />
    <glyph glyph-name="uniF108" unicode="&#xf108;" horiz-adv-x="1101" 
d="M104 64q-37 0 -63 26.5t-26 63.5v607q0 37 26 63t63 26h893q37 0 63 -26t26 -63v-607q0 -37 -26 -63.5t-63 -26.5h-303q0 -31 26 -83q9 -17 9 -24q0 -14 -10.5 -25t-24.5 -11h-286q-14 0 -25 11t-11 25q0 9 9 25q27 49 27 82h-304zM86 296q0 -17 18 -17h893q18 0 18 17
v465q0 7 -5.5 12.5t-12.5 5.5h-893q-8 0 -13 -5.5t-5 -12.5v-465z" />
    <glyph glyph-name="uniF109" unicode="&#xf109;" horiz-adv-x="1101" 
d="M104 -7q-33 0 -61 14.5t-28 38.5v54h1071v-54q0 -24 -28 -38.5t-61 -14.5h-893zM247 136q-37 0 -63 26t-26 63v393q0 37 26 63t63 26h607q37 0 63.5 -26t26.5 -63v-393q0 -37 -26.5 -63t-63.5 -26h-607zM229 225q0 -7 5.5 -12.5t12.5 -5.5h607q8 0 13 5.5t5 12.5v393
q0 8 -5 13t-13 5h-607q-7 0 -12.5 -5t-5.5 -13v-393zM497 55q0 -9 9 -9h89q9 0 9 9t-9 9h-89q-9 0 -9 -9z" />
    <glyph glyph-name="uniF10A" unicode="&#xf10a;" horiz-adv-x="673" 
d="M104 -7q-37 0 -63 26t-26 63v607q0 37 26 63.5t63 26.5h465q37 0 63 -26.5t26 -63.5v-607q0 -37 -26 -63t-63 -26h-465zM86 154q0 -8 5 -13t13 -5h465q17 0 17 18v535q0 18 -17 18h-465q-8 0 -13 -5.5t-5 -12.5v-535zM301 64q0 -14 10.5 -24.5t24.5 -10.5t25 10.5
t11 24.5t-11 25t-25 11t-24.5 -11t-10.5 -25z" />
    <glyph glyph-name="uniF10B" unicode="&#xf10b;" horiz-adv-x="459" 
d="M86 -7q-28 0 -49.5 21.5t-21.5 49.5v572q0 28 21.5 49.5t49.5 21.5h286q29 0 50.5 -21.5t21.5 -49.5v-572q0 -28 -21.5 -49.5t-50.5 -21.5h-286zM69 154q0 -18 17 -18h286q8 0 13 5t5 13v392q0 8 -5 13t-13 5h-286q-17 0 -17 -18v-392zM185 618h89q9 0 9 9t-9 9h-89
q-9 0 -9 -9t9 -9zM185 64q0 -18 13 -31t31 -13t31.5 13t13.5 31t-13.5 31.5t-31.5 13.5t-31 -13.5t-13 -31.5z" />
    <glyph glyph-name="uniF10C" unicode="&#xf10c;" horiz-adv-x="887" 
d="M15 350q0 123 60 219.5t153 151.5q101 58 216 58q123 0 219.5 -60t151.5 -154q57 -99 57 -215q0 -123 -60 -219.5t-153 -151.5q-101 -58 -215 -58q-123 0 -220 60t-152 154q-57 99 -57 215zM158 350q0 -118 84 -202t202 -84t202 84q83 83 83 202t-83 202q-84 84 -202 84
t-202 -84t-84 -202z" />
    <glyph glyph-name="uniF10D" unicode="&#xf10d;" horiz-adv-x="959" 
d="M122 -7q-44 0 -75.5 31.5t-31.5 75.5v393q0 118 84 202t202 84h35q14 0 25 -11t11 -25v-72q0 -14 -11 -24.5t-25 -10.5h-35q-59 0 -101 -42t-42 -101v-18q0 -23 15.5 -38.5t37.5 -15.5h125q44 0 76 -31.5t32 -75.5v-214q0 -44 -32 -75.5t-76 -31.5h-214zM515 100v393
q0 118 84 202t202 84h35q14 0 25 -11t11 -25v-72q0 -14 -11 -24.5t-25 -10.5h-35q-59 0 -101 -42t-42 -101v-18q0 -23 15.5 -38.5t37.5 -15.5h125q44 0 76 -31.5t32 -75.5v-214q0 -44 -32 -75.5t-76 -31.5h-214q-44 0 -75.5 31.5t-31.5 75.5z" />
    <glyph glyph-name="uniF10E" unicode="&#xf10e;" horiz-adv-x="959" 
d="M122 350q-44 0 -75.5 31.5t-31.5 75.5v214q0 44 31.5 76t75.5 32h214q44 0 76 -32t32 -76v-392q0 -118 -84 -202t-202 -84h-36q-14 0 -25 11t-11 25v71q0 14 11 25t25 11h36q58 0 100.5 42t42.5 101v17q0 22 -15.5 38t-38.5 16h-125zM515 457v214q0 44 31.5 76t75.5 32
h214q44 0 76 -32t32 -76v-392q0 -118 -84 -202t-202 -84h-36q-14 0 -25 11t-11 25v71q0 14 11 25t25 11h36q58 0 100.5 42t42.5 101v17q0 22 -15.5 38t-38.5 16h-125q-44 0 -75.5 31.5t-31.5 75.5z" />
    <glyph glyph-name="uniF110" unicode="&#xf110;" horiz-adv-x="887" 
d="M15 350q0 37 26 63t63 26t63.5 -26t26.5 -63t-26.5 -63t-63.5 -26t-63 26t-26 63zM113 600q0 40 28.5 69t69.5 29t70 -29t29 -69t-29 -69t-70 -29t-69.5 29t-28.5 69zM131 100q0 33 23.5 56.5t56.5 23.5t57 -23.5t24 -56.5t-24 -56.5t-57 -23.5t-56.5 23.5t-23.5 56.5z
M354 707q0 44 31.5 75.5t75.5 31.5t76 -31.5t32 -75.5t-32 -75.5t-76 -31.5t-75.5 31.5t-31.5 75.5zM390 -7q0 29 21 50t50 21t50.5 -21t21.5 -50t-21.5 -50.5t-50.5 -21.5t-50 21.5t-21 50.5zM649 100q0 26 18.5 44t43.5 18q26 0 44.5 -18.5t18.5 -43.5t-18.5 -43.5
t-44.5 -18.5q-25 0 -43.5 18t-18.5 44zM667 600q0 18 13 31.5t31 13.5t31.5 -13.5t13.5 -31.5t-13.5 -31.5t-31.5 -13.5t-31 13.5t-13 31.5zM765 350q0 22 15.5 38t38.5 16q22 0 37.5 -15.5t15.5 -38.5t-15.5 -38.5t-37.5 -15.5q-23 0 -38.5 16t-15.5 38z" />
    <glyph glyph-name="uniF111" unicode="&#xf111;" horiz-adv-x="887" 
d="M15 350q0 123 60 219.5t153 151.5q101 58 216 58q123 0 219.5 -60t151.5 -154q57 -99 57 -215q0 -123 -60 -219.5t-153 -151.5q-101 -58 -215 -58q-123 0 -220 60t-152 154q-57 99 -57 215z" />
    <glyph glyph-name="uniF112" unicode="&#xf112;" 
d="M15 493q0 14 11 25l285 286q10 10 25 10q14 0 25 -10.5t11 -24.5v-143h125q398 0 488 -225q30 -75 30 -186q0 -92 -71 -252q-1 -3 -5.5 -14t-8 -18t-9.5 -13.5t-13 -6.5q-18 0 -18 20q0 3 1.5 14.5t1.5 13.5q3 38 3 69q0 162 -82 234q-53 46 -133 63q-74 15 -184 15h-125
v-143q0 -14 -11 -25t-25 -11t-25 11l-285 286q-11 11 -11 25z" />
    <glyph glyph-name="uniF113" unicode="&#xf113;" horiz-adv-x="959" 
d="M91 491q-15 47 -15 94q0 66 28 122q61 0 106 -22t106 -69q85 20 172 20q82 0 156 -18q52 41 105 67q45 22 105 22q29 -58 29 -122q0 -48 -15 -93q76 -89 76 -222q0 -94 -22 -156t-71 -103q-65 -55 -174 -75q-80 -15 -189 -15q-158 0 -246 26q-96 28 -144 74
q-83 79 -83 249q0 133 76 221zM283 332q-64 0 -103.5 -46.5t-39.5 -114.5q0 -58 22.5 -98t64.5 -61t91.5 -29.5t113.5 -8.5h94q159 0 230 54q63 49 63 143q0 68 -39.5 114.5t-103.5 46.5q-24 0 -109 -12q-39 -6 -88 -6q-48 0 -87 6q-85 12 -109 12zM229 171q0 55 31 89
q16 19 41 19q23 0 40 -19t24 -43q7 -22 7 -46q0 -54 -31 -88q-16 -19 -40 -19q-23 0 -40.5 19t-24.5 43q-7 22 -7 45zM586 171q0 55 31 89q16 19 41 19q23 0 40 -19t24 -43q7 -22 7 -46q0 -54 -31 -88q-16 -19 -40 -19q-23 0 -40.5 19t-24.5 43q-7 22 -7 45z" />
    <glyph glyph-name="uniF114" unicode="&#xf114;" horiz-adv-x="959" 
d="M140 -7q-51 0 -88 37t-37 88v536q0 51 37 88t88 37h179q51 0 88 -37t37 -88v-18h375q51 0 88 -37t37 -88v-393q0 -51 -37 -88t-88 -37h-679zM86 118q0 -22 16 -38t38 -16h679q22 0 37.5 15.5t15.5 38.5v393q0 23 -15 38t-38 15h-393q-22 0 -38 16t-16 38v36
q0 22 -15 37.5t-38 15.5h-179q-23 0 -38.5 -15.5t-15.5 -37.5v-536z" />
    <glyph glyph-name="uniF115" unicode="&#xf115;" horiz-adv-x="1095" 
d="M140 -7q-51 0 -88 37t-37 88v536q0 51 37 88t88 37h179q51 0 88 -37t37 -88v-18h303q51 0 88 -37t37 -88v-90h107q43 0 72 -25t29 -66q0 -34 -25 -66l-165 -203q-22 -27 -62.5 -47.5t-80.5 -20.5h-607zM140 707q-23 0 -38.5 -15.5t-15.5 -37.5v-476l143 175
q23 27 63 47.5t80 20.5h429v90q0 22 -15.5 37.5t-38.5 15.5h-321q-22 0 -38 16t-16 38v36q0 22 -15 37.5t-38 15.5h-179zM110 84q0 -20 30 -20h607q23 0 49 13t39 29l164 203q10 11 10 21q0 20 -30 20h-607q-24 0 -49 -12.5t-38 -28.5l-165 -203q-10 -13 -10 -22z" />
    <glyph glyph-name="uniF300" unicode="&#xf300;" horiz-adv-x="887" 
d="M176 -79q-66 0 -113.5 47.5t-47.5 113.5v536q0 66 47.5 113.5t113.5 47.5h535q66 0 113.5 -47.5t47.5 -113.5v-536q0 -66 -47.5 -113.5t-113.5 -47.5h-535zM162 380q0 -29 17.5 -58t39.5 -36v-2q-21 -9 -21 -47q0 -29 23 -43v-2q-63 -21 -63 -77q0 -32 19.5 -54t47.5 -30
q25 -7 60 -7q125 0 125 104q0 20 -7 34t-22.5 23t-28 13.5t-33.5 9.5q-49 12 -49 35q0 25 27 29q42 8 68 38.5t26 75.5q0 14 -6 29q5 1 14.5 3.5t12.5 3.5v70q-42 -16 -75 -16q-28 16 -61 16q-48 0 -81 -32t-33 -80zM283 154q57 0 57 -34q0 -37 -52 -37q-60 0 -60 35
q0 36 55 36zM278 430q20 0 31 -14.5t11 -35.5q0 -47 -42 -47q-43 0 -43 47q0 50 43 50zM436 591q0 -20 14.5 -35t33.5 -15t33 15t14 35q0 21 -13.5 36t-33.5 15t-34 -15t-14 -36zM522 188q-1 7 -1 50v208q0 36 1 42h-77q2 -20 2 -44v-210q0 -26 -2 -46h77zM554 423l21 2
q1 0 6 -0.5t7 -0.5v-1h-2v-121q0 -57 17.5 -87.5t65.5 -30.5q37 0 60 13v68q-17 -12 -38 -12q-29 0 -29 46v125h29q3 0 14.5 -0.5t14.5 -0.5v65h-58q0 50 1 57h-78q3 -27 3 -30v-27h-34v-65z" />
    <glyph glyph-name="uniF304" unicode="&#xf304;" horiz-adv-x="887" 
d="M176 -79q-66 0 -113.5 47.5t-47.5 113.5v536q0 66 47.5 113.5t113.5 47.5h535q66 0 113.5 -47.5t47.5 -113.5v-536q0 -66 -47.5 -113.5t-113.5 -47.5h-535zM158 170q0 -9 8 -14q32 -24 80.5 -40t97.5 -16q75 0 139 32q87 41 140 125t52 195v6q15 13 34.5 35t19.5 34
q0 7 -5.5 12.5t-12.5 5.5l-8 -2q11 20 11 31q0 8 -5 13t-13 5q-3 0 -9 -3q-33 -19 -54 -24q-37 35 -86 35q-54 0 -91.5 -40.5t-36.5 -94.5v-7q-63 8 -106 36t-86 78q-6 6 -16 6q-14 0 -22.5 -27t-8.5 -49q0 -37 16 -66q-16 -2 -16 -18q0 -64 45 -104q-7 -5 -7 -14v-3l1 -2
q18 -61 75 -85q-44 -24 -92 -24q-2 0 -13 1t-13 1q-8 0 -13 -5t-5 -13z" />
    <glyph glyph-name="uniF308" unicode="&#xf308;" horiz-adv-x="887" 
d="M15 82v536q0 66 47.5 113.5t113.5 47.5h535q66 0 113.5 -47.5t47.5 -113.5v-536q0 -66 -47.5 -113.5t-113.5 -47.5h-195l-1 1v374h99q18 0 18 13l6 92q1 8 -4.5 14t-13.5 6h-105v41q0 25 6.5 32t30.5 7q30 0 65 -8q8 -2 14.5 2.5t7.5 12.5l13 93q3 16 -14 20
q-53 15 -110 15q-174 0 -174 -167v-48h-53q-7 0 -12.5 -5.5t-5.5 -13.5v-96q0 -10 18 -10h53v-374l6 -1h-184q-66 0 -113.5 47.5t-47.5 113.5z" />
    <glyph glyph-name="uniF30C" unicode="&#xf30c;" horiz-adv-x="887" 
d="M176 -79q-66 0 -113.5 47.5t-47.5 113.5v536q0 66 47.5 113.5t113.5 47.5h535q66 0 113.5 -47.5t47.5 -113.5v-536q0 -66 -47.5 -113.5t-113.5 -47.5h-535zM158 82q0 -8 5 -13t13 -5h107q7 0 12.5 5t5.5 13v357q0 7 -5.5 12.5t-12.5 5.5h-107q-8 0 -13 -5.5t-5 -12.5
v-357zM158 567q0 -29 20 -49.5t48 -20.5t49 20.5t21 49.5q0 28 -20.5 48.5t-49.5 20.5q-28 0 -48 -20t-20 -49zM336 82q0 -7 9 -12.5t17 -5.5h101q7 0 11.5 5.5t4.5 12.5v195q0 78 64 78q26 0 34.5 -12t8.5 -42v-219q0 -7 7 -12.5t15 -5.5h103q7 0 12.5 5t5.5 13v243
q0 70 -41 107t-113 37q-51 0 -88 -25q-4 -3 -8 -7q0 20 -19 20h-98q-9 0 -17.5 -4t-8.5 -11v-360z" />
    <glyph glyph-name="u1F304" unicode="&#x1f304;" horiz-adv-x="1101" 
d="M104 -79q-37 0 -63 26.5t-26 63.5v678q0 37 26 63.5t63 26.5h893q37 0 63 -26.5t26 -63.5v-678q0 -37 -26 -63.5t-63 -26.5h-893zM86 11q0 -7 5 -12.5t13 -5.5h893q7 0 12.5 5.5t5.5 12.5v678q0 7 -5.5 12.5t-12.5 5.5h-893q-8 0 -13 -5.5t-5 -12.5v-678zM158 171
l178 179l90 -89l285 285l233 -232v-250h-786v107zM158 529q0 44 31.5 75.5t75.5 31.5t75.5 -31.5t31.5 -75.5t-31.5 -76t-75.5 -32t-75.5 32t-31.5 76z" />
    </font>
</defs>
</svg>
